<svg xmlns="http://www.w3.org/2000/svg" viewBox="0 0 323.15 211.97"><defs><style>.cls-1{opacity:0.3;}.cls-2{fill:#231f20;}.cls-3{fill:#ffc733;}.cls-4{fill:#fede3a;}.cls-5{fill:#fff;}</style></defs><title>field-2</title><g id="Layer_2" data-name="Layer 2"><g id="Layer_1-2" data-name="Layer 1"><g class="cls-1"><path class="cls-2" d="M106.49,112.82c0-.62,0-1.23.05-1.84H51.41V167.9H0v36.72A7.35,7.35,0,0,0,7.34,212H157.9v-44.2A55.08,55.08,0,0,1,106.49,112.82Z"/><path class="cls-2" d="M40.39,111H3.67c-2,0-3.67-.82-3.67-1.83v47.74H40.39Z"/><path class="cls-2" d="M157.9,160.4V111h-44c0,.61,0,1.22,0,1.84A47.71,47.71,0,0,0,157.9,160.4Z"/><path class="cls-2" d="M271.74,111H216.61c0,.61,0,1.22,0,1.84a55.09,55.09,0,0,1-51.41,55V212H315.8a7.35,7.35,0,0,0,7.35-7.35V167.9H271.74Z"/><path class="cls-2" d="M319.48,111H282.75v45.91h40.4V109.15C323.15,110.16,321.5,111,319.48,111Z"/><path class="cls-2" d="M209.31,112.82c0-.62,0-1.23,0-1.84h-44V160.4A47.72,47.72,0,0,0,209.31,112.82Z"/><path class="cls-2" d="M157.9,65.24a47.73,47.73,0,0,0-44,45.74h44Z"/><path class="cls-2" d="M216.61,111h55.13V54.07h51.41V17.34A7.35,7.35,0,0,0,315.8,10H165.25V57.87A55.06,55.06,0,0,1,216.61,111Z"/><path class="cls-2" d="M165.25,65.24V111h44A47.73,47.73,0,0,0,165.25,65.24Z"/><path class="cls-2" d="M3.67,111H40.39V65.08H0v44.07C0,110.16,1.64,111,3.67,111Z"/><path class="cls-2" d="M282.75,111h36.73c2,0,3.67-.82,3.67-1.83V65.08h-40.4Z"/><path class="cls-2" d="M51.41,111h55.13A55.06,55.06,0,0,1,157.9,57.87V10H7.34A7.34,7.34,0,0,0,0,17.34V54.07H51.41Z"/><path class="cls-2" d="M0,204.62v3.68A3.67,3.67,0,0,0,3.67,212H7.34A7.35,7.35,0,0,1,0,204.62Z"/><path class="cls-2" d="M315.8,212h3.68a3.68,3.68,0,0,0,3.67-3.67v-3.68A7.35,7.35,0,0,1,315.8,212Z"/><path class="cls-2" d="M3.67,10c-2,0-3.67.82-3.67,1.84v1.83A3.67,3.67,0,0,1,3.67,10Z"/><path class="cls-2" d="M323.15,13.67V11.84c0-1-1.65-1.84-3.67-1.84A3.67,3.67,0,0,1,323.15,13.67Z"/><path class="cls-2" d="M7.34,10H3.67A3.67,3.67,0,0,0,0,13.67v3.67A7.34,7.34,0,0,1,7.34,10Z"/><path class="cls-2" d="M323.15,17.34V13.67A3.67,3.67,0,0,0,319.48,10H315.8A7.35,7.35,0,0,1,323.15,17.34Z"/></g><path class="cls-3" d="M106.49,102.82c0-.62,0-1.23.05-1.84H51.41V157.9H0v36.72A7.35,7.35,0,0,0,7.34,202H157.9v-44.2A55.08,55.08,0,0,1,106.49,102.82Z"/><path class="cls-3" d="M40.39,101H3.67c-2,0-3.67-.82-3.67-1.83v47.74H40.39Z"/><path class="cls-3" d="M157.9,150.4V101h-44c0,.61,0,1.22,0,1.84A47.71,47.71,0,0,0,157.9,150.4Z"/><path class="cls-3" d="M271.74,101H216.61c0,.61,0,1.22,0,1.84a55.09,55.09,0,0,1-51.41,55V202H315.8a7.35,7.35,0,0,0,7.35-7.35V157.9H271.74Z"/><path class="cls-3" d="M319.48,101H282.75v45.91h40.4V99.15C323.15,100.16,321.5,101,319.48,101Z"/><path class="cls-3" d="M209.31,102.82c0-.62,0-1.23,0-1.84h-44V150.4A47.72,47.72,0,0,0,209.31,102.82Z"/><path class="cls-4" d="M157.9,55.24a47.73,47.73,0,0,0-44,45.74h44Z"/><path class="cls-4" d="M216.61,101h55.13V44.07h51.41V7.34A7.35,7.35,0,0,0,315.8,0H165.25V47.87A55.06,55.06,0,0,1,216.61,101Z"/><path class="cls-4" d="M165.25,55.24V101h44A47.73,47.73,0,0,0,165.25,55.24Z"/><path class="cls-4" d="M3.67,101H40.39V55.08H0V99.15C0,100.16,1.64,101,3.67,101Z"/><path class="cls-4" d="M282.75,101h36.73c2,0,3.67-.82,3.67-1.83V55.08h-40.4Z"/><path class="cls-4" d="M51.41,101h55.13A55.06,55.06,0,0,1,157.9,47.87V0H7.34A7.34,7.34,0,0,0,0,7.34V44.07H51.41Z"/><path class="cls-5" d="M3.67,0C1.64,0,0,.82,0,1.84V3.67A3.67,3.67,0,0,1,3.67,0Z"/><path class="cls-5" d="M323.15,3.67V1.84c0-1-1.65-1.84-3.67-1.84A3.67,3.67,0,0,1,323.15,3.67Z"/></g></g></svg>