<svg xmlns="http://www.w3.org/2000/svg" xmlns:xlink="http://www.w3.org/1999/xlink" viewBox="0 0 2340 412">
  <defs>
    <style>
      .cls-1, .cls-3 {
        fill: none;
      }

      .cls-2 {
        clip-path: url(#clip-path);
      }

      .cls-3 {
        stroke: #707070;
      }
    </style>
    <clipPath id="clip-path">
      <rect class="cls-1" width="2340" height="412"/>
    </clipPath>
  </defs>
  <g id="Footer_Grid" data-name="Footer Grid" class="cls-2">
    <g transform="translate(-0.5 -0.5)">
      <line id="Line_1" data-name="Line 1" class="cls-3" y1="412" x2="413" transform="translate(0.5 0.5)"/>
    </g>
    <g transform="translate(17.5 -0.5)">
      <line id="Line_1-2" data-name="Line 1" class="cls-3" y1="412" x2="413" transform="translate(0.5 0.5)"/>
    </g>
    <g transform="translate(35.5 -0.5)">
      <line id="Line_1-3" data-name="Line 1" class="cls-3" y1="412" x2="413" transform="translate(0.5 0.5)"/>
    </g>
    <g transform="translate(53.5 -0.5)">
      <line id="Line_1-4" data-name="Line 1" class="cls-3" y1="412" x2="413" transform="translate(0.5 0.5)"/>
    </g>
    <g transform="translate(71.5 -0.5)">
      <line id="Line_1-5" data-name="Line 1" class="cls-3" y1="412" x2="413" transform="translate(0.5 0.5)"/>
    </g>
    <g transform="translate(89.5 -0.5)">
      <line id="Line_1-6" data-name="Line 1" class="cls-3" y1="412" x2="413" transform="translate(0.5 0.5)"/>
    </g>
    <g transform="translate(107.5 -0.5)">
      <line id="Line_1-7" data-name="Line 1" class="cls-3" y1="412" x2="413" transform="translate(0.5 0.5)"/>
    </g>
    <g transform="translate(125.5 -0.5)">
      <line id="Line_1-8" data-name="Line 1" class="cls-3" y1="412" x2="413" transform="translate(0.5 0.5)"/>
    </g>
    <g transform="translate(143.5 -0.5)">
      <line id="Line_1-9" data-name="Line 1" class="cls-3" y1="412" x2="413" transform="translate(0.5 0.5)"/>
    </g>
    <g transform="translate(161.5 -0.5)">
      <line id="Line_1-10" data-name="Line 1" class="cls-3" y1="412" x2="413" transform="translate(0.5 0.5)"/>
    </g>
    <g transform="translate(179.5 -0.5)">
      <line id="Line_1-11" data-name="Line 1" class="cls-3" y1="412" x2="413" transform="translate(0.5 0.5)"/>
    </g>
    <g transform="translate(197.5 -0.5)">
      <line id="Line_1-12" data-name="Line 1" class="cls-3" y1="412" x2="413" transform="translate(0.5 0.5)"/>
    </g>
    <g transform="translate(215.5 -0.5)">
      <line id="Line_1-13" data-name="Line 1" class="cls-3" y1="412" x2="413" transform="translate(0.5 0.5)"/>
    </g>
    <g transform="translate(233.5 -0.5)">
      <line id="Line_1-14" data-name="Line 1" class="cls-3" y1="412" x2="413" transform="translate(0.5 0.5)"/>
    </g>
    <g transform="translate(251.5 -0.5)">
      <line id="Line_1-15" data-name="Line 1" class="cls-3" y1="412" x2="413" transform="translate(0.5 0.5)"/>
    </g>
    <g transform="translate(269.5 -0.5)">
      <line id="Line_1-16" data-name="Line 1" class="cls-3" y1="412" x2="413" transform="translate(0.5 0.5)"/>
    </g>
    <g transform="translate(287.5 -0.5)">
      <line id="Line_1-17" data-name="Line 1" class="cls-3" y1="412" x2="413" transform="translate(0.5 0.5)"/>
    </g>
    <g transform="translate(305.5 -0.5)">
      <line id="Line_1-18" data-name="Line 1" class="cls-3" y1="412" x2="413" transform="translate(0.5 0.5)"/>
    </g>
    <g transform="translate(323.5 -0.5)">
      <line id="Line_1-19" data-name="Line 1" class="cls-3" y1="412" x2="413" transform="translate(0.5 0.5)"/>
    </g>
    <g transform="translate(341.5 -0.5)">
      <line id="Line_1-20" data-name="Line 1" class="cls-3" y1="412" x2="413" transform="translate(0.5 0.5)"/>
    </g>
    <g transform="translate(359.5 -0.5)">
      <line id="Line_1-21" data-name="Line 1" class="cls-3" y1="412" x2="413" transform="translate(0.5 0.5)"/>
    </g>
    <g transform="translate(377.5 -0.5)">
      <line id="Line_1-22" data-name="Line 1" class="cls-3" y1="412" x2="413" transform="translate(0.5 0.5)"/>
    </g>
    <g transform="translate(395.5 -0.5)">
      <line id="Line_1-23" data-name="Line 1" class="cls-3" y1="412" x2="413" transform="translate(0.5 0.5)"/>
    </g>
    <g transform="translate(413.5 -0.5)">
      <line id="Line_1-24" data-name="Line 1" class="cls-3" y1="412" x2="413" transform="translate(0.5 0.5)"/>
    </g>
    <g transform="translate(431.5 -0.5)">
      <line id="Line_1-25" data-name="Line 1" class="cls-3" y1="412" x2="413" transform="translate(0.5 0.5)"/>
    </g>
    <g transform="translate(449.5 -0.5)">
      <line id="Line_1-26" data-name="Line 1" class="cls-3" y1="412" x2="413" transform="translate(0.5 0.5)"/>
    </g>
    <g transform="translate(467.5 -0.5)">
      <line id="Line_1-27" data-name="Line 1" class="cls-3" y1="412" x2="413" transform="translate(0.5 0.5)"/>
    </g>
    <g transform="translate(485.5 -0.5)">
      <line id="Line_1-28" data-name="Line 1" class="cls-3" y1="412" x2="413" transform="translate(0.5 0.5)"/>
    </g>
    <g transform="translate(503.5 -0.5)">
      <line id="Line_1-29" data-name="Line 1" class="cls-3" y1="412" x2="413" transform="translate(0.5 0.5)"/>
    </g>
    <g transform="translate(521.5 -0.5)">
      <line id="Line_1-30" data-name="Line 1" class="cls-3" y1="412" x2="413" transform="translate(0.5 0.5)"/>
    </g>
    <g transform="translate(539.5 -0.5)">
      <line id="Line_1-31" data-name="Line 1" class="cls-3" y1="412" x2="413" transform="translate(0.5 0.5)"/>
    </g>
    <g transform="translate(557.5 -0.5)">
      <line id="Line_1-32" data-name="Line 1" class="cls-3" y1="412" x2="413" transform="translate(0.5 0.5)"/>
    </g>
    <g transform="translate(575.5 -0.5)">
      <line id="Line_1-33" data-name="Line 1" class="cls-3" y1="412" x2="413" transform="translate(0.5 0.5)"/>
    </g>
    <g transform="translate(593.5 -0.5)">
      <line id="Line_1-34" data-name="Line 1" class="cls-3" y1="412" x2="413" transform="translate(0.5 0.5)"/>
    </g>
    <g transform="translate(611.5 -0.5)">
      <line id="Line_1-35" data-name="Line 1" class="cls-3" y1="412" x2="413" transform="translate(0.5 0.5)"/>
    </g>
    <g transform="translate(629.5 -0.5)">
      <line id="Line_1-36" data-name="Line 1" class="cls-3" y1="412" x2="413" transform="translate(0.5 0.5)"/>
    </g>
    <g transform="translate(647.5 -0.5)">
      <line id="Line_1-37" data-name="Line 1" class="cls-3" y1="412" x2="413" transform="translate(0.5 0.5)"/>
    </g>
    <g transform="translate(665.5 -0.5)">
      <line id="Line_1-38" data-name="Line 1" class="cls-3" y1="412" x2="413" transform="translate(0.5 0.5)"/>
    </g>
    <g transform="translate(683.5 -0.5)">
      <line id="Line_1-39" data-name="Line 1" class="cls-3" y1="412" x2="413" transform="translate(0.5 0.5)"/>
    </g>
    <g transform="translate(701.5 -0.5)">
      <line id="Line_1-40" data-name="Line 1" class="cls-3" y1="412" x2="413" transform="translate(0.5 0.5)"/>
    </g>
    <g transform="translate(719.5 -0.5)">
      <line id="Line_1-41" data-name="Line 1" class="cls-3" y1="412" x2="413" transform="translate(0.5 0.5)"/>
    </g>
    <g transform="translate(737.5 -0.5)">
      <line id="Line_1-42" data-name="Line 1" class="cls-3" y1="412" x2="413" transform="translate(0.5 0.5)"/>
    </g>
    <g transform="translate(755.5 -0.5)">
      <line id="Line_1-43" data-name="Line 1" class="cls-3" y1="412" x2="413" transform="translate(0.5 0.5)"/>
    </g>
    <g transform="translate(773.5 -0.5)">
      <line id="Line_1-44" data-name="Line 1" class="cls-3" y1="412" x2="413" transform="translate(0.5 0.5)"/>
    </g>
    <g transform="translate(791.5 -0.5)">
      <line id="Line_1-45" data-name="Line 1" class="cls-3" y1="412" x2="413" transform="translate(0.5 0.5)"/>
    </g>
    <g transform="translate(809.5 -0.5)">
      <line id="Line_1-46" data-name="Line 1" class="cls-3" y1="412" x2="413" transform="translate(0.5 0.5)"/>
    </g>
    <g transform="translate(827.5 -0.5)">
      <line id="Line_1-47" data-name="Line 1" class="cls-3" y1="412" x2="413" transform="translate(0.5 0.5)"/>
    </g>
    <g transform="translate(845.5 -0.5)">
      <line id="Line_1-48" data-name="Line 1" class="cls-3" y1="412" x2="413" transform="translate(0.5 0.5)"/>
    </g>
    <g transform="translate(863.5 -0.5)">
      <line id="Line_1-49" data-name="Line 1" class="cls-3" y1="412" x2="413" transform="translate(0.5 0.5)"/>
    </g>
    <g transform="translate(881.5 -0.5)">
      <line id="Line_1-50" data-name="Line 1" class="cls-3" y1="412" x2="413" transform="translate(0.5 0.5)"/>
    </g>
    <g transform="translate(899.5 -0.5)">
      <line id="Line_1-51" data-name="Line 1" class="cls-3" y1="412" x2="413" transform="translate(0.5 0.5)"/>
    </g>
    <g transform="translate(917.5 -0.5)">
      <line id="Line_1-52" data-name="Line 1" class="cls-3" y1="412" x2="413" transform="translate(0.5 0.5)"/>
    </g>
    <g transform="translate(935.5 -0.5)">
      <line id="Line_1-53" data-name="Line 1" class="cls-3" y1="412" x2="413" transform="translate(0.5 0.5)"/>
    </g>
    <g transform="translate(953.5 -0.5)">
      <line id="Line_1-54" data-name="Line 1" class="cls-3" y1="412" x2="413" transform="translate(0.5 0.5)"/>
    </g>
    <g transform="translate(971.5 -0.5)">
      <line id="Line_1-55" data-name="Line 1" class="cls-3" y1="412" x2="413" transform="translate(0.5 0.5)"/>
    </g>
    <g transform="translate(989.5 -0.5)">
      <line id="Line_1-56" data-name="Line 1" class="cls-3" y1="412" x2="413" transform="translate(0.5 0.5)"/>
    </g>
    <g transform="translate(1007.5 -0.5)">
      <line id="Line_1-57" data-name="Line 1" class="cls-3" y1="412" x2="413" transform="translate(0.5 0.5)"/>
    </g>
    <g transform="translate(1025.5 -0.5)">
      <line id="Line_1-58" data-name="Line 1" class="cls-3" y1="412" x2="413" transform="translate(0.5 0.5)"/>
    </g>
    <g transform="translate(1043.5 -0.5)">
      <line id="Line_1-59" data-name="Line 1" class="cls-3" y1="412" x2="413" transform="translate(0.5 0.5)"/>
    </g>
    <g transform="translate(1061.5 -0.5)">
      <line id="Line_1-60" data-name="Line 1" class="cls-3" y1="412" x2="413" transform="translate(0.5 0.5)"/>
    </g>
    <g transform="translate(1079.5 -0.5)">
      <line id="Line_1-61" data-name="Line 1" class="cls-3" y1="412" x2="413" transform="translate(0.5 0.5)"/>
    </g>
    <g transform="translate(1097.5 -0.5)">
      <line id="Line_1-62" data-name="Line 1" class="cls-3" y1="412" x2="413" transform="translate(0.5 0.5)"/>
    </g>
    <g transform="translate(1115.5 -0.5)">
      <line id="Line_1-63" data-name="Line 1" class="cls-3" y1="412" x2="413" transform="translate(0.5 0.5)"/>
    </g>
    <g transform="translate(1133.5 -0.5)">
      <line id="Line_1-64" data-name="Line 1" class="cls-3" y1="412" x2="413" transform="translate(0.5 0.5)"/>
    </g>
    <g transform="translate(1151.5 -0.5)">
      <line id="Line_1-65" data-name="Line 1" class="cls-3" y1="412" x2="413" transform="translate(0.5 0.5)"/>
    </g>
    <g transform="translate(1169.5 -0.5)">
      <line id="Line_1-66" data-name="Line 1" class="cls-3" y1="412" x2="413" transform="translate(0.5 0.5)"/>
    </g>
    <g transform="translate(1187.5 -0.5)">
      <line id="Line_1-67" data-name="Line 1" class="cls-3" y1="412" x2="413" transform="translate(0.5 0.5)"/>
    </g>
    <g transform="translate(1205.5 -0.5)">
      <line id="Line_1-68" data-name="Line 1" class="cls-3" y1="412" x2="413" transform="translate(0.5 0.5)"/>
    </g>
    <g transform="translate(1223.5 -0.5)">
      <line id="Line_1-69" data-name="Line 1" class="cls-3" y1="412" x2="413" transform="translate(0.5 0.5)"/>
    </g>
    <g transform="translate(1241.5 -0.5)">
      <line id="Line_1-70" data-name="Line 1" class="cls-3" y1="412" x2="413" transform="translate(0.5 0.5)"/>
    </g>
    <g transform="translate(1259.5 -0.5)">
      <line id="Line_1-71" data-name="Line 1" class="cls-3" y1="412" x2="413" transform="translate(0.5 0.5)"/>
    </g>
    <g transform="translate(1277.5 -0.5)">
      <line id="Line_1-72" data-name="Line 1" class="cls-3" y1="412" x2="413" transform="translate(0.5 0.5)"/>
    </g>
    <g transform="translate(1295.5 -0.5)">
      <line id="Line_1-73" data-name="Line 1" class="cls-3" y1="412" x2="413" transform="translate(0.5 0.5)"/>
    </g>
    <g transform="translate(1313.5 -0.5)">
      <line id="Line_1-74" data-name="Line 1" class="cls-3" y1="412" x2="413" transform="translate(0.5 0.5)"/>
    </g>
    <g transform="translate(1331.5 -0.5)">
      <line id="Line_1-75" data-name="Line 1" class="cls-3" y1="412" x2="413" transform="translate(0.5 0.5)"/>
    </g>
    <g transform="translate(1349.5 -0.5)">
      <line id="Line_1-76" data-name="Line 1" class="cls-3" y1="412" x2="413" transform="translate(0.5 0.5)"/>
    </g>
    <g transform="translate(1367.5 -0.5)">
      <line id="Line_1-77" data-name="Line 1" class="cls-3" y1="412" x2="413" transform="translate(0.5 0.5)"/>
    </g>
    <g transform="translate(1385.5 -0.5)">
      <line id="Line_1-78" data-name="Line 1" class="cls-3" y1="412" x2="413" transform="translate(0.5 0.5)"/>
    </g>
    <g transform="translate(1403.5 -0.5)">
      <line id="Line_1-79" data-name="Line 1" class="cls-3" y1="412" x2="413" transform="translate(0.5 0.5)"/>
    </g>
    <g transform="translate(1421.5 -0.5)">
      <line id="Line_1-80" data-name="Line 1" class="cls-3" y1="412" x2="413" transform="translate(0.5 0.5)"/>
    </g>
    <g transform="translate(1439.5 -0.5)">
      <line id="Line_1-81" data-name="Line 1" class="cls-3" y1="412" x2="413" transform="translate(0.5 0.5)"/>
    </g>
    <g transform="translate(1457.5 -0.5)">
      <line id="Line_1-82" data-name="Line 1" class="cls-3" y1="412" x2="413" transform="translate(0.5 0.5)"/>
    </g>
    <g transform="translate(1475.5 -0.5)">
      <line id="Line_1-83" data-name="Line 1" class="cls-3" y1="412" x2="413" transform="translate(0.5 0.5)"/>
    </g>
    <g transform="translate(1493.5 -0.5)">
      <line id="Line_1-84" data-name="Line 1" class="cls-3" y1="412" x2="413" transform="translate(0.5 0.5)"/>
    </g>
    <g transform="translate(1511.5 -0.5)">
      <line id="Line_1-85" data-name="Line 1" class="cls-3" y1="412" x2="413" transform="translate(0.5 0.5)"/>
    </g>
    <g transform="translate(1529.5 -0.5)">
      <line id="Line_1-86" data-name="Line 1" class="cls-3" y1="412" x2="413" transform="translate(0.5 0.5)"/>
    </g>
    <g transform="translate(1547.5 -0.5)">
      <line id="Line_1-87" data-name="Line 1" class="cls-3" y1="412" x2="413" transform="translate(0.5 0.5)"/>
    </g>
    <g transform="translate(1565.5 -0.5)">
      <line id="Line_1-88" data-name="Line 1" class="cls-3" y1="412" x2="413" transform="translate(0.5 0.5)"/>
    </g>
    <g transform="translate(1583.5 -0.5)">
      <line id="Line_1-89" data-name="Line 1" class="cls-3" y1="412" x2="413" transform="translate(0.5 0.5)"/>
    </g>
    <g transform="translate(1601.5 -0.5)">
      <line id="Line_1-90" data-name="Line 1" class="cls-3" y1="412" x2="413" transform="translate(0.5 0.5)"/>
    </g>
    <g transform="translate(1619.5 -0.5)">
      <line id="Line_1-91" data-name="Line 1" class="cls-3" y1="412" x2="413" transform="translate(0.5 0.5)"/>
    </g>
    <g transform="translate(1637.5 -0.5)">
      <line id="Line_1-92" data-name="Line 1" class="cls-3" y1="412" x2="413" transform="translate(0.5 0.5)"/>
    </g>
    <g transform="translate(1655.5 -0.5)">
      <line id="Line_1-93" data-name="Line 1" class="cls-3" y1="412" x2="413" transform="translate(0.5 0.5)"/>
    </g>
    <g transform="translate(1673.5 -0.5)">
      <line id="Line_1-94" data-name="Line 1" class="cls-3" y1="412" x2="413" transform="translate(0.5 0.5)"/>
    </g>
    <g transform="translate(1691.5 -0.5)">
      <line id="Line_1-95" data-name="Line 1" class="cls-3" y1="412" x2="413" transform="translate(0.5 0.5)"/>
    </g>
    <g transform="translate(1709.5 -0.5)">
      <line id="Line_1-96" data-name="Line 1" class="cls-3" y1="412" x2="413" transform="translate(0.5 0.5)"/>
    </g>
    <g transform="translate(1727.5 -0.5)">
      <line id="Line_1-97" data-name="Line 1" class="cls-3" y1="412" x2="413" transform="translate(0.5 0.5)"/>
    </g>
    <g transform="translate(1745.5 -0.5)">
      <line id="Line_1-98" data-name="Line 1" class="cls-3" y1="412" x2="413" transform="translate(0.5 0.5)"/>
    </g>
    <g transform="translate(1763.5 -0.5)">
      <line id="Line_1-99" data-name="Line 1" class="cls-3" y1="412" x2="413" transform="translate(0.5 0.5)"/>
    </g>
    <g transform="translate(1781.5 -0.5)">
      <line id="Line_1-100" data-name="Line 1" class="cls-3" y1="412" x2="413" transform="translate(0.5 0.5)"/>
    </g>
    <g transform="translate(1799.5 -0.5)">
      <line id="Line_1-101" data-name="Line 1" class="cls-3" y1="412" x2="413" transform="translate(0.5 0.5)"/>
    </g>
    <g transform="translate(1817.5 -0.5)">
      <line id="Line_1-102" data-name="Line 1" class="cls-3" y1="412" x2="413" transform="translate(0.5 0.5)"/>
    </g>
    <g transform="translate(1835.5 -0.5)">
      <line id="Line_1-103" data-name="Line 1" class="cls-3" y1="412" x2="413" transform="translate(0.5 0.5)"/>
    </g>
    <g transform="translate(1853.5 -0.5)">
      <line id="Line_1-104" data-name="Line 1" class="cls-3" y1="412" x2="413" transform="translate(0.5 0.5)"/>
    </g>
    <g transform="translate(1871.5 -0.5)">
      <line id="Line_1-105" data-name="Line 1" class="cls-3" y1="412" x2="413" transform="translate(0.5 0.5)"/>
    </g>
    <g transform="translate(1889.5 -0.5)">
      <line id="Line_1-106" data-name="Line 1" class="cls-3" y1="412" x2="413" transform="translate(0.5 0.5)"/>
    </g>
    <g transform="translate(1907.5 -0.5)">
      <line id="Line_1-107" data-name="Line 1" class="cls-3" y1="412" x2="413" transform="translate(0.5 0.5)"/>
    </g>
    <g transform="translate(1925.5 -0.5)">
      <line id="Line_1-108" data-name="Line 1" class="cls-3" y1="412" x2="413" transform="translate(0.5 0.5)"/>
    </g>
    <g transform="translate(1943.5 -0.5)">
      <line id="Line_1-109" data-name="Line 1" class="cls-3" y1="412" x2="413" transform="translate(0.5 0.5)"/>
    </g>
    <g transform="translate(1961.5 -0.5)">
      <line id="Line_1-110" data-name="Line 1" class="cls-3" y1="412" x2="413" transform="translate(0.5 0.5)"/>
    </g>
    <g transform="translate(1979.5 -0.5)">
      <line id="Line_1-111" data-name="Line 1" class="cls-3" y1="412" x2="413" transform="translate(0.5 0.5)"/>
    </g>
    <g transform="translate(1997.5 -0.5)">
      <line id="Line_1-112" data-name="Line 1" class="cls-3" y1="412" x2="413" transform="translate(0.5 0.5)"/>
    </g>
    <g transform="translate(2015.5 -0.5)">
      <line id="Line_1-113" data-name="Line 1" class="cls-3" y1="412" x2="413" transform="translate(0.5 0.5)"/>
    </g>
    <g transform="translate(2033.5 -0.5)">
      <line id="Line_1-114" data-name="Line 1" class="cls-3" y1="412" x2="413" transform="translate(0.5 0.5)"/>
    </g>
    <g transform="translate(2051.5 -0.5)">
      <line id="Line_1-115" data-name="Line 1" class="cls-3" y1="412" x2="413" transform="translate(0.5 0.5)"/>
    </g>
    <g transform="translate(2069.5 -0.5)">
      <line id="Line_1-116" data-name="Line 1" class="cls-3" y1="412" x2="413" transform="translate(0.5 0.5)"/>
    </g>
    <g transform="translate(2087.5 -0.5)">
      <line id="Line_1-117" data-name="Line 1" class="cls-3" y1="412" x2="413" transform="translate(0.5 0.5)"/>
    </g>
    <g transform="translate(2105.5 -0.5)">
      <line id="Line_1-118" data-name="Line 1" class="cls-3" y1="412" x2="413" transform="translate(0.5 0.5)"/>
    </g>
    <g transform="translate(2123.5 -0.5)">
      <line id="Line_1-119" data-name="Line 1" class="cls-3" y1="412" x2="413" transform="translate(0.5 0.5)"/>
    </g>
    <g transform="translate(2141.5 -0.5)">
      <line id="Line_1-120" data-name="Line 1" class="cls-3" y1="412" x2="413" transform="translate(0.5 0.5)"/>
    </g>
    <g transform="translate(2159.5 -0.5)">
      <line id="Line_1-121" data-name="Line 1" class="cls-3" y1="412" x2="413" transform="translate(0.5 0.5)"/>
    </g>
    <g transform="translate(2177.5 -0.5)">
      <line id="Line_1-122" data-name="Line 1" class="cls-3" y1="412" x2="413" transform="translate(0.5 0.5)"/>
    </g>
    <g transform="translate(2195.5 -0.5)">
      <line id="Line_1-123" data-name="Line 1" class="cls-3" y1="412" x2="413" transform="translate(0.5 0.5)"/>
    </g>
    <g transform="translate(2213.5 -0.5)">
      <line id="Line_1-124" data-name="Line 1" class="cls-3" y1="412" x2="413" transform="translate(0.5 0.5)"/>
    </g>
    <g transform="translate(2231.5 -0.5)">
      <line id="Line_1-125" data-name="Line 1" class="cls-3" y1="412" x2="413" transform="translate(0.5 0.5)"/>
    </g>
    <g transform="translate(2249.5 -0.5)">
      <line id="Line_1-126" data-name="Line 1" class="cls-3" y1="412" x2="413" transform="translate(0.5 0.5)"/>
    </g>
    <g transform="translate(2267.5 -0.5)">
      <line id="Line_1-127" data-name="Line 1" class="cls-3" y1="412" x2="413" transform="translate(0.5 0.5)"/>
    </g>
    <g transform="translate(2285.5 -0.5)">
      <line id="Line_1-128" data-name="Line 1" class="cls-3" y1="412" x2="413" transform="translate(0.5 0.5)"/>
    </g>
    <g transform="translate(2303.5 -0.5)">
      <line id="Line_1-129" data-name="Line 1" class="cls-3" y1="412" x2="413" transform="translate(0.5 0.5)"/>
    </g>
    <g transform="translate(2321.5 -0.5)">
      <line id="Line_1-130" data-name="Line 1" class="cls-3" y1="412" x2="413" transform="translate(0.5 0.5)"/>
    </g>
  </g>
</svg>
