<svg xmlns="http://www.w3.org/2000/svg" viewBox="0 0 343.2 511.02"><defs><style>.cls-1{fill:#231f20;opacity:0.3;}.cls-2{fill:#fede3a;}.cls-3{fill:#ffc733;}.cls-4{fill:#f05455;}.cls-5{fill:#d84b4c;}.cls-6{fill:#e7ad27;}.cls-7{fill:#f3f3f4;}.cls-8{fill:#fff;}</style></defs><title>gcoin-rewards-3</title><g id="Layer_2" data-name="Layer 2"><g id="Layer_1-2" data-name="Layer 1"><path class="cls-1" d="M343.13,377.51l-.06-1.61c-.05-1.16-.1-2.32-.16-3.49,0-.61-.07-1.23-.11-1.84-.08-1.13-.16-2.26-.25-3.39-.05-.6-.1-1.2-.16-1.8-.11-1.28-.24-2.55-.38-3.83l-.15-1.35c-.2-1.72-.42-3.45-.66-5.18-.06-.37-.12-.74-.17-1.11-.2-1.37-.41-2.74-.64-4.12-.1-.6-.21-1.2-.31-1.79-.2-1.18-.42-2.35-.64-3.53l-.36-1.89q-.36-1.8-.75-3.6c-.12-.57-.24-1.14-.37-1.72-.34-1.55-.7-3.11-1.08-4.67-.05-.2-.09-.4-.14-.61-.43-1.77-.89-3.54-1.36-5.31-.14-.49-.28-1-.41-1.49-.35-1.28-.71-2.56-1.08-3.83-.18-.62-.36-1.23-.55-1.84-.35-1.19-.72-2.38-1.09-3.58l-.57-1.81c-.42-1.3-.85-2.6-1.29-3.89-.16-.47-.31-1-.47-1.42q-.92-2.65-1.89-5.31c-.06-.18-.13-.35-.2-.53-.58-1.57-1.18-3.15-1.79-4.72-.21-.54-.43-1.07-.64-1.61-.49-1.23-1-2.45-1.49-3.68-.24-.59-.49-1.17-.74-1.76q-.76-1.83-1.56-3.63L320.9,286c-.65-1.46-1.32-2.92-2-4.37l-.36-.78c-.82-1.74-1.65-3.46-2.5-5.18l-.54-1.08q-1-2-2-4c-.27-.53-.55-1.06-.83-1.59l-1.89-3.52-.89-1.6c-.68-1.23-1.37-2.46-2.07-3.67l-.75-1.3q-2.88-5-6-9.76c-.26-.41-.54-.83-.81-1.24-.76-1.18-1.53-2.35-2.31-3.52l-1-1.47c-.75-1.11-1.52-2.22-2.29-3.32l-1-1.38c-.9-1.26-1.8-2.5-2.72-3.74-.2-.27-.39-.54-.59-.8q-1.71-2.3-3.46-4.54l-.48-.59q-1.48-1.89-3-3.75l-1-1.23c-.86-1-1.72-2.05-2.59-3.06l-1.13-1.31q-1.35-1.53-2.7-3L275,215q-1.83-2-3.71-3.95l0,0h0a196.9,196.9,0,0,0-18.92-17.24,21.18,21.18,0,0,0,2.7-1.86,22.41,22.41,0,0,0,2.84-2.84c.42-.52.83-1.06,1.2-1.62a20.82,20.82,0,0,0,3.58-11.71v-.35h0v-.35a21,21,0,0,0-21-20.94h-6.37L249.5,89.71l7.33-33.37v-.05c.18-.81.34-1.61.48-2.38.05-.27.08-.53.13-.79.08-.51.17-1,.25-1.51,0-.3.07-.58.11-.88s.12-.87.16-1.29.06-.58.08-.88.08-.79.11-1.17,0-.56,0-.84,0-.73.05-1.08v-.81q0-.51,0-1c0-.27,0-.52,0-.77s0-.62-.05-.91l-.06-.73-.09-.84c0-.23-.07-.45-.11-.67s-.08-.52-.13-.77-.08-.42-.13-.63-.11-.47-.17-.7-.1-.39-.16-.58-.13-.43-.2-.63-.13-.36-.2-.53-.15-.39-.23-.58-.14-.32-.22-.48-.17-.34-.26-.51L256,33.9c-.09-.15-.18-.3-.28-.44a3.89,3.89,0,0,0-.28-.39c-.09-.14-.2-.26-.3-.39l-.3-.35c-.1-.11-.21-.22-.32-.32s-.21-.21-.33-.3l-.33-.27c-.11-.09-.23-.17-.35-.25a3,3,0,0,0-.33-.21l-.38-.22-.34-.15-.41-.17-.33-.1a3.45,3.45,0,0,0-.43-.12l-.33-.06-.45-.07-.32,0h-.48l-.29,0-.52,0-.25,0a5,5,0,0,0-.56.11,1.17,1.17,0,0,0-.2.06c-.21.05-.41.11-.62.18l-.12,0a12.12,12.12,0,0,0-5.23,4L203.05,85.06c-4,4.94-9,3.6-12.22-3.26L174.06,26c-3.91-8.3-10.29-8.3-14.2,0L143.09,81.8c-3.23,6.86-8.27,8.2-12.22,3.25L92.05,34.54a10.3,10.3,0,0,0-4.43-3.36l-.1,0c-.2-.07-.41-.12-.61-.18l-.19-.05-.57-.1-.24,0-.52,0H85.1a4,4,0,0,0-.49,0l-.31,0-.47.08-.32.07a3.66,3.66,0,0,0-.44.13l-.33.11-.42.17L82,31.5l-.4.22-.34.21-.37.26-.33.26-.35.3-.33.31-.33.35c-.1.11-.21.23-.31.36l-.3.38-.3.42-.28.42-.27.47-.26.46c-.08.18-.17.35-.25.53s-.15.33-.22.5-.16.38-.23.58-.14.35-.2.53-.13.42-.2.63-.11.39-.17.58-.11.46-.16.69-.1.4-.14.61-.09.49-.13.74-.07.43-.1.65-.07.53-.1.8,0,.45-.06.68,0,.57-.06.86l0,.71c0,.3,0,.61,0,.92v.75c0,.32,0,.65,0,1l0,.77c0,.34.06.7.1,1s0,.52.07.79.1.78.16,1.17.06.5.1.76c.07.44.16.9.24,1.35,0,.23.08.45.12.68.14.68.3,1.39.47,2.11l21.48,97.79H94.65a21,21,0,0,0-21,20.94v.7h0a20.9,20.9,0,0,0,1.65,8.16c.26.62.56,1.23.88,1.83a21,21,0,0,0,10.26,9.31c.63.27,1.27.5,1.93.71l.75.19A202.84,202.84,0,0,0,72.93,211h0v0c-1.26,1.3-2.49,2.62-3.72,3.95l-1,1.11c-.91,1-1.81,2-2.71,3-.37.44-.75.87-1.13,1.31q-1.3,1.51-2.58,3.06l-1,1.23q-1.53,1.86-3,3.75l-.48.59q-1.75,2.25-3.46,4.54c-.2.26-.39.54-.59.8-.92,1.24-1.82,2.48-2.72,3.74-.32.46-.65.92-1,1.39-.77,1.09-1.54,2.2-2.29,3.31l-1,1.47c-.78,1.17-1.55,2.34-2.31,3.52l-.81,1.24q-3.07,4.82-6,9.76l-.75,1.3c-.7,1.21-1.39,2.44-2.07,3.67-.3.53-.59,1.07-.88,1.6-.64,1.17-1.27,2.35-1.89,3.52l-.84,1.59q-1,2-2,4l-.55,1.08c-.85,1.72-1.68,3.44-2.5,5.18l-.36.78c-.67,1.45-1.34,2.91-2,4.37l-.71,1.62q-.8,1.8-1.56,3.63c-.25.59-.5,1.17-.74,1.76-.51,1.23-1,2.45-1.49,3.68-.21.54-.43,1.07-.64,1.61-.61,1.57-1.21,3.15-1.79,4.72l-.2.53c-.65,1.77-1.27,3.54-1.88,5.31-.17.47-.32.95-.48,1.42-.44,1.29-.87,2.59-1.28,3.89-.2.6-.39,1.21-.58,1.81-.37,1.2-.74,2.39-1.09,3.58-.19.61-.37,1.22-.55,1.84-.37,1.27-.72,2.55-1.07,3.83l-.42,1.49q-.71,2.65-1.36,5.31c0,.21-.09.41-.14.61-.38,1.56-.74,3.12-1.08,4.67-.13.58-.25,1.15-.37,1.72-.26,1.2-.51,2.4-.74,3.6-.13.63-.25,1.26-.37,1.89-.22,1.18-.43,2.35-.64,3.53-.1.59-.21,1.19-.31,1.79-.22,1.38-.44,2.75-.64,4.12,0,.37-.11.74-.16,1.11-.25,1.73-.47,3.46-.67,5.18,0,.45-.09.9-.14,1.35-.14,1.28-.28,2.55-.39,3.83q-.09.9-.15,1.8c-.1,1.13-.18,2.26-.25,3.39l-.12,1.84c-.06,1.17-.11,2.33-.15,3.49,0,.53,0,1.07-.06,1.61-.05,1.67-.08,3.34-.08,5,0,1.47,0,2.94.06,4.38.07,2.9.22,5.73.44,8.51s.51,5.5.87,8.16C12,474.12,71,504.62,146,510.1q12.75.93,26.06.92t26.06-.92c75-5.48,134-36,143.67-106.54q.54-4,.87-8.16c.22-2.78.37-5.61.45-8.51,0-1.44.05-2.91.05-4.38C343.2,380.85,343.17,379.18,343.13,377.51Z"/><path class="cls-2" d="M342.2,362.76c0,94.5-76.6,128.51-171.1,128.51S0,457.26,0,362.76,76.6,143.2,171.1,143.2,342.2,268.27,342.2,362.76Z"/><path class="cls-3" d="M270.27,191.3c15.75,38.28,25.09,82.13,25.09,120.85,0,94.49-55.63,128.51-124.26,128.51s-124.26-34-124.26-128.51c0-38.72,9.35-82.57,25.09-120.85C28.4,236.37,0,305.23,0,362.76c0,94.5,76.6,128.51,171.1,128.51s171.1-34,171.1-128.51C342.2,305.23,313.81,236.37,270.27,191.3Z"/><path class="cls-2" d="M240.88,14.79,202.05,65.31c-4,5-9,3.61-12.22-3.26L173.06,6.23c-3.91-8.31-10.29-8.31-14.2,0L142.09,62.05c-3.23,6.87-8.27,8.21-12.22,3.26L91.05,14.79c-7.37-9.24-20.55-1.57-15,21.8l24,109.35c.85,10,5,17.33,9.83,17.33H222c4.84,0,9-7.3,9.84-17.33l24-109.35C261.67,9.55,248.24,5.55,240.88,14.79Z"/><path class="cls-3" d="M241.65,13.9,225.46,95.52c-.78,10-4.52,47.68-8.89,47.68H115.36c-4.37,0-8.11-37.65-8.89-47.68L90.28,13.92c-7.46-7.83-19.6.08-14.19,22.67l24,109.35c.85,10,5,17.33,9.83,17.33H222c4.84,0,9-7.3,9.84-17.33l24-109.35C261.47,10.47,249.13,5.86,241.65,13.9Z"/><rect class="cls-4" x="72.7" y="134.38" width="188.97" height="42.59" rx="20.95" ry="20.95"/><path class="cls-5" d="M72.7,155.68V156a21,21,0,0,0,21,20.95H240.72a21,21,0,0,0,21-20.95v-.35Z"/><path class="cls-6" d="M150.28,357.94a20.21,20.21,0,0,1-20.22,20.22h-39a20.23,20.23,0,0,1-20.23-20.22V311.72A20.23,20.23,0,0,1,91.06,291.5h59.22v26H96.83v34.66h27.45v-7.22H112.72V324.72h37.56Z"/><path class="cls-6" d="M183.5,378.16h-26V291.5h26Z"/><path class="cls-6" d="M270.17,378.16H210.94a20.21,20.21,0,0,1-20.22-20.22V311.72a20.21,20.21,0,0,1,20.22-20.22h59.23v26H216.72v34.66h53.45Z"/><path class="cls-6" d="M101.37,265.05A9.32,9.32,0,0,1,92,274.38H74a9.32,9.32,0,0,1-9.33-9.33V243.71A9.32,9.32,0,0,1,74,234.38h27.33v12H76.71v16H89.37v-3.33H84v-9.34h17.33Z"/><path class="cls-6" d="M141.37,274.38H114a9.32,9.32,0,0,1-9.33-9.33V243.71a9.32,9.32,0,0,1,9.33-9.33h27.33v12H116.71v16h24.66Z"/><path class="cls-6" d="M181.37,265.05a9.32,9.32,0,0,1-9.33,9.33H154a9.32,9.32,0,0,1-9.33-9.33V243.71a9.32,9.32,0,0,1,9.33-9.33h18a9.32,9.32,0,0,1,9.33,9.33Zm-12-2.67v-16H156.71v16Z"/><path class="cls-6" d="M196.7,274.38h-12v-40h12Z"/><path class="cls-6" d="M236.71,274.38h-12v-28H212v28H200v-40h27.33a9.34,9.34,0,0,1,9.34,9.33Z"/><path class="cls-6" d="M276.7,265.05a9.32,9.32,0,0,1-9.33,9.33H240v-12H264.7v-3.33H249.37a9.34,9.34,0,0,1-9.33-9.34v-6a9.32,9.32,0,0,1,9.33-9.33H276.7v12H252v3.33h15.33a9.34,9.34,0,0,1,9.33,9.34Z"/><path class="cls-7" d="M101.37,259.3A9.34,9.34,0,0,1,92,268.64H74a9.34,9.34,0,0,1-9.33-9.34V238A9.32,9.32,0,0,1,74,228.64h27.33v12H76.71v16H89.37V253.3H84V244h17.33Z"/><path class="cls-7" d="M141.37,268.64H114a9.34,9.34,0,0,1-9.33-9.34V238a9.32,9.32,0,0,1,9.33-9.33h27.33v12H116.71v16h24.66Z"/><path class="cls-7" d="M181.37,259.3a9.34,9.34,0,0,1-9.33,9.34H154a9.34,9.34,0,0,1-9.33-9.34V238a9.32,9.32,0,0,1,9.33-9.33h18a9.32,9.32,0,0,1,9.33,9.33Zm-12-2.66v-16H156.71v16Z"/><path class="cls-7" d="M196.7,268.64h-12v-40h12Z"/><path class="cls-7" d="M236.71,268.64h-12v-28H212v28H200v-40h27.33a9.34,9.34,0,0,1,9.34,9.33Z"/><path class="cls-7" d="M276.7,259.3a9.34,9.34,0,0,1-9.33,9.34H240v-12H264.7V253.3H249.37A9.32,9.32,0,0,1,240,244v-6a9.32,9.32,0,0,1,9.33-9.33H276.7v12H252V244h15.33a9.32,9.32,0,0,1,9.33,9.33Z"/><path class="cls-8" d="M150.28,349.94a20.21,20.21,0,0,1-20.22,20.22h-39a20.23,20.23,0,0,1-20.23-20.22V303.72A20.23,20.23,0,0,1,91.06,283.5h59.22v26H96.83v34.66h27.45v-7.22H112.72V316.72h37.56Z"/><path class="cls-8" d="M183.5,370.16h-26V283.5h26Z"/><path class="cls-8" d="M270.17,370.16H210.94a20.21,20.21,0,0,1-20.22-20.22V303.72a20.21,20.21,0,0,1,20.22-20.22h59.23v26H216.72v34.66h53.45Z"/></g></g></svg>