<svg xmlns="http://www.w3.org/2000/svg" viewBox="0 0 516 420.41"><defs><style>.cls-1{isolation:isolate;}.cls-2,.cls-4,.cls-5{opacity:0.35;}.cls-3,.cls-4,.cls-5{fill:#231f20;}.cls-5,.cls-9{mix-blend-mode:multiply;}.cls-6{fill:#e7ad27;}.cls-7{fill:#ffc733;}.cls-8{fill:#fede3a;}.cls-9{fill:#d1d3d4;}.cls-10{fill:#fff;}.cls-11{fill:#f1f2f2;}.cls-12{fill:#2a2a2a;}.cls-13{fill:#b22225;}.cls-14{fill:#ef3737;}</style></defs><title>gcoin-exchange-3</title><g class="cls-1"><g id="Layer_2" data-name="Layer 2"><g id="Layer_1-2" data-name="Layer 1"><g class="cls-2"><path class="cls-3" d="M486.6,166.73h0a20.28,20.28,0,0,1-19.75-15.65L451.46,79.86h41.67l13.22,62A20.28,20.28,0,0,1,486.6,166.73Z"/><path class="cls-3" d="M316.83,166.73h0a20.28,20.28,0,0,0,19.75-15.65L352,79.86H310.3l-13.22,62A20.28,20.28,0,0,0,316.83,166.73Z"/></g><path class="cls-4" d="M460.19,120.25h0c-1.52-14.92,12.84-23.84,35.19-29.73l-.59-2.78L493.37,81h0l-.23-1.1S456,113.58,401.71,113.58,310.3,79.86,310.3,79.86l-.24,1.1h0l-1.44,6.78L308,90.52c22.35,5.89,36.71,14.81,35.19,29.73h117Z"/><path class="cls-5" d="M512.88,225.88h0a22.31,22.31,0,0,0-6.49-9c-9.32-7.79-23.26-6.39-31.37,2.65l-2.68,3a18.35,18.35,0,0,0-25.67,1.62l-2.46,2.65-.2-.2h0a19.12,19.12,0,0,0-27,1.46L358.2,291.39H221.1a12.44,12.44,0,1,1,0-24.88h84.61a22.4,22.4,0,1,0,0-44.8H208.65c-20.68,0-39.16,5.94-57.67,14.79-46.12,22-78,57.09-103,100.55L0,420.41H179s8.36-33.71,25.68-42.67,30.46,1.79,135-10.15,159.48-93.18,170.62-114.68S512.88,225.88,512.88,225.88Z"/><path class="cls-6" d="M445.47,229.71,363,318.52,334.54,293,417,204.17a19.12,19.12,0,0,1,27-1.46h0A19.11,19.11,0,0,1,445.47,229.71Z"/><path class="cls-7" d="M474,224.78l-79.18,85.27-27.33-24.53,79.18-85.27a18.37,18.37,0,0,1,25.93-1.4h0A18.35,18.35,0,0,1,474,224.78Z"/><path class="cls-8" d="M506.39,193c-9.32-7.79-23.26-6.39-31.37,2.65l-39.68,44.21a83.17,83.17,0,0,1-61.9,27.63H221.1a12.44,12.44,0,1,1,0-24.88h84.61a22.4,22.4,0,1,0,0-44.8H208.65c-20.68,0-39.16,5.94-57.67,14.78-46.12,22-78,57.1-103,100.56L0,396.52H141.76c.63,0,8.82-17.66,10-19.51a117.34,117.34,0,0,1,14.94-18.82c12.21-12.5,26.58-24.57,44.64-26,18.67-1.53,37,4,55.57,4.14a398.46,398.46,0,0,0,57.94-3.55,404.48,404.48,0,0,0,57-12.3,205.71,205.71,0,0,0,95.48-60.26l31.41-35A22.39,22.39,0,0,0,506.39,193Z"/><path class="cls-7" d="M339.65,343.69c-104.53,11.95-117.67,1.2-135,10.16S179,396.52,179,396.52H107.9S130,322.19,206.45,315s161.27-9.55,209.65-30.46S512.88,202,512.88,202s8.53,5.52-2.61,27S444.18,331.75,339.65,343.69Z"/><path class="cls-5" d="M205.16,103.8c0-.29,0-.58,0-.87,0-.63,0-1.26,0-1.9s0-1.22,0-1.83c0-.4,0-.81,0-1.22h0A94.16,94.16,0,0,0,204,85.91h0c-.1-.59-.2-1.17-.31-1.76-.06-.34-.13-.67-.19-1a91.75,91.75,0,0,0-4.2-14.81h0c-.21-.57-.43-1.14-.66-1.7s-.4-1-.61-1.51a93.24,93.24,0,0,0-7.08-13.6h0L190,50l-.09-.14c-.33-.5-.66-1-1-1.48h0a94,94,0,0,0-9.16-11.32h0c-.38-.4-.76-.79-1.15-1.18l-.17-.18a94.42,94.42,0,0,0-12.29-10.47h0l-1-.66-.6-.42-1.5-1h0a93.51,93.51,0,0,0-12.82-7h0c-1.12-.5-2.25-1-3.39-1.43h0a93.2,93.2,0,0,0-14.49-4.46h0l-1.74-.37-1.05-.2-.84-.16h0A94.27,94.27,0,0,0,114.11,8.1h0l-1.86,0-1.86,0h0A93.63,93.63,0,0,0,96.08,9.48h0l-1.56.29-.34.07q-.87.16-1.74.36h0a92.79,92.79,0,0,0-14,4.22h0L76.91,15l-.25.1c-.55.23-1.1.46-1.65.71h0A92.44,92.44,0,0,0,61.67,23h0c-1,.68-2.05,1.37-3.06,2.08h0A93,93,0,0,0,46.11,35.73l-.17.17c-.39.4-.78.79-1.16,1.19h0a93.94,93.94,0,0,0-10,12.61l-.1.15a93.2,93.2,0,0,0-8.43,15.93l-.07.17c-.22.54-.44,1.09-.65,1.64h0A91.88,91.88,0,0,0,21.25,82h0c-.11.52-.21,1-.31,1.56l-.06.33c-.11.58-.21,1.17-.31,1.75h0A94,94,0,0,0,19.35,98h0l0,1.22c0,.61,0,1.22,0,1.83s0,1.27,0,1.9c0,.29,0,.58,0,.87h0c.07,2.26.21,4.51.44,6.74s.56,4.66,1,6.95c0,.14.05.28.08.41h0v0c.23,1.2.47,2.4.74,3.59h0c0,.16.07.33.11.49a91.76,91.76,0,0,0,4.14,13.28h0v0a93,93,0,0,0,8.11,15.79c.48.75,1,1.48,1.46,2.2.12.18.24.36.37.53.22.33.45.66.68,1q1.94,2.74,4.07,5.32t4.44,5c.65.68,1.32,1.35,2,2l.16.16,1,1q2.41,2.31,5,4.44c1.72,1.42,3.5,2.78,5.32,4.08l.79.54h0l1.49,1,.26.17,1.17.77a92.43,92.43,0,0,0,14.43,7.55l.31.13,1.46.59h0a93.79,93.79,0,0,0,12.91,4c1,.23,2,.44,3,.64l.26.05,1.26.24c2.29.41,4.6.73,7,1q3.78.38,7.64.45h0l1.86,0,1.86,0h0c2.57-.05,5.13-.2,7.65-.45q3.51-.36,7-1l1.07-.21.23,0,1.71-.35h0l1.52-.33a92.21,92.21,0,0,0,13.85-4.38l.18-.07A93.3,93.3,0,0,0,162,179.58h0l.37-.24c.37-.23.72-.47,1.08-.71l.16-.1c.83-.55,1.66-1.11,2.47-1.69q2.74-2,5.32-4.08t5-4.44l1-1,.17-.16q1-1,2-2,2.31-2.43,4.44-5c1.36-1.64,2.66-3.34,3.9-5.07h0l.18-.25.78-1.12.13-.2c.34-.49.68-1,1-1.49h0l.58-.89a92.28,92.28,0,0,0,7-13.1c0-.11.09-.22.14-.33.24-.55.47-1.1.69-1.66h0a93.1,93.1,0,0,0,4.44-14c0-.08,0-.17,0-.25h0s0,0,0-.08c.26-1.17.51-2.35.73-3.54h0c0-.22.09-.44.13-.66.4-2.29.73-4.61,1-6.95s.37-4.48.43-6.74Z"/><circle class="cls-8" cx="112.25" cy="92.96" r="92.96"/><circle class="cls-7" cx="112.25" cy="92.96" r="72.84"/><path class="cls-7" d="M179.29,64.42c.48,1.14.94,2.29,1.37,3.45l18.62-7.62c-.43-1.16-.89-2.31-1.37-3.45Z"/><path class="cls-7" d="M151.8,31.78c1,.67,2.07,1.38,3.07,2.1l11.24-16.7c-1-.71-2-1.41-3.07-2.09Z"/><path class="cls-7" d="M172.17,51.53c.7,1,1.38,2,2,3.1l16.73-11.19c-.66-1-1.35-2.08-2.05-3.1Z"/><path class="cls-7" d="M124.75,21.19c1.23.21,2.44.45,3.65.72l3.91-19.73c-1.21-.27-2.42-.52-3.64-.73Z"/><path class="cls-7" d="M139,25.19c1.16.46,2.3.94,3.42,1.46l7.78-18.56c-1.13-.51-2.27-1-3.42-1.45Z"/><path class="cls-7" d="M82.63,26.39c1.13-.5,2.27-1,3.43-1.42L78.44,6.34c-1.16.46-2.3.93-3.43,1.43Z"/><path class="cls-7" d="M110.39,0V20.14q.93,0,1.86,0t1.86,0V0l-1.86,0Z"/><path class="cls-7" d="M96.3,21.87c1.2-.27,2.42-.51,3.64-.72L96.08,1.4c-1.22.22-2.43.46-3.64.72Z"/><path class="cls-7" d="M164.61,143.59c-.86.89-1.75,1.76-2.65,2.61l14.23,14.23c.9-.86,1.78-1.73,2.64-2.62Z"/><path class="cls-7" d="M59.89,143.59,45.67,157.81c.87.89,1.75,1.76,2.64,2.62L62.54,146.2C61.64,145.35,60.76,144.48,59.89,143.59Z"/><path class="cls-7" d="M69.79,33.76c1-.72,2-1.42,3.07-2.09L61.67,15c-1,.67-2.06,1.37-3.07,2.08Z"/><path class="cls-7" d="M185.09,93c0,.92,0,1.84-.05,2.76h20.12c0-.92.05-1.84.05-2.76,0-.32,0-.64,0-1H185.08C185.09,92.32,185.09,92.64,185.09,93Z"/><path class="cls-7" d="M203.31,74.18,183.56,78c.25,1.21.48,2.43.67,3.65L204,77.84C203.78,76.61,203.56,75.39,203.31,74.18Z"/><path class="cls-7" d="M165.49,43.25,179.72,29q-1.28-1.35-2.61-2.64L162.89,40.6C163.78,41.46,164.65,42.34,165.49,43.25Z"/><path class="cls-7" d="M39.41,93c0-.32,0-.64,0-1H19.31c0,.32,0,.64,0,1,0,.92,0,1.84,0,2.76H39.47Q39.41,94.34,39.41,93Z"/><path class="cls-7" d="M59,43.25c.85-.91,1.71-1.79,2.6-2.65L47.39,26.38c-.88.86-1.76,1.74-2.61,2.64Z"/><path class="cls-7" d="M179.83,120.18c-.46,1.15-1,2.28-1.47,3.4l18.56,7.79q.77-1.69,1.47-3.42Z"/><path class="cls-7" d="M127.87,164.11c-1.21.27-2.42.5-3.65.7l3.86,19.75c1.22-.21,2.44-.44,3.64-.7Z"/><path class="cls-7" d="M141.24,159.8c-1.13.49-2.28.95-3.44,1.39l7.62,18.62c1.16-.44,2.31-.9,3.44-1.39Z"/><path class="cls-7" d="M114.11,185.89V165.77l-1.86,0-1.86,0v20.12l1.86,0Z"/><path class="cls-7" d="M173.29,132.71c-.68,1-1.38,2.06-2.11,3.06L187.88,147Q189,145.5,190,144Z"/><path class="cls-7" d="M183.9,106.16c-.23,1.22-.48,2.44-.77,3.64l19.75,3.91c.27-1.21.52-2.42.75-3.64Z"/><path class="cls-7" d="M153.89,152.73c-1,.71-2,1.39-3.1,2.05L162,171.5c1.05-.66,2.08-1.35,3.1-2.05Z"/><path class="cls-7" d="M100.1,164.78c-1.23-.2-2.45-.44-3.65-.71l-3.91,19.74c1.21.26,2.42.5,3.65.71Z"/><path class="cls-7" d="M53.21,135.62c-.73-1-1.43-2-2.1-3.07L34.39,143.74c.68,1,1.37,2.06,2.09,3.07Z"/><path class="cls-7" d="M40.31,81.5c.19-1.22.42-2.44.67-3.65L21.25,73.94c-.26,1.21-.48,2.43-.68,3.65Z"/><path class="cls-7" d="M86.14,161c-1.16-.44-2.31-.92-3.44-1.42l-7.78,18.56c1.14.49,2.28,1,3.43,1.42Z"/><path class="cls-7" d="M41.32,109.61c-.28-1.2-.53-2.41-.75-3.64l-19.74,3.86c.22,1.22.47,2.43.74,3.64Z"/><path class="cls-7" d="M44.06,67.29c.44-1.16.91-2.31,1.4-3.44L26.91,56.07c-.49,1.14-1,2.28-1.41,3.44Z"/><path class="cls-7" d="M73.55,154.67c-1-.66-2.08-1.34-3.09-2L59.23,169.31c1,.7,2,1.39,3.08,2.06Z"/><path class="cls-7" d="M45.89,123c-.51-1.13-1-2.27-1.45-3.42l-18.62,7.62q.69,1.72,1.44,3.42Z"/><path class="cls-7" d="M50.4,54.47c.66-1.06,1.34-2.09,2.05-3.1L35.76,40.13c-.7,1-1.39,2-2,3.1Z"/><path class="cls-9" d="M112.25,15.22a75.29,75.29,0,0,0,0,150.58A72.85,72.85,0,1,1,185.09,93a72.84,72.84,0,0,1-72.84,72.84,75.29,75.29,0,0,0,0-150.58Z"/><path class="cls-9" d="M112.25,179.81a93,93,0,0,1-92.9-89.9c0,1-.05,2-.05,3a93,93,0,0,0,185.91,0c0-1,0-2-.06-3A93,93,0,0,1,112.25,179.81Z"/><path class="cls-10" d="M171.22,5l2.93,9.52a9.44,9.44,0,0,0,6.24,6.24l9.52,2.94a.86.86,0,0,1,0,1.64l-9.52,2.93a9.46,9.46,0,0,0-6.24,6.24L171.22,44a.86.86,0,0,1-1.65,0l-2.93-9.52a9.46,9.46,0,0,0-6.24-6.24l-9.52-2.93a.86.86,0,0,1,0-1.64l9.52-2.94a9.44,9.44,0,0,0,6.24-6.24L169.57,5A.86.86,0,0,1,171.22,5Z"/><path class="cls-10" d="M41.73,84.54l2.66,8.64A8.54,8.54,0,0,0,50,98.83l8.64,2.66a.78.78,0,0,1,0,1.49L50,105.64a8.56,8.56,0,0,0-5.65,5.66l-2.66,8.63a.78.78,0,0,1-1.49,0l-2.67-8.63a8.56,8.56,0,0,0-5.65-5.66L23.29,103a.78.78,0,0,1,0-1.49l8.63-2.66a8.54,8.54,0,0,0,5.65-5.65l2.67-8.64A.78.78,0,0,1,41.73,84.54Z"/><path class="cls-6" d="M104.33,106.13a10.45,10.45,0,0,1-10.45,10.45H73.73a10.45,10.45,0,0,1-10.45-10.45V82.24A10.45,10.45,0,0,1,73.73,71.79h30.6V85.23H76.71v17.92H90.9V99.41h-6V89h19.41Z"/><path class="cls-6" d="M121.5,116.58H108.07V71.79H121.5Z"/><path class="cls-6" d="M166.29,116.58H135.68a10.45,10.45,0,0,1-10.45-10.45V82.24a10.45,10.45,0,0,1,10.45-10.45h30.61V85.23H138.67v17.92h27.62Z"/><path class="cls-10" d="M104.15,100.67a10.48,10.48,0,0,1-10.48,10.48H73.45A10.48,10.48,0,0,1,63,100.67v-24A10.48,10.48,0,0,1,73.45,66.23h30.7V79.71H76.45v18H90.67V93.93h-6V83.45h19.47Z"/><path class="cls-10" d="M121.37,111.15H107.89V66.23h13.48Z"/><path class="cls-10" d="M166.29,111.15h-30.7a10.48,10.48,0,0,1-10.48-10.48v-24a10.48,10.48,0,0,1,10.48-10.48h30.7V79.71h-27.7v18h27.7Z"/><polygon class="cls-9" points="287.7 99.24 248.07 70.09 248.07 86.87 219.42 86.87 219.42 99.24 219.42 113.11 248.07 113.11 248.07 128.38 287.7 99.24"/><rect class="cls-11" x="219.42" y="82.71" width="43.93" height="26.24" transform="translate(482.77 191.66) rotate(-180)"/><polygon class="cls-11" points="248.07 124.23 248.07 65.94 287.7 95.08 248.07 124.23"/><polygon class="cls-10" points="248.07 124.23 248.07 95.08 287.7 95.08 248.07 124.23"/><rect class="cls-10" x="219.42" y="95.08" width="28.65" height="13.87" transform="translate(467.49 204.03) rotate(-180)"/><path class="cls-8" d="M471,26.65h0A9.31,9.31,0,0,1,480.34,36v9.31a0,0,0,0,1,0,0H461.71a0,0,0,0,1,0,0V36A9.31,9.31,0,0,1,471,26.65Z"/><path class="cls-8" d="M332.41,26.65h0A9.31,9.31,0,0,1,341.72,36v9.31a0,0,0,0,1,0,0H323.09a0,0,0,0,1,0,0V36a9.31,9.31,0,0,1,9.31-9.31Z"/><path class="cls-7" d="M480.34,36a9.41,9.41,0,0,0-.51-3A11.67,11.67,0,0,0,474,31.38h-5.93A11.71,11.71,0,0,0,462.21,33a9.41,9.41,0,0,0-.5,3v9.32h18.63Z"/><path class="cls-7" d="M341.72,36a9.16,9.16,0,0,0-.18-1.83,10.87,10.87,0,0,0-7.24-2.75h-3.78a10.85,10.85,0,0,0-7.24,2.75,9.16,9.16,0,0,0-.19,1.83v9.32h18.63Z"/><path class="cls-12" d="M460.21,115.25h-117a33.59,33.59,0,0,1-33.13-39.42l2.33-13.13A33.62,33.62,0,0,1,345.55,35H457.88A33.62,33.62,0,0,1,491,62.7l2.33,13.13A33.59,33.59,0,0,1,460.21,115.25Z"/><path class="cls-12" d="M486.6,161.73h0a20.28,20.28,0,0,1-19.75-15.65L451.46,74.86h41.67l13.22,62A20.28,20.28,0,0,1,486.6,161.73Z"/><path class="cls-12" d="M316.83,161.73h0a20.28,20.28,0,0,0,19.75-15.65L352,74.86H310.3l-13.22,62A20.28,20.28,0,0,0,316.83,161.73Z"/><path class="cls-3" d="M460.19,115.25h0c-1.52-14.92,12.84-23.84,35.19-29.73l-.59-2.78L493.37,76h0l-.23-1.1S456,108.58,401.71,108.58,310.3,74.86,310.3,74.86l-.24,1.1h0l-1.44,6.78L308,85.52c22.35,5.89,36.71,14.81,35.19,29.73h117Z"/><circle class="cls-8" cx="351.97" cy="59.01" r="7"/><circle class="cls-8" cx="351.97" cy="86.48" r="7"/><circle class="cls-8" cx="365.7" cy="72.75" r="7"/><circle class="cls-8" cx="338.23" cy="72.75" r="7"/><circle class="cls-8" cx="451.46" cy="59.01" r="7"/><circle class="cls-8" cx="451.46" cy="86.48" r="7"/><circle class="cls-8" cx="465.2" cy="72.75" r="7"/><circle class="cls-8" cx="437.73" cy="72.75" r="7"/><path class="cls-6" d="M345,59a7,7,0,1,1,7,7A7,7,0,0,1,345,59Zm7,20.48a7,7,0,1,0,7,7A7,7,0,0,0,352,79.49ZM365.7,65.75a7,7,0,1,0,7,7A7,7,0,0,0,365.7,65.75Zm-27.47,0a7,7,0,1,0,7,7A7,7,0,0,0,338.23,65.75ZM451.46,66a7,7,0,1,0-7-7A7,7,0,0,0,451.46,66Zm0,13.48a7,7,0,1,0,7,7A7,7,0,0,0,451.46,79.49ZM465.2,65.75a7,7,0,1,0,7,7A7,7,0,0,0,465.2,65.75Zm-27.47,0a7,7,0,1,0,7,7A7,7,0,0,0,437.73,65.75Z"/><path class="cls-8" d="M345,56.8a7,7,0,1,1,7,7A7,7,0,0,1,345,56.8Zm7,20.48a7,7,0,1,0,7,7A7,7,0,0,0,352,77.28ZM365.7,63.54a7,7,0,1,0,7,7A7,7,0,0,0,365.7,63.54Zm-27.47,0a7,7,0,1,0,7,7A7,7,0,0,0,338.23,63.54Zm113.23.26a7,7,0,1,0-7-7A7,7,0,0,0,451.46,63.8Zm0,13.48a7,7,0,1,0,7,7A7,7,0,0,0,451.46,77.28ZM465.2,63.54a7,7,0,1,0,7,7A7,7,0,0,0,465.2,63.54Zm-27.47,0a7,7,0,1,0,7,7A7,7,0,0,0,437.73,63.54Z"/><rect class="cls-8" x="378.82" y="45.91" width="45.78" height="13.89" rx="2.05" ry="2.05"/><path class="cls-6" d="M422.55,45.91H380.88A2.05,2.05,0,0,0,378.82,48v1.58a2.05,2.05,0,0,1,2.06-2h41.67a2.05,2.05,0,0,1,2.06,2V48A2.05,2.05,0,0,0,422.55,45.91Z"/><path class="cls-13" d="M378.82,86.53h45.78a0,0,0,0,1,0,0v9.24a4.66,4.66,0,0,1-4.66,4.66H383.48a4.66,4.66,0,0,1-4.66-4.66V86.53A0,0,0,0,1,378.82,86.53Z"/><rect class="cls-8" x="378.82" y="63.59" width="45.78" height="31.1"/><path class="cls-3" d="M357.66,28h88.11a7,7,0,0,1,7,7v0a0,0,0,0,1,0,0H350.67a0,0,0,0,1,0,0v0a7,7,0,0,1,7-7Z"/><circle class="cls-14" cx="334.07" cy="54.27" r="1.5"/><circle class="cls-14" cx="469.36" cy="54.27" r="1.5"/><rect class="cls-14" x="385.1" y="69.89" width="10.26" height="3.35" rx="1.67" ry="1.67"/><rect class="cls-14" x="408.07" y="69.89" width="10.26" height="3.35" rx="1.67" ry="1.67"/><rect class="cls-14" x="385.1" y="77.7" width="10.26" height="3.35" rx="1.67" ry="1.67"/><rect class="cls-14" x="408.07" y="77.7" width="10.26" height="3.35" rx="1.67" ry="1.67"/><rect class="cls-14" x="378.82" y="86.53" width="45.78" height="5.05"/></g></g></g></svg>