<svg xmlns="http://www.w3.org/2000/svg" viewBox="0 0 364.42 296.26"><defs><style>.cls-1,.cls-3{fill:#231f20;}.cls-1,.cls-2{opacity:0.3;}.cls-4{fill:#ffc733;}.cls-5{fill:#fede3a;}.cls-6{fill:#fff;}.cls-7{fill:none;}</style></defs><title>jersey-3</title><g id="Layer_2" data-name="Layer 2"><g id="Layer_1-2" data-name="Layer 1"><polygon class="cls-1" points="0 88.68 41.52 148.65 52.18 140.87 10.96 78.01 0 88.68"/><path class="cls-1" d="M307.74,139.1l42.84-62.46s-52.66-54.21-71.83-59.8c-8.86-2.59-20.77-4.18-31-5.15-.06.07-38.57,38.93-68.67,38.93s-66.88-38.86-66.95-38.93c-10.27,1-22.17,2.56-31,5.15-19.16,5.59-67.21,58-67.21,58l41.51,64.58,32.3-23.06v26.58H272.16V116.36Z"/><polygon class="cls-1" points="355.19 79.45 312.53 140.96 322.9 148.65 364.42 88.68 355.19 79.45"/><path class="cls-1" d="M179.9,41.69c27.41,0,55.26-30.95,55.29-31-5.52-.34-9.16-.45-9.16-.45S201.11,33.11,178.57,33.2s-44.8-22.94-44.8-22.94-3.48.11-8.82.43C125,10.71,154.35,41.69,179.9,41.69Z"/><rect class="cls-1" x="87.65" y="142.94" width="184.52" height="153.33"/><g id="_10" data-name="10" class="cls-2"><path class="cls-3" d="M121.44,138.26v13.43h15.11v70.77h20.63V128.18h-18C136.79,135.26,128.16,137.9,121.44,138.26Zm83.83-11.63c-17.15,0-26.38,9.35-26.38,24V200c0,14.63,9.36,24,26.38,24s26.39-9.35,26.39-24V150.61C231.66,136,222.31,126.63,205.27,126.63Zm5,75c0,5-2.4,6.12-5,6.12s-5-1.07-5-6.12V149.05c0-5,2.28-6.11,5-6.11s5,1.07,5,6.11Z"/></g><path class="cls-1" d="M179,50.62c30.1,0,68.61-38.86,68.67-38.93l-.42,0-11.87-.92-.23,0s-27.88,31-55.29,31c-25.55,0-54.93-31-54.95-31h-.14l-12.31,1-.41,0C112.16,11.76,148.93,50.62,179,50.62Z"/><path class="cls-1" d="M112.5,11.65l12.31-1C121.34,10.91,117.1,11.22,112.5,11.65Z"/><path class="cls-1" d="M125,10.69h0Z"/><path class="cls-1" d="M112.09,11.68h0l.41,0Z"/><path class="cls-1" d="M235.19,10.71h0l.23,0Z"/><path class="cls-1" d="M235.42,10.73l11.87.92C242.88,11.23,238.81,10.94,235.42,10.73Z"/><polygon class="cls-1" points="247.72 11.68 247.29 11.65 247.71 11.69 247.72 11.68"/><polygon class="cls-4" points="0 78.42 41.52 138.39 52.18 130.6 10.96 67.75 0 78.42"/><path class="cls-4" d="M307.74,128.84l42.84-62.46s-52.66-54.21-71.83-59.8C269.89,4,258,2.4,247.71,1.43c-.06.06-38.57,38.93-68.67,38.93S112.16,1.49,112.09,1.43c-10.27,1-22.17,2.56-31,5.15-19.16,5.59-67.21,58-67.21,58l41.51,64.58,32.3-23.06v26.57H272.16V106.1Z"/><polygon class="cls-4" points="355.19 69.19 312.53 130.7 322.9 138.39 364.42 78.42 355.19 69.19"/><path class="cls-4" d="M179.9,31.43c27.41,0,55.26-30.95,55.29-31C229.67.11,226,0,226,0s-24.92,22.85-47.46,22.94S133.77,0,133.77,0s-3.48.1-8.82.43C125,.45,154.35,31.43,179.9,31.43Z"/><rect class="cls-5" x="87.65" y="132.67" width="184.52" height="153.33"/><g id="_10-2" data-name="10"><path class="cls-6" d="M121.44,128v13.44h15.11v70.76h20.63V117.92h-18C136.79,125,128.16,127.63,121.44,128Zm83.83-11.63c-17.15,0-26.38,9.36-26.38,24v49.41c0,14.64,9.36,24,26.38,24s26.39-9.35,26.39-24V140.35C231.66,125.72,222.31,116.36,205.27,116.36Zm5,75c0,5-2.4,6.12-5,6.12s-5-1.08-5-6.12V138.79c0-5,2.28-6.12,5-6.12s5,1.08,5,6.12Z"/></g><path class="cls-7" d="M179,40.36c30.1,0,68.61-38.87,68.67-38.93l-.42,0L235.42.46h-.23s-27.88,31-55.29,31c-25.55,0-54.93-31-54.95-31h-.14l-12.31,1-.41,0C112.16,1.49,148.93,40.36,179,40.36Z"/><path class="cls-4" d="M112.5,1.39,124.81.44C121.34.65,117.1,1,112.5,1.39Z"/><path class="cls-4" d="M125,.43h0Z"/><path class="cls-4" d="M112.09,1.42h0l.41,0Z"/><path class="cls-4" d="M235.19.45Z"/><path class="cls-4" d="M235.42.46l11.87.93C242.88,1,238.81.67,235.42.46Z"/><polygon class="cls-4" points="247.72 1.42 247.29 1.39 247.71 1.43 247.72 1.42"/></g></g></svg>