<svg xmlns="http://www.w3.org/2000/svg" xmlns:xlink="http://www.w3.org/1999/xlink" width="150px" viewBox="0 0 1312.79 1221.93"><defs><style>.cls-1{opacity:0.01;}.cls-2{opacity:0.02;}.cls-3{opacity:0.03;}.cls-4{opacity:0.04;}.cls-5{opacity:0.05;}.cls-6{opacity:0.06;}.cls-7{opacity:0.07;}.cls-8{opacity:0.08;}.cls-9{opacity:0.09;}.cls-10{opacity:0.1;}.cls-11{opacity:0.11;}.cls-12{opacity:0.12;}.cls-13{opacity:0.13;}.cls-14{opacity:0.13;}.cls-15{opacity:0.14;}.cls-16{opacity:0.15;}.cls-17{opacity:0.16;}.cls-18{opacity:0.17;}.cls-19{opacity:0.18;}.cls-20{opacity:0.19;}.cls-21{opacity:0.2;}.cls-22{opacity:0.21;}.cls-23{opacity:0.22;}.cls-24{opacity:0.23;}.cls-25{opacity:0.24;}.cls-26{opacity:0.25;}.cls-27{opacity:0.26;}.cls-28{opacity:0.27;}.cls-29{opacity:0.28;}.cls-30{opacity:0.29;}.cls-31{opacity:0.3;}.cls-32{opacity:0.31;}.cls-33{opacity:0.32;}.cls-34{opacity:0.33;}.cls-35{opacity:0.34;}.cls-36{opacity:0.35;}.cls-37{opacity:0.36;}.cls-38{opacity:0.37;}.cls-39{opacity:0.38;}.cls-40{opacity:0.38;}.cls-41{opacity:0.39;}.cls-42{opacity:0.4;}.cls-43{opacity:0.41;}.cls-44{opacity:0.42;}.cls-45{opacity:0.43;}.cls-46{opacity:0.44;}.cls-47{opacity:0.45;}.cls-48{opacity:0.46;}.cls-49{opacity:0.47;}.cls-50{opacity:0.48;}.cls-51{opacity:0.49;}.cls-52{opacity:0.5;}.cls-53{fill:url(#radial-gradient);}.cls-54{fill:#231f20;}</style><radialGradient id="radial-gradient" cx="655.95" cy="390.5" r="697.81" gradientUnits="userSpaceOnUse"><stop offset="0.5" stop-color="#fff"/><stop offset="0.55" stop-color="#f9f9f9"/><stop offset="0.62" stop-color="#e9e9e9"/><stop offset="0.69" stop-color="#cecece"/><stop offset="0.78" stop-color="#a8a8a8"/><stop offset="0.86" stop-color="#777"/><stop offset="0.95" stop-color="#3f3f3f"/></radialGradient></defs><title>kinguin-mono</title><g id="Layer_2" data-name="Layer 2"><g id="standard_-_light_bg" data-name="standard - light bg"><g id="B_-_colour_-_Shadow" data-name="B - colour - Shadow"><g id="txt"><path d="M1.36,1218v-1.61a22.42,22.42,0,0,0,9.08-6.79,17.2,17.2,0,0,0,3.7-10.09c.24-12.85.24-32.12.24-57.6,0-9.74-.12-19.79-.38-30s-.65-20.07-1.29-29.46a32.62,32.62,0,0,0-3-11.9c-1.71-3.44-5-6.57-9.69-9.53v-1.36c9.73.71,17.65,1,23.35,1,5.3,0,13-.33,23.11-1v1.36a17.08,17.08,0,0,0-8.59,8.63,42.45,42.45,0,0,0-3,13.61c-.76,7-1.08,18.63-1.08,34.54v17.15c9.7-8.59,19.4-17.34,28.8-26.26s17.51-17.22,24.19-24.88a57.15,57.15,0,0,0,6.27-9.24,18.57,18.57,0,0,0,2.43-8.72,11.72,11.72,0,0,0-1.62-5.69l1.37-1.38a181.76,181.76,0,0,0,22,1.38q5.13,0,17.78-.74c2.25-.23,4.65-.34,7-.64l-1.63,1.38a68.49,68.49,0,0,0-17.67,8.76,189.73,189.73,0,0,0-18,13.53q-9.58,8.45-20.14,18.24c-7.08,6.47-15.36,14.19-24.79,23.06-.57.52-1.29,1.33-2.2,2.27,6,7.22,16,18.26,30,33.09q9.24,9.84,13.63,14.68,18.67,20.47,30.43,30.06c7.72,6.52,15.49,9.65,23.15,9.65a25.28,25.28,0,0,0,6.75-.83,13.1,13.1,0,0,1,3-.52c1.43,0,2.2.49,2.2,1.35s-2.5,2.17-7.62,3.77a56.83,56.83,0,0,1-16.82,2.37c-11.29,0-20.29-2.23-27.11-6.89s-14.69-11.9-23.56-21.87c-3.61-4-6.16-6.84-7.52-8.45L77,1174.21c-14.48-16.26-25.56-27.88-33.52-34.76l-1.34,1.06c-3.56,3.69-6.43,6.36-8.36,8.09,0,7.49.32,18.64,1.08,33.5.11,5.26.34,10.64.51,16,.54,8.89,4.89,15,13,18.24V1218a238.42,238.42,0,0,0-24.38-1.09A192,192,0,0,0,1.36,1218Z"/><path d="M232.34,1218.37v-1.64a21.63,21.63,0,0,0,9.08-6.88,17.18,17.18,0,0,0,3.76-10c.18-13,.25-32.11.25-57.72,0-9.79-.12-19.71-.37-29.88s-.73-20-1.25-29.41a33.77,33.77,0,0,0-3-12.25c-1.6-3.47-5-6.69-9.86-9.5V1060c9.86.64,17.65,1.08,23.49,1.08,3.07,0,7.6-.18,13.77-.5a84.87,84.87,0,0,1,9.34-.58v1.08a16.46,16.46,0,0,0-8.59,8.7,44.38,44.38,0,0,0-3.16,13.57c-.65,7-1.08,17.78-1.08,32.63v25.57c0,12.72.5,31.82,1.73,57.11a21.17,21.17,0,0,0,3.64,10.93,20,20,0,0,0,9.35,7.1v1.64h-.86c-10.9-.79-18.73-1.18-23.59-1.18C249.33,1217.19,241.79,1217.58,232.34,1218.37Z"/><path d="M480.53,1059.58a83.59,83.59,0,0,0,9.33.83c5.16,0,12.88-.37,22.95-1.07v1.28a16.74,16.74,0,0,0-8.51,8.8,38.22,38.22,0,0,0-3.12,13.53c-.8,6.77-1.08,17.6-1.08,32.44V1141c0,4.72-.08,11.57-.28,20.4-.26,12.36-.35,21.07-.35,25.94,0,6.15.13,13.41.63,21.79,0,2,.06,4,.22,6.29.13,1.43.28,2.3.28,2.64,0,2.55-.78,3.85-2.17,3.85-.93,0-3.1-1.87-6.58-5.7L371.26,1094.87H370a134.38,134.38,0,0,0-.65,15.5c0,3.63.13,8.94.42,16.13.06,6.66.06,11.52,0,14.7,0,16.75.37,35.79,1.35,57a23,23,0,0,0,3.65,11.26c2.08,3.14,5.29,5.37,9.62,6.93v1.73a245.16,245.16,0,0,0-24.67-1.14c-3.77,0-7.26.19-10.53.51a42.75,42.75,0,0,1-4.34.29v-1.51a24.1,24.1,0,0,0,8.92-6.81,15.45,15.45,0,0,0,3.51-10.07c.35-12.87.59-32,.59-57.65,0-2,.14-8.41.4-19.39V1101.7c0-9.12-.13-15.64-.4-19.86v-1.4a24,24,0,0,0-3.58-10.92c-1.89-3.33-5.36-6.45-10-9.11l-.67-1.71h1.66c4,.3,7.69.41,11.09.82,3.31.11,6.46.31,9.32.31l120.77,124.06h1.36c.2-9.39.26-23.64.26-42.69,0-9.88-.13-19.77-.36-30s-.73-20-1.26-29.4v-.55c-.42-4.87-1.17-8.94-2.66-12.07-1.24-3.16-4.35-6.15-9-8.81v-1.71C476.27,1059,478.21,1059.23,480.53,1059.58Z"/><path d="M737.41,1205.29a3.3,3.3,0,0,1-1.5,2.61c-1.22.34-3.89,1.12-7.91,2.21a81.4,81.4,0,0,0-9.2,2.68,108.31,108.31,0,0,1-23.3,5.81,190.25,190.25,0,0,1-26.43,1.67,99.19,99.19,0,0,1-35.44-6.35A95.21,95.21,0,0,1,604,1196.69,78.25,78.25,0,0,1,584.12,1171a71.25,71.25,0,0,1-7.06-31,73.5,73.5,0,0,1,7-31.65,77.35,77.35,0,0,1,19.65-26.57,93.87,93.87,0,0,1,30.42-18,113.09,113.09,0,0,1,38.63-6.51c4.93,0,10.43.36,16.57.92s13.22,1.64,21,2.93a38.27,38.27,0,0,1,6.79,2.14c4,1.44,7.06,2.21,9.24,2.21s4.28-.19,6.23-.32c1-.11,1.73-.26,2.22-.26s.9.39.9,1.36v1.88a24.15,24.15,0,0,0-.34,4.36c0,1.49.07,4.22.34,8.2.18,3,.18,5.44.18,7a29.83,29.83,0,0,1-.18,4c-.27,1.37-.58,2.07-1.12,2.07s-1.87-1.3-3.88-3.76a68.26,68.26,0,0,0-8.58-9.74,35.35,35.35,0,0,0-10.43-6.67,84.66,84.66,0,0,0-34.57-6.84,95.47,95.47,0,0,0-31.94,5.06,68.63,68.63,0,0,0-24.36,14.3,62.88,62.88,0,0,0-15.37,21.6,69,69,0,0,0-5.31,27.08,75.1,75.1,0,0,0,5.52,28.4,79.23,79.23,0,0,0,15.16,24.54,69.38,69.38,0,0,0,22.92,17,64.34,64.34,0,0,0,27.73,6.14,79.06,79.06,0,0,0,17.81-2.38c6.78-1.64,14.37-3.88,22.93-6.59a6.44,6.44,0,0,0,4.14-3.75,23.13,23.13,0,0,0,1.28-7.13l.34-1.61c-.19-2.8-.34-6.81-.52-12.25s-.46-9.4-.55-12.05c-.44-5.88-1.34-10.23-2.69-12.94-1.54-2.82-4.81-5.58-9.87-8.52v-1.28c9.87.68,17.65,1.1,23.36,1.1a103,103,0,0,0,11.51-.87c4.07-.28,7.25-.5,9.2-.5l-.2,1.37a12.07,12.07,0,0,0-7.15,7.54,60.23,60.23,0,0,0-2.2,13.37v1.6c-.51,6-.78,11.3-1,15.94,0,4.65-.08,11.06-.08,19.44A19.21,19.21,0,0,1,737.41,1205.29Z"/><path d="M866.55,1219a61.61,61.61,0,0,1-19.58-6.29c-6.34-3.11-11.23-8.05-15.21-14.56-3.82-6.5-5.87-15-6.08-25.27-.1-6.73-.29-13.26-.29-19.56-.22-4.44-.28-7.73-.28-10.11,0-4.56.06-11.65.28-21.51s.29-17.44.29-22.61c0-7.16-.08-12.61-.29-16a31.55,31.55,0,0,0-3.15-12c-1.69-3.49-4.86-6.67-9.57-9.6v-1.36c9.78.79,17.55,1.1,23.3,1.1,3.06,0,7.67-.13,13.76-.57,4.22-.27,7.28-.53,9.39-.53v1.36a16.13,16.13,0,0,0-8.59,8.78,41.57,41.57,0,0,0-3.2,13.62c-.65,6.66-1.12,17.45-1.12,32.34v25.57c0,4,.1,8,.25,11.79s.29,9.2.64,15.89c.16,9,1.52,16.11,4.07,21.69A30.37,30.37,0,0,0,861,1203.7a37.49,37.49,0,0,0,13.53,5.72,88.75,88.75,0,0,0,16.57,1.46,121.47,121.47,0,0,0,21.76-1.61,34.82,34.82,0,0,0,14.7-6.4c4.16-3.21,7.35-7.81,9.66-14.1,2.33-6,3.6-14.07,4.06-23.88.06-7.54.13-15,.13-22.56,0-1.66.13-7.24.37-16.64V1108.5c0-6.16-.24-14.66-.5-25.63-.29-5.57-1.31-9.89-3.12-12.77s-5.63-5.81-11.34-8.7V1060a49.24,49.24,0,0,1,5.63.25c4.92.33,8.63.6,11.21.6,4.86,0,12.64-.27,23.12-.85v1.36c-4.28,1.94-7.44,4.53-9.08,7.59s-2.72,8-3.08,14.64c-.17,9.15-.39,17.93-.5,26.47V1150c-.25,4.51-.36,7.33-.36,8.42q0,21-4.64,33.58c-3.06,8.45-7.42,14.66-13.1,18.76a44.68,44.68,0,0,1-19.32,7.93,185.4,185.4,0,0,1-27.67,1.78A152.91,152.91,0,0,1,866.55,1219Z"/><path d="M1032.43,1218.37v-1.64a21.73,21.73,0,0,0,9.09-6.88,16.49,16.49,0,0,0,3.66-10c.23-13,.28-32.11.28-57.72,0-9.79,0-19.71-.35-29.88s-.69-20-1.25-29.41a33.78,33.78,0,0,0-2.94-12.25c-1.68-3.47-5-6.69-9.89-9.5V1060c9.89.64,17.61,1.08,23.4,1.08,3.08,0,7.7-.18,13.89-.5a83.43,83.43,0,0,1,9.27-.58v1.08a15.91,15.91,0,0,0-8.56,8.7,40.9,40.9,0,0,0-3.12,13.57c-.79,7-1.1,17.78-1.1,32.63v25.57c0,12.72.59,31.82,1.6,57.11a22.57,22.57,0,0,0,3.7,10.93,20,20,0,0,0,9.37,7.1v1.64h-.79q-16.32-1.18-23.61-1.18C1049.44,1217.19,1041.86,1217.58,1032.43,1218.37Z"/><path d="M1280.55,1059.58a83.58,83.58,0,0,0,9.17.83c5.18,0,12.89-.37,23.07-1.07v1.28a16.83,16.83,0,0,0-8.58,8.8,40.74,40.74,0,0,0-3.16,13.53c-.63,6.77-1.11,17.6-1.11,32.44V1141c0,4.72,0,11.57-.29,20.4,0,12.36-.23,21.07-.23,25.94,0,6.15.2,13.41.52,21.79,0,2,.19,4,.26,6.29a19.62,19.62,0,0,1,.41,2.64c0,2.55-.78,3.85-2.23,3.85-1,0-3-1.87-6.48-5.7l-120.62-121.36h-1.38c-.35,3.49-.49,8.62-.49,15.5,0,3.63.08,8.94.24,16.13.25,6.66.25,11.52.06,14.7,0,16.75.46,35.79,1.36,57a23.72,23.72,0,0,0,3.71,11.26c2.07,3.14,5.29,5.37,9.64,6.93v1.73a247.09,247.09,0,0,0-24.7-1.14c-3.79,0-7.34.19-10.61.51a41,41,0,0,1-4.31.29v-1.51a23.52,23.52,0,0,0,8.89-6.81,15.42,15.42,0,0,0,3.65-10.07c.29-12.87.49-32,.49-57.65,0-2,.14-8.41.42-19.39V1101.7c0-9.12-.1-15.64-.42-19.86v-1.4a25.91,25.91,0,0,0-3.5-10.92,27.58,27.58,0,0,0-10.11-9.11l-.53-1.71h1.62c4,.3,7.71.41,11,.82,3.39.11,6.42.31,9.36.31l120.82,124.06h1.38c.19-9.39.19-23.64.19-42.69,0-9.88-.08-19.77-.33-30s-.7-20-1.29-29.4v-.55a38.58,38.58,0,0,0-2.47-12.07c-1.49-3.16-4.45-6.15-9.24-8.81v-1.71C1276.25,1059,1278.14,1059.23,1280.55,1059.58Z"/></g><path class="cls-1" d="M1034.1,964c0-25.2-169.08-45.63-377.64-45.63S278.81,938.78,278.81,964s169.08,45.63,377.65,45.63S1034.1,989.18,1034.1,964Z"/><path class="cls-2" d="M1028.45,964.06c0-24.83-166.54-44.95-372-44.95s-372,20.12-372,44.95,166.55,45,372,45S1028.45,988.88,1028.45,964.06Z"/><path class="cls-3" d="M1022.81,964.13c0-24.45-164-44.26-366.35-44.26S290.1,939.68,290.1,964.13s164,44.27,366.36,44.27S1022.81,988.58,1022.81,964.13Z"/><path class="cls-4" d="M1017.17,964.21c0-24.08-161.5-43.59-360.71-43.59s-360.72,19.51-360.72,43.59,161.5,43.58,360.72,43.58S1017.17,988.28,1017.17,964.21Z"/><path class="cls-5" d="M1011.52,964.28c0-23.7-159-42.9-355.06-42.9s-355.07,19.2-355.07,42.9,159,42.9,355.07,42.9S1011.52,988,1011.52,964.28Z"/><path class="cls-6" d="M1005.88,964.35c0-23.32-156.44-42.22-349.42-42.22S307,941,307,964.35s156.44,42.22,349.43,42.22S1005.88,987.67,1005.88,964.35Z"/><path class="cls-7" d="M1000.24,964.43c0-22.95-153.92-41.54-343.78-41.54s-343.79,18.59-343.79,41.54S466.59,1006,656.46,1006,1000.24,987.37,1000.24,964.43Z"/><path class="cls-8" d="M994.6,964.5c0-22.57-151.39-40.86-338.14-40.86S318.32,941.93,318.32,964.5s151.39,40.86,338.14,40.86S994.6,987.06,994.6,964.5Z"/><path class="cls-9" d="M989,964.57c0-22.19-148.86-40.17-332.49-40.17S324,942.38,324,964.57s148.86,40.18,332.5,40.18S989,986.76,989,964.57Z"/><path class="cls-10" d="M983.31,964.65c0-21.81-146.34-39.5-326.85-39.5S329.6,942.84,329.6,964.65s146.34,39.49,326.86,39.49S983.31,986.46,983.31,964.65Z"/><path class="cls-11" d="M977.67,964.72c0-21.43-143.81-38.81-321.21-38.81s-321.21,17.38-321.21,38.81,143.81,38.81,321.21,38.81S977.67,986.15,977.67,964.72Z"/><path class="cls-12" d="M972,964.79c0-21.06-141.28-38.13-315.56-38.13s-315.57,17.07-315.57,38.13,141.28,38.13,315.57,38.13S972,985.85,972,964.79Z"/><path class="cls-13" d="M966.38,964.87c0-20.68-138.76-37.45-309.92-37.45s-309.93,16.77-309.93,37.45,138.76,37.44,309.93,37.44S966.38,985.55,966.38,964.87Z"/><path class="cls-14" d="M960.74,964.94c0-20.3-136.23-36.77-304.28-36.77s-304.28,16.47-304.28,36.77,136.23,36.77,304.28,36.77S960.74,985.24,960.74,964.94Z"/><path class="cls-15" d="M955.09,965c0-19.92-133.7-36.08-298.63-36.08S357.82,945.09,357.82,965s133.7,36.09,298.64,36.09S955.09,984.94,955.09,965Z"/><path class="cls-16" d="M949.45,965.09c0-19.55-131.18-35.4-293-35.4s-293,15.85-293,35.4,131.18,35.4,293,35.4S949.45,984.64,949.45,965.09Z"/><path class="cls-17" d="M943.81,965.16c0-19.17-128.65-34.72-287.35-34.72S369.11,946,369.11,965.16s128.65,34.72,287.35,34.72S943.81,984.34,943.81,965.16Z"/><path class="cls-18" d="M938.16,965.23c0-18.79-126.12-34-281.7-34s-281.71,15.24-281.71,34,126.12,34,281.71,34S938.16,984,938.16,965.23Z"/><path class="cls-19" d="M932.52,965.31c0-18.42-123.6-33.36-276.06-33.36s-276.07,14.94-276.07,33.36S504,998.66,656.46,998.66,932.52,983.73,932.52,965.31Z"/><path class="cls-20" d="M926.88,965.38c0-18-121.07-32.67-270.42-32.67S386,947.34,386,965.38s121.07,32.68,270.42,32.68S926.88,983.43,926.88,965.38Z"/><path class="cls-21" d="M921.23,965.46c0-17.67-118.54-32-264.77-32s-264.78,14.33-264.78,32,118.54,32,264.78,32S921.23,983.12,921.23,965.46Z"/><path class="cls-22" d="M915.59,965.53c0-17.29-116-31.31-259.13-31.31s-259.14,14-259.14,31.31,116,31.31,259.14,31.31S915.59,982.82,915.59,965.53Z"/><path class="cls-23" d="M910,965.6C910,948.69,796.46,935,656.46,935S403,948.69,403,965.6s113.49,30.63,253.49,30.63S910,982.52,910,965.6Z"/><path class="cls-24" d="M904.3,965.68c0-16.54-111-29.95-247.84-29.95s-247.85,13.41-247.85,29.95,111,29.94,247.85,29.94S904.3,982.21,904.3,965.68Z"/><path class="cls-25" d="M898.66,965.75c0-16.16-108.44-29.27-242.2-29.27s-242.21,13.11-242.21,29.27S522.69,995,656.46,995,898.66,981.91,898.66,965.75Z"/><path class="cls-26" d="M893,965.82c0-15.78-105.92-28.58-236.56-28.58S419.9,950,419.9,965.82s105.91,28.59,236.56,28.59S893,981.61,893,965.82Z"/><path class="cls-27" d="M887.37,965.9C887.37,950.49,784,938,656.46,938s-230.92,12.5-230.92,27.91,103.38,27.9,230.92,27.9S887.37,981.3,887.37,965.9Z"/><path class="cls-28" d="M881.73,966c0-15-100.86-27.22-225.27-27.22S431.18,950.94,431.18,966,532,993.19,656.46,993.19,881.73,981,881.73,966Z"/><path class="cls-29" d="M876.09,966c0-14.65-98.33-26.53-219.63-26.53S436.82,951.39,436.82,966s98.34,26.54,219.64,26.54S876.09,980.7,876.09,966Z"/><path class="cls-30" d="M870.44,966.12c0-14.28-95.8-25.86-214-25.86s-214,11.58-214,25.86,95.8,25.85,214,25.85S870.44,980.39,870.44,966.12Z"/><path class="cls-31" d="M864.8,966.19c0-13.9-93.28-25.17-208.34-25.17s-208.35,11.27-208.35,25.17,93.28,25.17,208.35,25.17S864.8,980.09,864.8,966.19Z"/><path class="cls-32" d="M859.16,966.26c0-13.52-90.76-24.49-202.7-24.49s-202.7,11-202.7,24.49,90.75,24.5,202.7,24.5S859.16,979.79,859.16,966.26Z"/><path class="cls-33" d="M853.51,966.34c0-13.15-88.22-23.81-197-23.81S459.4,953.19,459.4,966.34s88.22,23.81,197.06,23.81S853.51,979.48,853.51,966.34Z"/><path class="cls-34" d="M847.87,966.41c0-12.77-85.7-23.13-191.41-23.13S465,953.64,465,966.41s85.7,23.13,191.42,23.13S847.87,979.18,847.87,966.41Z"/><path class="cls-35" d="M842.23,966.48c0-12.39-83.18-22.44-185.77-22.44s-185.77,10.05-185.77,22.44,83.17,22.45,185.77,22.45S842.23,978.88,842.23,966.48Z"/><path class="cls-36" d="M836.58,966.56c0-12-80.64-21.77-180.12-21.77s-180.13,9.75-180.13,21.77S557,988.32,656.46,988.32,836.58,978.58,836.58,966.56Z"/><path class="cls-37" d="M830.94,966.63c0-11.64-78.12-21.08-174.48-21.08S482,955,482,966.63s78.12,21.08,174.49,21.08S830.94,978.27,830.94,966.63Z"/><path class="cls-38" d="M825.3,966.71c0-11.27-75.6-20.41-168.84-20.41s-168.85,9.14-168.85,20.41,75.6,20.4,168.85,20.4S825.3,978,825.3,966.71Z"/><path class="cls-39" d="M819.65,966.78c0-10.89-73.06-19.72-163.19-19.72s-163.2,8.83-163.2,19.72,73.06,19.72,163.2,19.72S819.65,977.67,819.65,966.78Z"/><path class="cls-40" d="M814,966.85c0-10.51-70.54-19-157.55-19s-157.56,8.53-157.56,19,70.54,19,157.56,19S814,977.36,814,966.85Z"/><path class="cls-41" d="M808.37,966.93c0-10.14-68-18.36-151.91-18.36s-151.92,8.22-151.92,18.36,68,18.35,151.92,18.35S808.37,977.06,808.37,966.93Z"/><path class="cls-42" d="M802.73,967c0-9.76-65.49-17.67-146.27-17.67S510.19,957.24,510.19,967s65.48,17.67,146.27,17.67S802.73,976.76,802.73,967Z"/><path class="cls-43" d="M797.08,967.07c0-9.38-63-17-140.62-17s-140.63,7.61-140.63,17,63,17,140.63,17S797.08,976.45,797.08,967.07Z"/><path class="cls-44" d="M791.44,967.15c0-9-60.44-16.31-135-16.31s-135,7.3-135,16.31,60.44,16.31,135,16.31S791.44,976.15,791.44,967.15Z"/><path class="cls-45" d="M785.8,967.22c0-8.63-57.91-15.63-129.34-15.63s-129.34,7-129.34,15.63,57.9,15.63,129.34,15.63S785.8,975.85,785.8,967.22Z"/><path class="cls-46" d="M780.15,967.29c0-8.25-55.38-14.94-123.69-14.94s-123.7,6.69-123.7,14.94,55.38,15,123.7,15S780.15,975.54,780.15,967.29Z"/><path class="cls-47" d="M774.51,967.37c0-7.88-52.86-14.27-118-14.27S538.4,959.49,538.4,967.37s52.86,14.26,118.06,14.26S774.51,975.24,774.51,967.37Z"/><path class="cls-48" d="M768.87,967.44c0-7.5-50.33-13.58-112.41-13.58s-112.41,6.08-112.41,13.58S594.38,981,656.46,981,768.87,974.94,768.87,967.44Z"/><path class="cls-49" d="M763.22,967.51c0-7.12-47.8-12.9-106.76-12.9s-106.77,5.78-106.77,12.9,47.8,12.9,106.77,12.9S763.22,974.63,763.22,967.51Z"/><path class="cls-50" d="M757.58,967.59c0-6.75-45.28-12.22-101.12-12.22s-101.13,5.47-101.13,12.22,45.28,12.22,101.13,12.22S757.58,974.33,757.58,967.59Z"/><path class="cls-51" d="M751.94,967.66c0-6.37-42.75-11.54-95.48-11.54S561,961.29,561,967.66s42.75,11.54,95.48,11.54S751.94,974,751.94,967.66Z"/><path class="cls-52" d="M746.29,967.73c0-6-40.22-10.85-89.83-10.85s-89.84,4.86-89.84,10.85,40.22,10.86,89.84,10.86S746.29,973.73,746.29,967.73Z"/><path class="cls-53" d="M812.5,930.91q2.34-1.24,4.63-2.55l.46-.25c1.12-.65,2.23-1.32,3.34-2l1.28-.77c47.31-29.28,79-83.3,79-173.45,0-102.26-46.09-200.45-98.88-269.23,13.28-19.73,21.42-46.31,21.42-75.75,0-59.35-33.25-107.67-75-109.61-.79,0-1.59-.06-2.38-.06H746c-1,0-2,0-2.94.09l-1.09.08c-.67.05-1.34.11-2,.18l-1.2.14c-.81.11-1.61.24-2.42.39-.57.1-1.15.22-1.73.34l-1.48.33-1.65.42-1.1.32a56.91,56.91,0,0,0-6.3,2.25l-.35.14c-18,7.73-33.29,24.53-43.13,46.65a137.79,137.79,0,0,0-10.33,36.22h0c0,.1,0,.2,0,.29a30.47,30.47,0,0,0-12.63-3.21h-.17c-.49,0-1,0-1.45.05h-.15A31.88,31.88,0,0,0,645,385.08a138.88,138.88,0,0,0-9.57-34.71,2.44,2.44,0,0,1-.1-.24C624,323.74,605.05,304.63,582.82,299h-.09a52.78,52.78,0,0,0-6.61-1.26l-.36,0c-1-.12-1.9-.2-2.85-.27l-.61-.05q-1.6-.09-3.24-.09c-.88,0-1.75,0-2.62.06h0c-41.7,2-74.93,50.28-74.93,109.61,0,29.44,8.17,56,21.43,75.75-52.61,68.52-98.85,167-98.85,269.23,0,86.67,29,139.85,73.51,169.92,3.24,2.15,6.55,4.22,10,6.17,1.71,1,3.43,2,5.16,2.85l0,0,0,0c102,55,207.94,54.9,309.8,0Z"/><path d="M559.05,399.87c-12.85,7-18.46,20.77-22.78,12.94s-1.51-27.48,11.37-34.62,30.83,1.19,35.2,9.14S571.89,392.79,559.05,399.87Z"/><path d="M753.78,399.87c12.83,7,18.48,20.77,22.77,12.94s1.51-27.48-11.38-34.62-30.92,1.19-35.19,9.14S740.89,392.79,753.78,399.87Z"/><path class="cls-54" d="M656,448.78c-26.16,0-46.81,23.61-46.81,1.15s21.07-62.24,47.25-62.24,47.25,39.77,47.25,62.24S682.07,448.78,656,448.78Z"/><path class="cls-54" d="M655.44,455.41c10.43,0,19.94,2.79,19.94,8.25s-8.44,15.18-19,15.18-19-9.72-19-15.18S644.85,455.41,655.44,455.41Z"/><g id="korona"><path class="cls-54" d="M780.93,237.71c0,19.64-55.34,35.57-123.7,35.57s-123.7-15.93-123.7-35.57L502.83,59.43,595,148.57,656.32,0l61.49,148.57L810,59.43Z"/><path class="cls-54" d="M608.9,98.61l-26-40.19-19.63,49.36c14.62,14.17,26.83,25.9,29.9,28.92C594.65,133.18,601,117.92,608.9,98.61Z"/><path class="cls-54" d="M749.55,107.78,729.9,58.42,703.8,98.61c8,19.39,14.32,34.57,15.73,38.09C722.66,133.76,734.85,122,749.55,107.78Z"/></g><path class="cls-54" d="M896.54,456C866,367.52,833.48,295.32,783.83,251.37c-13.62,19.9-71,30.64-125.4,30.64-55.7,0-114.16-11.34-125.86-31.75C482.26,294.19,449.46,366.8,418.73,456c-18.3,52.66-83.89,116.66-87.17,227.09-2.06,70.5,48.77,200.28,171.2,247.83-52.95-27.86-88.7-82.82-88.7-179,0-102.27,46.24-200.72,98.85-269.24-13.26-19.73-21.43-46.31-21.43-75.75,0-60.58,34.64-109.67,77.57-109.67,37.46,0,68.76,37.74,76,87.84a29.9,29.9,0,0,1,12.6-3.22,30.23,30.23,0,0,1,12.65,3.22c7.15-50.1,38.49-87.84,75.91-87.84,42.93,0,77.56,49.09,77.56,109.67,0,29.44-8.14,56-21.42,75.75,52.79,68.78,98.88,167,98.88,269.24,0,96.18-36,151.24-88.69,179,121.59-47.55,173.2-177.33,171.17-247.83C980.43,572.63,914.75,508.63,896.54,456Z"/></g></g></g></svg>