<svg xmlns="http://www.w3.org/2000/svg" viewBox="0 0 30 88.5"><title>mouse-scroll-2</title><g id="Layer_2" data-name="Layer 2"><g id="Layer_1-2" data-name="Layer 1"><circle cx="15" cy="13" r="3"/><path d="M15,0A15,15,0,0,0,0,15V40a15,15,0,0,0,30,0V15A15,15,0,0,0,15,0ZM28,40A13,13,0,0,1,2,40V15a13,13,0,0,1,26,0Z"/><path d="M28.29,58.79,15,72.09,1.71,58.79A1,1,0,0,0,.29,60.21l14,14a1,1,0,0,0,1.42,0l14-14a1,1,0,0,0-1.42-1.42Z"/><path d="M28.29,72.79,15,86.09,1.71,72.79A1,1,0,0,0,.29,74.21l14,14a1,1,0,0,0,1.42,0l14-14a1,1,0,1,0-1.42-1.42Z"/></g></g></svg>