<svg xmlns="http://www.w3.org/2000/svg" viewBox="0 0 656.48 367.36"><defs><style>.cls-1{fill:#424242;}.cls-1,.cls-2{fill-rule:evenodd;}.cls-2{fill:#e7e7e7;}</style></defs><title>road</title><g id="Layer_2" data-name="Layer 2"><g id="objects"><path class="cls-1" d="M313.66,0h29.77c2.85,3.39,7,8.3,13.78,16.21,11.86,13.9,41.61,48.8,299.27,351.15H0L299.89,16.15C306.63,8.26,310.82,3.4,313.66,0Z"/><path class="cls-2" d="M315.57,0h.56c-2.37,3.4-5.86,8.25-11.48,16.15-9.9,13.93-34.7,48.79-250,351.21H42.35C267.32,64.94,293.24,30.08,303.58,16.15,309.45,8.25,313.1,3.4,315.57,0Z"/><path class="cls-2" d="M341,0h.55c2.5,3.39,6.15,8.36,12.09,16.36,10.23,13.76,35.79,48.17,260.51,351H601.81c-215-302.83-239.49-337.27-249.3-351C346.84,8.34,343.33,3.39,341,0Z"/></g></g></svg>