<svg xmlns="http://www.w3.org/2000/svg" viewBox="0 0 226.67 245.15"><defs><style>.cls-1{fill:#4a4b4b;}.cls-2{fill:#231f20;opacity:0.3;}.cls-3{fill:#e9e9eb;}.cls-4{fill:#333232;}.cls-5{fill:#cdccca;}</style></defs><title>soccer-ball-3</title><g id="Layer_2" data-name="Layer 2"><g id="Layer_1-2" data-name="Layer 1"><path class="cls-1" d="M0,113.34A113.34,113.34,0,1,1,113.34,226.67,113.33,113.33,0,0,1,0,113.34Z"/><path class="cls-2" d="M0,131.82A113.34,113.34,0,1,1,113.34,245.15,113.33,113.33,0,0,1,0,131.82Z"/><path class="cls-3" d="M165.41,80.33A39.55,39.55,0,1,0,205,119.88,39.59,39.59,0,0,0,165.41,80.33Z"/><path class="cls-3" d="M165.41,70.52a49.35,49.35,0,1,0,49.35,49.36A49.36,49.36,0,0,0,165.41,70.52Zm0,94.5a45.15,45.15,0,1,1,45.15-45.14A45.2,45.2,0,0,1,165.41,165Z"/><path class="cls-3" d="M61.26,80.33a39.55,39.55,0,1,0,39.54,39.55A39.59,39.59,0,0,0,61.26,80.33Z"/><path class="cls-3" d="M61.26,70.52a49.35,49.35,0,1,0,49.35,49.36A49.36,49.36,0,0,0,61.26,70.52Zm0,94.5a45.15,45.15,0,1,1,45.15-45.14A45.2,45.2,0,0,1,61.26,165Z"/><path class="cls-3" d="M148.14,5.46c.86.28,1.71.56,2.55.86C149.85,6,149,5.74,148.14,5.46Z"/><path class="cls-3" d="M151.72,6.68c1,.36,2.05.75,3.06,1.15C153.77,7.43,152.75,7.05,151.72,6.68Z"/><path class="cls-3" d="M73.79,25.06A39.55,39.55,0,1,0,147.55,5.27a113.67,113.67,0,0,0-68.42,0A39.23,39.23,0,0,0,73.79,25.06Z"/><path class="cls-3" d="M160.41,10.21c-1.75-.79-3.52-1.55-5.3-2.26A45.15,45.15,0,1,1,71.56,8c-1.79.71-3.55,1.46-5.3,2.26a49.36,49.36,0,1,0,94.15,0Z"/><path class="cls-3" d="M78.62,5.43c-.91.29-1.8.59-2.69.9C76.82,6,77.71,5.72,78.62,5.43Z"/><path class="cls-3" d="M75,6.67c-1.08.38-2.14.78-3.2,1.2C72.84,7.45,73.9,7.05,75,6.67Z"/><path class="cls-3" d="M219.3,73.08l.12.33Z"/><path class="cls-3" d="M180.28,28.8a39.59,39.59,0,0,0,37.05,39.46,113.6,113.6,0,0,0-36.51-46A39.9,39.9,0,0,0,180.28,28.8Z"/><path class="cls-3" d="M217.45,68.51l.11.27Z"/><path class="cls-3" d="M180.59,22.12c-.22-.17-.46-.33-.69-.5C180.13,21.79,180.37,22,180.59,22.12Z"/><path class="cls-3" d="M219.61,73.94A45.19,45.19,0,0,1,174.67,28.8a44.67,44.67,0,0,1,1.14-10c-1.24-.82-2.49-1.63-3.76-2.4a49.38,49.38,0,0,0,47.77,61.77c.42,0,.84,0,1.26,0C220.62,76.71,220.13,75.33,219.61,73.94Z"/><path class="cls-3" d="M176,18.87l1,.67Z"/><path class="cls-3" d="M49.74,19.53c.32-.21.64-.44,1-.65C50.38,19.09,50.06,19.31,49.74,19.53Z"/><path class="cls-3" d="M46.06,22.13l.74-.53Z"/><path class="cls-3" d="M46.39,28.8a39.9,39.9,0,0,0-.54-6.51,113.6,113.6,0,0,0-36.51,46A39.58,39.58,0,0,0,46.39,28.8Z"/><path class="cls-3" d="M54.62,16.38c-1.27.77-2.52,1.58-3.76,2.4A44.67,44.67,0,0,1,52,28.8,45.19,45.19,0,0,1,7.06,73.94c-.52,1.39-1,2.77-1.47,4.18.42,0,.84,0,1.26,0A49.38,49.38,0,0,0,54.62,16.38Z"/><path class="cls-3" d="M9.12,68.76a2.44,2.44,0,0,1,.1-.24A2.44,2.44,0,0,0,9.12,68.76Z"/><path class="cls-3" d="M7.25,73.4l.12-.32Z"/><path class="cls-4" d="M212.79,59a115.09,115.09,0,0,1,1.27,17A113.35,113.35,0,0,1,1.27,130.36,113.35,113.35,0,1,0,212.79,59Z"/><path class="cls-5" d="M207.16,115a2.09,2.09,0,0,0,.08-.23A2.09,2.09,0,0,1,207.16,115Z"/><path class="cls-5" d="M206,118l.21-.52Z"/><path class="cls-5" d="M211.19,101.44c-.58,2.52-1.25,5-2,7.45a45.12,45.12,0,0,1-37.87,55.73l.08-.06q-3,2.43-6.26,4.66h.26a49.35,49.35,0,0,0,45.78-67.78Z"/><path class="cls-5" d="M180.59,156.38a39.57,39.57,0,0,0,24.34-35.79c0-.11.09-.21.13-.32a113.34,113.34,0,0,1-25.29,36.9Z"/><path class="cls-5" d="M177.77,159.08l1.12-1.06Z"/><path class="cls-5" d="M173.53,162.82l1-.83Z"/><path class="cls-5" d="M175.68,161l1.07-1Z"/><path class="cls-5" d="M218,69.78l-.44-1,0-.07C217.67,69,217.82,69.41,218,69.78Z"/><path class="cls-5" d="M217.33,68.26c-.14-.33-.28-.66-.43-1-.22-.5-.44-1-.67-1.48l-.63-1.34-.75-1.54-.59-1.17c-.42-.82-.85-1.63-1.29-2.44l-.18-.33c.44,2.93.76,5.9,1,8.9C214.94,68.05,216.13,68.18,217.33,68.26Z"/><path class="cls-5" d="M220.61,76.72l-.45-1.3-.57-1.57-.5-1.32-.24-.61.3.79c.16.41.32.82.47,1.23a45.17,45.17,0,0,1-5.61-.38c0,.8.05,1.6.05,2.41,0,.61,0,1.22,0,1.83a50.11,50.11,0,0,0,5.78.35c.42,0,.84,0,1.26,0C220.93,77.65,220.77,77.19,220.61,76.72Z"/><path class="cls-5" d="M49,206.67l.69.46Z"/><path class="cls-5" d="M15.59,170.71c-.16-.26-.31-.54-.46-.8C15.28,170.17,15.43,170.45,15.59,170.71Z"/><path class="cls-5" d="M51.82,208.52c1.43.92,2.88,1.83,4.35,2.69a49.33,49.33,0,0,0-44.62-48q1.14,2.29,2.37,4.53A45.22,45.22,0,0,1,51.82,208.52Z"/><path class="cls-5" d="M17.84,174.37a114,114,0,0,0,27.69,29.77A39.68,39.68,0,0,0,17.84,174.37Z"/><path class="cls-5" d="M212.75,167.76c.82-1.49,1.62-3,2.37-4.53a49.33,49.33,0,0,0-44.62,48c1.47-.86,2.92-1.77,4.35-2.69A45.22,45.22,0,0,1,212.75,167.76Z"/><path class="cls-5" d="M177.63,206.67l-.68.45Z"/><path class="cls-5" d="M211.1,170.69l.36-.64Z"/><path class="cls-5" d="M181.14,204.14a114.16,114.16,0,0,0,27.7-29.77A39.68,39.68,0,0,0,181.14,204.14Z"/><path class="cls-3" d="M70.63,218.34l-2-.84Z"/><path class="cls-3" d="M68.19,215.62a45.15,45.15,0,1,1,90.29,0c0,.57,0,1.14,0,1.71,1.43-.62,2.84-1.26,4.24-1.94a49.35,49.35,0,0,0-98.69,0c1.4.68,2.81,1.32,4.24,1.94C68.21,216.76,68.19,216.19,68.19,215.62Z"/><path class="cls-3" d="M73.37,219.41l-1.74-.67Z"/><path class="cls-3" d="M153.3,219.41l1.74-.67Z"/><path class="cls-3" d="M156,218.34l2-.85Z"/><path class="cls-3" d="M152.88,215.62a39.55,39.55,0,0,0-79.09,0,38.09,38.09,0,0,0,.21,4,113.56,113.56,0,0,0,78.67,0A38.09,38.09,0,0,0,152.88,215.62Z"/><path class="cls-5" d="M68.68,217.52l.64.28.63.26.61.25Z"/><path class="cls-5" d="M139.5,182.49l.15-.06Z"/><path class="cls-5" d="M68.19,215.62a44.92,44.92,0,0,1,10.18-28.53l.22,0c-1.61-.32-3.21-.66-4.79-1A49.13,49.13,0,0,0,64,215.39c.87.42,1.74.83,2.62,1.23l.56.24,1.06.46C68.21,216.76,68.19,216.19,68.19,215.62Z"/><path class="cls-5" d="M71.71,218.77l.57.23.39.15.7.26Z"/><path class="cls-5" d="M153.37,219.38a2.34,2.34,0,0,0,.24-.09l.73-.27.57-.23Z"/><path class="cls-5" d="M146.93,179.49q-2.13.94-4.31,1.81a45,45,0,0,1,15.86,34.32c0,.57,0,1.14,0,1.7,1.42-.61,2.84-1.25,4.23-1.93h0A49.19,49.19,0,0,0,146.93,179.49Z"/><path class="cls-5" d="M152.88,215.62a39.48,39.48,0,0,0-16.44-32.06,113.49,113.49,0,0,1-51.57,4.63h0a39.38,39.38,0,0,0-11.1,27.42c0,1.36.07,2.7.2,4,1.42.52,2.85,1,4.29,1.5l.6.19,2.23.69.72.21,2.31.64.55.15c1.92.5,3.85.94,5.8,1.34l.76.15c.72.15,1.44.28,2.17.41l.9.16,2.18.34.78.12c1,.14,2,.27,3,.38h0c1,.11,2,.2,2.93.29l.91.07,2.1.16,1,.05,2.11.1.94,0c1,0,2,0,3,0s2.09,0,3.13,0l1,0c.71,0,1.41-.05,2.11-.09l1.18-.08,1.92-.14,1.22-.1,1.88-.19,1.2-.14,1.92-.25,1.12-.15,2-.33,1-.16c.83-.14,1.66-.3,2.48-.46l.5-.1c2-.41,4-.87,6-1.38l.67-.19c.75-.2,1.51-.4,2.25-.62l.83-.25,2.07-.63.87-.28,2-.69.83-.3c.38-.13.76-.28,1.14-.42A38.09,38.09,0,0,0,152.88,215.62Z"/><path class="cls-5" d="M156,218.34l-.42.17,1-.41.47-.2.84-.36Z"/></g></g></svg>