<svg xmlns="http://www.w3.org/2000/svg" viewBox="0 0 386 346"><defs><style>.cls-1,.cls-3{fill:#231f20;}.cls-1{opacity:0.3;}.cls-2{fill:#bcbec0;}.cls-4{fill:#2a2a2a;}.cls-5,.cls-6{fill:#fff;}.cls-5{opacity:0.15;}.cls-7{fill:#f05455;}.cls-8{fill:#ffd740;}.cls-9{fill:#4cb6ac;stroke:#231f20;stroke-miterlimit:10;stroke-width:4px;}</style></defs><title>statistics-3</title><g id="Layer_2" data-name="Layer 2"><g id="Layer_1-2" data-name="Layer 1"><rect class="cls-1" y="7.9" width="386" height="267.03" rx="28.47" ry="28.47"/><rect class="cls-2" x="155.46" y="259.53" width="75.63" height="68.65" rx="12.82" ry="12.82"/><rect class="cls-1" x="125.35" y="317.63" width="134.55" height="28.37" rx="6.89" ry="6.89"/><rect class="cls-3" width="386" height="267.03" rx="28.47" ry="28.47"/><path class="cls-4" d="M376.37,35.77h0L9.44,231.39a9.31,9.31,0,0,0,5.71,2H370.61A9.36,9.36,0,0,0,380,224V43.14A9.34,9.34,0,0,0,376.37,35.77Z"/><path class="cls-5" d="M376.37,35.77a9.29,9.29,0,0,0-5.76-2H15.15a9.37,9.37,0,0,0-9.36,9.37V224a9.33,9.33,0,0,0,3.65,7.41L376.37,35.77Z"/><rect class="cls-3" x="155.46" y="251.63" width="75.63" height="68.65" rx="12.82" ry="12.82"/><rect class="cls-3" x="125.35" y="309.73" width="134.55" height="28.37" rx="6.89" ry="6.89"/><rect class="cls-6" x="99.7" y="46.52" width="186.61" height="153.56" rx="12.23" ry="12.23"/><path class="cls-3" d="M276.58,204H109.42A11.68,11.68,0,0,1,97.75,192.3V77.62a1.94,1.94,0,0,1,2-1.94H286.3a1.94,1.94,0,0,1,1.95,1.94V192.3A11.68,11.68,0,0,1,276.58,204ZM101.64,79.56V192.3a7.79,7.79,0,0,0,7.78,7.78H276.58a7.79,7.79,0,0,0,7.78-7.78V79.56Z"/><path class="cls-3" d="M146.35,204A2,2,0,0,1,144.4,202V77.62a1.95,1.95,0,0,1,3.89,0V202A1.94,1.94,0,0,1,146.35,204Z"/><path class="cls-7" d="M193,46.52h83.58a9.72,9.72,0,0,1,9.72,9.72V77.62a0,0,0,0,1,0,0H193a0,0,0,0,1,0,0V46.52A0,0,0,0,1,193,46.52Z"/><path class="cls-3" d="M286.3,79.56H193a1.94,1.94,0,0,1-1.94-1.94V46.52a1.94,1.94,0,0,1,1.94-2h83.58a11.68,11.68,0,0,1,11.67,11.67V77.62A1.94,1.94,0,0,1,286.3,79.56Zm-91.36-3.88h89.42V56.24a7.79,7.79,0,0,0-7.78-7.78H194.94Z"/><path class="cls-8" d="M109.42,46.52H193a0,0,0,0,1,0,0v31.1a0,0,0,0,1,0,0H99.7a0,0,0,0,1,0,0V56.24A9.72,9.72,0,0,1,109.42,46.52Z"/><path class="cls-3" d="M193,79.56H99.7a1.94,1.94,0,0,1-2-1.94V56.24a11.68,11.68,0,0,1,11.67-11.67H193a1.94,1.94,0,0,1,1.94,2v31.1A1.94,1.94,0,0,1,193,79.56Zm-91.36-3.88h89.42V48.46H109.42a7.79,7.79,0,0,0-7.78,7.78Z"/><path class="cls-3" d="M193,204a1.94,1.94,0,0,1-1.94-1.95V77.62a1.94,1.94,0,0,1,3.88,0V202A1.94,1.94,0,0,1,193,204Z"/><path class="cls-3" d="M286.3,110.66H99.7a1.94,1.94,0,1,1,0-3.88H286.3a1.94,1.94,0,1,1,0,3.88Z"/><path class="cls-3" d="M286.3,141.77H99.7a1.95,1.95,0,1,1,0-3.89H286.3a1.95,1.95,0,1,1,0,3.89Z"/><path class="cls-3" d="M286.3,172.87H99.7a1.95,1.95,0,1,1,0-3.89H286.3a1.95,1.95,0,1,1,0,3.89Z"/><circle class="cls-9" cx="286.15" cy="203.52" r="20.65"/><path class="cls-3" d="M282.25,211.31a1.37,1.37,0,0,1-1-.4l-7.79-7.79a1.38,1.38,0,0,1,1.95-2l6.81,6.82,13.64-13.64a1.38,1.38,0,1,1,1.94,2l-14.6,14.61A1.38,1.38,0,0,1,282.25,211.31Z"/></g></g></svg>