<svg xmlns="http://www.w3.org/2000/svg" viewBox="0 0 352.87 197.19"><defs><style>.cls-1{fill:#231f20;}</style></defs><title>VGL-esports-black</title><g id="Layer_2" data-name="Layer 2"><g id="Layer_1-2" data-name="Layer 1"><path class="cls-1" d="M47.11,38.51H8.6L5.82,0H44.33Zm59.44,10.7L73,128.38H15.23L9.45,49.21H47.73l3.21,40.38L68.16,49.21ZM127.78,0,111.35,38.51H72.73L89.16,0Z"/><path class="cls-1" d="M242.14,49.21l-8.66,49.22q-2.14,12.41-12.52,21.18t-22.78,8.77H140.4q-10.9,0-18-7.06a23.81,23.81,0,0,1-7.06-17.55,33,33,0,0,1,.42-5.34l8.4-49.22h38.66l-7.11,40.66h40.79l1.89-10.7H181.27l5.14-30ZM250.81,0l-7,38.51H126.28l1.5-8.55q2.13-12.42,12.51-21.19T163.08,0Z"/><path class="cls-1" d="M352.87,89.87,346,128.38H239l14-79.17h38.25l-7,40.66ZM300.18,0l-7,38.51H254.91L261.72,0Z"/><path class="cls-1" d="M46,167.07l-2,11.4H17.94l-.72,4.07H43.31L40.7,197.19H0l5.32-30.12Zm3.34-18.72L46.73,163H6l2.59-14.65Z"/><path class="cls-1" d="M93.05,176.52a10.72,10.72,0,0,1-.18,1.95l-1.29,7.33a13.33,13.33,0,0,1-4.76,8.06,13.14,13.14,0,0,1-8.67,3.33H44.77l2.61-14.65H77.52l.72-4.07H59.51a9.37,9.37,0,0,1-6.92-2.69A9.16,9.16,0,0,1,49.9,169a11.78,11.78,0,0,1,.16-2H83.44a9.36,9.36,0,0,1,6.92,2.69A9.16,9.16,0,0,1,93.05,176.52Zm5.12-28.17L95.51,163H50.8l.57-3.25a13.27,13.27,0,0,1,4.76-8.06,13.11,13.11,0,0,1,8.67-3.34Z"/><path class="cls-1" d="M143.76,167.07a13.32,13.32,0,0,1-4.73,8.06,13,13,0,0,1-8.64,3.34H111.64l-3.31,18.72H93.7L99,167.07Zm1.47-9.28a11.79,11.79,0,0,1-.17,2l-.57,3.25H99.74l2.59-14.65H135.7a9.27,9.27,0,0,1,6.84,2.69A9.16,9.16,0,0,1,145.23,157.79Z"/><path class="cls-1" d="M192.54,167.07l-3.27,18.73a13.34,13.34,0,0,1-4.77,8.06,13.14,13.14,0,0,1-8.67,3.33h-22a9.18,9.18,0,0,1-9.52-9.44,11.66,11.66,0,0,1,.16-1.95l3.2-18.73H162.4l-2.71,15.47h15.44l2.7-15.47Zm1.45-9.28a13,13,0,0,1-.16,2l-.57,3.25H148.48l.57-3.25a14.19,14.19,0,0,1,13.43-11.4h22A9.27,9.27,0,0,1,191.3,151,9.16,9.16,0,0,1,194,157.79Z"/><path class="cls-1" d="M241.46,167.07q-.41,2.53-4.16,5.71,2.19,2.76,2.19,4.88a7.67,7.67,0,0,1,0,.82l-3.38,18.71H221.61l3.3-18.72H209.32L206,197.19H191.38l5.32-30.12Zm1.45-9.28a11.78,11.78,0,0,1-.16,2l-.57,3.25H197.42L200,148.35h33.38a9.28,9.28,0,0,1,6.84,2.69A9.15,9.15,0,0,1,242.91,157.79Z"/><path class="cls-1" d="M293.55,148.35,290.94,163H246.17l2.6-14.65Zm-18.42,18.72-5.3,30.12H255.2l5.3-30.12Z"/><path class="cls-1" d="M337.26,176.52a11.67,11.67,0,0,1-.17,1.95l-1.29,7.33a13.34,13.34,0,0,1-4.77,8.06,13.14,13.14,0,0,1-8.67,3.33H289l2.6-14.65h30.15l.72-4.07H303.72a9.37,9.37,0,0,1-6.92-2.69,9.15,9.15,0,0,1-2.68-6.75,11.78,11.78,0,0,1,.16-2h33.38a9.37,9.37,0,0,1,6.92,2.69A9.16,9.16,0,0,1,337.26,176.52Zm5.13-28.17L339.73,163H295l.57-3.25a13.27,13.27,0,0,1,4.76-8.06,13.11,13.11,0,0,1,8.67-3.34Z"/></g></g></svg>