<svg xmlns="http://www.w3.org/2000/svg" viewBox="0 0 102.27 74.74"><defs><style>.cls-1{fill:#131313;}.cls-2{fill:#414042;}.cls-3{fill:#00a58c;}.cls-4{fill:#2a2a2a;}</style></defs><title>community-icon_1</title><g id="Layer_2" data-name="Layer 2"><g id="Layer_1-2" data-name="Layer 1"><g id="player-2"><path class="cls-1" d="M17.35,35.5H39.53A17.35,17.35,0,0,1,56.88,52.86V64.48a4.08,4.08,0,0,1-4.08,4.08H4.08A4.08,4.08,0,0,1,0,64.48V52.86A17.35,17.35,0,0,1,17.35,35.5Z"/><path class="cls-2" d="M21,35.5H35.9A15.64,15.64,0,0,1,51.54,51.14V64.88a3.67,3.67,0,0,1-3.67,3.67H9a3.67,3.67,0,0,1-3.67-3.67V51.14A15.64,15.64,0,0,1,21,35.5Z"/><circle class="cls-3" cx="28.44" cy="22.88" r="14.56"/><path class="cls-1" d="M39.38,35.5H17.5a13.13,13.13,0,0,0,21.88,0Z"/><circle class="cls-4" cx="28.44" cy="21.44" r="16"/></g><g id="player-1"><path class="cls-1" d="M55.47,35.61H81.72a20.55,20.55,0,0,1,20.55,20.55V69.91a4.83,4.83,0,0,1-4.83,4.83H39.74a4.83,4.83,0,0,1-4.83-4.83V56.15A20.55,20.55,0,0,1,55.47,35.61Z"/><path class="cls-2" d="M59.76,35.61H77.43A18.52,18.52,0,0,1,96,54.13V70.39a4.35,4.35,0,0,1-4.35,4.35h-46a4.35,4.35,0,0,1-4.35-4.35V54.13A18.52,18.52,0,0,1,59.76,35.61Z"/><circle class="cls-3" cx="68.59" cy="20.66" r="17.24"/><path class="cls-1" d="M81.55,35.61H55.64a15.56,15.56,0,0,0,25.91,0Z"/><circle class="cls-4" cx="68.59" cy="18.95" r="18.95"/></g></g></g></svg>