<?xml version="1.0" encoding="utf-8"?>
<!-- Generator: Adobe Illustrator 22.0.0, SVG Export Plug-In . SVG Version: 6.00 Build 0)  -->
<svg version="1.1" id="Layer_1" xmlns="http://www.w3.org/2000/svg" xmlns:xlink="http://www.w3.org/1999/xlink" x="0px" y="0px"
	 viewBox="0 0 63.3 123.5" style="enable-background:new 0 0 63.3 123.5;" xml:space="preserve">
<style type="text/css">
	.st0{fill:#2A2A2A;}
</style>
<path id="nba-player" class="st0" d="M63.3,32.3c0,0.6,0,2-0.5,2.4c-0.3,0.2-0.8,0.2-1.1,0.3c-0.4,0.1-0.7,0.3-1,0.5
	c-0.5,0.3-0.7,1.5-1.2,1.5c-0.8,0.1-0.6-1.8-0.6-2.3c-1.5,0.5-2.9,0-4.4-0.1c-1.8-0.2-3.6-0.3-5.4-0.4c-1.1-0.1-2.2-0.3-3.2-0.5
	c-0.6-0.2-1.8-0.8-2.3-0.5c-0.6,0.6-1,1.2-1.4,1.9c-0.6,0.6-1.1,1.2-1.4,1.9c-0.2,0.9-0.3,1.9-0.1,2.8c0.3,0.9,0.6,1.4,0,2.2
	c-0.2,0.3-0.5,0.3-0.7,0.5c-0.2,0.2-0.3,0.4-0.3,0.7c-0.3,0.8-0.5,1.7-0.8,2.5c-0.6,2-1.3,3.9-2.1,5.8c-0.1,0.2-0.2,0.5-0.2,0.7
	c0,0.2,0.3,0.5,0.3,0.7c0,0.3,0,0.6,0,0.9c-0.1,0.4,0,0.8,0.2,1.1c0.1,0.1,0.3,0.1,0.4,0.3c0.2,0.3,0.3,0.6,0.3,1
	c0.1,0.9-0.5,2.3,0,3.1c0.5,0.6,1,1.2,1.6,1.7c0.6,0.5,1,1.1,1.3,1.9c0.3,1.2,0.1,2.6-0.5,3.7c-0.5,0.8-1.1,1.5-1.8,2.2
	c-0.5,0.5-0.8,1.3-0.8,2c-0.2,0.9-0.5,1.8-0.8,2.7c-0.2,0.5-0.3,1.1-0.5,1.6s-0.6,0.9-0.8,1.4s0,0.8-0.2,1.2s-0.4,0.9-0.9,1
	s-0.3-0.2-0.8,0c-0.2,0.1-0.2,0.1-0.4,0.4c-0.5,0.6-1,1.3-1.4,2c-0.2,0.7-0.4,1.3-0.6,2c-0.2,0.7-0.4,1.5-0.6,2.2
	c-0.1,0.4-0.3,0.8-0.4,1.2c0,0.5-0.1,0.9-0.3,1.3c-0.3,0.8-0.8,1.5-1.1,2.3c-0.3,0.9-0.6,1.8-0.8,2.7c-0.4,1.4-0.9,2.8-1.6,4.2
	c-0.6,1.3-1.3,2.5-2.2,3.6c-0.9,1.4-1.5,3-2.3,4.6c-0.4,0.6-0.7,1.2-0.9,1.8c0,0.1,0.1,0.3,0.1,0.4s-0.3,0.3-0.5,0.5
	c-0.2,0.3-0.4,0.7-0.5,1c-0.4,0.7-1.1,0.4-0.8,0.9s0.1,1-0.1,1.5c0.5-0.1,1.4-0.2,1.5,0.6c0,1.2-1.5,1-2.1,0.6
	c-0.3,1.3-0.6,2.7-0.8,4.1c-0.2,0.9-0.2,1.8,0,2.7c0.3,1.1,0.3,2.2,0,3.3c-0.3,0.6-0.3,1-1.1,1.1c-0.8-0.1-1.6-0.4-2.2-1
	c-0.8-0.8-1.4-1.8-1.7-2.8c-0.3-0.8-0.8-2-0.4-2.8c0.3-0.5,0.5-1.1,0.3-1.7c-0.1-0.2-0.4-0.4-0.5-0.6c-0.2-0.3-0.4-0.6-0.6-0.9
	c-0.5-0.9-0.6-2-0.6-3c0.1-0.7,0.4-0.9,0.9-1.2c1.1-0.8,2.3-1.5,3.3-2.3c0.6-0.5,1.3-0.8,1.4-1.7c0-0.2-0.1-0.4,0-0.6
	s0.3-0.3,0.4-0.4s0.1-0.2,0.1-0.3c0.6-1.4,1.1-2.9,1.6-4.3c0.5-1.2,0.9-2.3,1.2-3.5c-0.5,0-0.9-0.2-1.3-0.4
	c-0.7-0.5-0.5-1.2-0.1-1.9c0.5-1.1,1.1-2.2,1.7-3.2c0.5-0.8,0.9-2.2,1.6-2.8c0.2-0.2,0.6-0.1,0.8-0.3c0.2-0.2,0.4-0.5,0.5-0.7
	c0.1-0.2,0.2-0.4,0.2-0.7c0-0.3-0.2-0.5,0-0.8c0.4-0.4,0.4,0.1,0.5-0.6s0.1-1.4,0.2-2c0.1-1.3,0.4-2.6,0.7-3.8
	c0.1-0.5,0.2-1,0.3-1.6c0.1-0.7,0-0.7-0.5-1.2c-0.6-0.7-1.1-1.5-1.3-2.3c-0.1-0.7,0-1.5,0.3-2.2c0-0.4,0.1-0.8,0.2-1.1
	c0.1-0.3,0.2-0.2,0.2-0.4s-0.1-0.8-0.1-1.2c0.1-0.5,0.1-1-0.1-1.5c-0.3-0.7-0.5-1.2-0.1-1.9c0.2-0.3,0.6-0.9,0.1-1.2
	c-0.3-0.2-0.7,0-1-0.2s-0.3-0.7-0.5-1c-0.4-0.5-0.8-0.6-0.9-1.2c-0.1-0.5-0.2-1.1-0.5-1.6c-0.3-1.2-0.5-2.5-0.5-3.7
	c-0.2-1.2-0.3-2.4-0.4-3.6c0-0.6,0.1-1.3,0.1-1.9s-0.1-1.2,0.3-1.6c0.3-0.2,0.6-0.5,0.8-0.8c0.1-0.2,0.3-0.5,0.6-0.6
	c0.5-0.3,0.4-0.3,0.2-0.9s-0.4-1.1-0.6-1.7s0-0.9-0.1-1.3c-0.1-0.5-0.2-0.9-0.2-1.4c0-0.7,0.1-1.4,0.1-2.1c0-0.5,0.1-1,0.1-1.5
	s0.2-0.8,0.2-1.1c0-0.2,0-0.5-0.1-0.7c0-0.4,0.1-0.8,0.4-1.2c0.1-0.2,0.4-0.3,0.5-0.5c0-0.2,0-0.5-0.1-0.7c-0.2-1.2-0.4-2.3-0.5-3.5
	c-0.1-0.9-0.1-1.8-0.8-2.4c-0.5-0.4-1.1-0.7-1.6-1c-0.3-0.2-0.6-0.3-0.9-0.5c-0.2,0-0.4,0-0.7,0c-1-0.3-2.1-1.5-2.9-2.2
	c-0.4-0.3-0.7-0.6-0.9-0.9c-0.1-0.1,0.1-0.2,0-0.3c-0.2-0.2-0.4-0.4-0.6-0.6c-0.9-0.9-1.8-1.7-2.6-2.6s-1.9-2.4-0.9-3.5
	c0.7-0.8,1.6-1.4,2.4-2.1c1.7-1.5,3.4-2.8,5.3-3.9c1-0.7,2.2-1.1,2.9-2.2c0.2-0.2,0.3-0.5,0.4-0.8c0-0.4-0.1-0.8-0.3-1.2
	c-0.2-0.9-0.2-1.9,0-2.8c0.6-3,3.5-4.9,6.5-4.3c0.4,0.1,0.7,0.2,1.1,0.3c3,1.5,4.2,5.2,2.6,8.2c-0.1,0.1-0.1,0.2-0.2,0.3
	c-0.8,1.4-2.2,2.4-3.8,2.6c-0.5,0.1-1.1,0.3-1.6,0.6c-0.8,0.3-1.6-0.2-2.4-0.1c-1.1,0.1-2.1,1.2-3,1.9c-1,0.7-1.9,1.6-2.7,2.5
	c-0.3,0.4-0.7,0.8-1,1.3c-0.2,0.2-0.7,1.3-1,1.3c0,0.6,2.9,1.1,3.4,1.4c1.2,0.6,2.3,1.5,3.1,2.6c0.2,0.4,0,0.3,0.4,0.5
	c0.3,0.1,0.7,0.2,1,0.3c0.7,0.2,1.4,0.3,2.1,0.4c1.5,0.3,2.8,1.5,3.2,3c0.3-0.2,0.5,0,0.8-0.1c0.3-0.1,0.6-0.3,0.8-0.4
	c0.5-0.2,0.3-0.1,0.3-0.6s-0.1-1.1-0.1-1.7s0.1-1.3-0.2-1.6s-0.6,0-0.8-0.3s-0.5-2.5,0.1-2.3c-0.1-1.3,0.4-2.7,1.3-3.7
	c0.8-1.4,2.5-2,4-1.7c1.1,0.4,1.9,1.1,2.5,2.1c0.8,1.3,0.3,2.7,0.3,4.1c0.7-0.1,0.2,3-0.6,2.3c-0.1,0.3-0.3,0.5-0.4,0.7
	c0,0.2,0,0.4,0,0.6c0,0.4-0.2,0.8-0.2,1.2c0,0.6-0.1,0.8,0.5,1c0.4,0.1,0.8,0.1,1.2,0c0.5-0.3,0.3-0.4,0.8-0.4
	c0.1,0,0.1-0.2,0.3-0.2s0.2,0.2,0.3,0.2c0.2,0.1,0.4,0.2,0.6,0.2c0.2,0,0.5,0.2,0.7,0.3c0.3,0,0.7,0,1-0.1c1.2-0.1,2.3,0,3.4,0.3
	c1.3,0.5,2.6,1.3,3.9,1.9c1.3,0.5,2.6,0.8,3.9,0.9c1.2,0.2,2.6,0.7,3.8,0.4c0.8-0.4,1.7-0.5,2.7-0.5c0.8,0.1,1.6,0.2,2.3,0.4
	c0.5,0.1,0.9,0.4,1.3,0.6C62.8,31.4,63.3,31.6,63.3,32.3z"/>
<g id="partlcles">
	<polygon class="st0" points="12.5,99.8 10.5,101.4 12.9,101.4 	"/>
	<polygon class="st0" points="5.4,99.5 9,97.9 9.6,99.2 	"/>
	<polygon class="st0" points="3.7,106.2 8,102 8.5,103.8 	"/>
	<path class="st0" d="M12.6,98c0.3,0.2,3,1.6,3,1.6l0.6-2.2L12.6,98z"/>
	<polygon class="st0" points="10.7,104.1 11.6,106.9 12.8,104.1 	"/>
	<polygon class="st0" points="16.8,3.3 18.3,5.9 19.1,4.3 	"/>
	<path class="st0" d="M5.8,9.4c0.6,0.7,1.2,1.4,1.9,2L9,9L5.8,9.4z"/>
	<path class="st0" d="M9.9,5.1c0.6,0.9,1.2,1.8,1.9,2.7V4.1L9.9,5.1z"/>
	<polygon class="st0" points="22.7,14.6 23.1,17.8 24.8,14.6 	"/>
	<polygon class="st0" points="12.4,9.2 13,11.2 13.6,9.2 	"/>
	<path class="st0" d="M15.9,8.5C16,8.5,17.6,9,17.6,9l-0.8-1.5L15.9,8.5z"/>
	<polygon class="st0" points="13.9,5 14.9,5.9 15.8,4.4 	"/>
	<polygon class="st0" points="25.7,13.2 28.5,14.4 27.8,13 	"/>
	<polygon class="st0" points="47.1,39.5 47,36.6 42.7,37.4 	"/>
	<polygon class="st0" points="42.9,43.9 44.8,41.1 47,43.1 	"/>
	<polygon class="st0" points="48.3,47.6 45.8,48 45.7,45.8 	"/>
	<polygon class="st0" points="52,36.3 52,38 54.1,37 	"/>
	<polygon class="st0" points="51.2,40.9 55,39 54.6,40 	"/>
	<polygon class="st0" points="48.3,43.9 51.4,42.9 51.2,43.9 	"/>
	<polygon class="st0" points="48.8,38.9 48.8,40 49.8,39.4 	"/>
	<polygon class="st0" points="13,35.1 15.8,35.8 10.4,39 	"/>
	<polygon class="st0" points="11,51.4 12.4,51.7 12.7,48.5 	"/>
	<polygon class="st0" points="7.3,44.4 8,46 8.8,44.5 	"/>
	<polygon class="st0" points="3.7,65.5 5.2,66.3 5,64.6 	"/>
	<polygon class="st0" points="3.6,53 4.3,54.6 5.1,53.2 	"/>
	<polygon class="st0" points="5.1,38.4 6.1,40.6 9.1,38.5 	"/>
	<polygon class="st0" points="0,36.8 1.8,37.1 1.8,34.8 	"/>
	<polygon class="st0" points="13.8,42.8 15.9,40.4 12.5,40.8 	"/>
	<polygon class="st0" points="7.1,60.5 9.4,58.8 9.1,56.4 	"/>
	<polygon class="st0" points="9,33 10.9,30.8 12.2,31.1 	"/>
	<polygon class="st0" points="3.4,48.9 5,49.3 6.2,47.9 	"/>
	<polygon class="st0" points="14.1,57.5 15.6,57.5 14.9,55.4 	"/>
</g>
</svg>
