<svg xmlns="http://www.w3.org/2000/svg" viewBox="0 0 70.18 70.18"><defs><style>.cls-1{isolation:isolate;}.cls-2{fill:#2a2a2a;}.cls-3{fill:#fff;}.cls-4{mix-blend-mode:multiply;}.cls-5{fill:#d1d3d4;}</style></defs><title>earth-icon</title><g class="cls-1"><g id="Layer_2" data-name="Layer 2"><g id="Layer_1-2" data-name="Layer 1"><circle class="cls-2" cx="35.09" cy="35.09" r="35.09"/><path class="cls-3" d="M65.45,48l1,2.88a35.17,35.17,0,0,1-21.67,18l2.67-6.17-2.7-5.88,4.35-7.3L53.92,48l.94.58L59.1,48l2.82,1.52ZM44.16,52l-.71-3.18-1.76-.12-1.3-2.35-3.53.23-1.88-4,7.76-1.82,1.42,2.41L45,42l-.71-3.41L48,30.78l2.24-.71V28.78l-2-1.53.58-3.53-4.11-2.47-5.06.23,2.11,2.94L41,27.48,36.51,24l.23-4.12,1.53-.11.12-2.48h1.06V19.6l3.65-.47L41,16.3l-3.35-2.82.58-1.06,4,1.77,4.24,4H49L47,14.3,47.33,11,41,8.54,33.1,11.13l1.41,3.06-2.35-.71-6,1.76-2.23-1.76-6.24,2.35-1.76,4.36h5.41l2.12,4.23-.36,2.24.83,2.23-1.41,6.24,3.17,4.94-.47,2.12L27.1,44.9l.82-2.48,2.82,4.24v1.77ZM35.09,0A34.94,34.94,0,0,0,15,6.32L16.33,7V8.77L11,9.61l-.29.27v2.6H21.27L23.39,5.6,37,1.71,43.16,6,50.22,8.6l3-1.5L55,10.18l-3.17,2.3,5.11,1.59,7.59,8.12,1.41,8.12,4.26,4.25A35.1,35.1,0,0,0,35.09,0Z"/><g class="cls-4"><path class="cls-5" d="M49.46,6.34,45,4.67a7.32,7.32,0,0,1-1.57-.82l-4-2.72L36.28.61l-10.44,3a3,3,0,0,0-2.45,2L37,1.71,43.16,6,50.22,8.6l3-1.5,1.41,2.47,1.37-1L54.39,5.78l-.31-.2-1.16.58A4.34,4.34,0,0,1,49.46,6.34Z"/><polygon class="cls-5" points="41.8 24.42 41.54 25.48 42.05 25.89 42.82 22.83 41.78 21.38 39.69 21.48 41.8 24.42"/><path class="cls-5" d="M46.26,66.14l1.63-3.75a3.18,3.18,0,0,0,0-2.63l-2.1-4.58,3.42-5.72-.08,0-4.35,7.3,2.7,5.88-2.67,6.17A35.19,35.19,0,0,0,65.2,53.11,35.07,35.07,0,0,1,46.93,66.88.55.55,0,0,1,46.26,66.14Z"/><path class="cls-5" d="M26.4,39.81h0A3.28,3.28,0,0,0,26,37.33l-2.44-3.8,1.15-5.08a4,4,0,0,0-.15-2.26h0a4.54,4.54,0,0,1-.22-2.31h0a3.35,3.35,0,0,0-.31-2l-.8-1.59a3.07,3.07,0,0,0-2.74-1.7h-2a1,1,0,0,1-.94-1.38l.63-1.54-.44.16-1.76,4.36h5.41l2.12,4.23-.36,2.24.83,2.23-1.41,6.24,3.17,4.94-.47,2.12L27.1,44.9l.68-2.07-1.09-1.58A1.8,1.8,0,0,1,26.4,39.81Z"/><polygon class="cls-5" points="50.27 28.8 49.05 29.18 48.33 30.69 50.27 30.07 50.27 28.8"/><path class="cls-5" d="M66.56,26.54l-.72-4.16a6,6,0,0,0-1.55-3.11l-5.15-5.51A6.67,6.67,0,0,0,56.26,12l-2.61-.81-1.84,1.34,5.11,1.59,7.59,8.12,1.41,8.12,4.26,4.25q0-1.39-.15-2.76L68.5,30.27A7,7,0,0,1,66.56,26.54Z"/><path class="cls-5" d="M31.76,45.56h0a1.65,1.65,0,0,0-.28-.91l-2-3a.48.48,0,0,0-.86.11l-.38,1.15,2.5,3.75v1.77L44.16,52l-.44-2L33,47.15A1.64,1.64,0,0,1,31.76,45.56Z"/><path class="cls-5" d="M16.33,7.34h0a1.2,1.2,0,0,0,1-1.19V6a1,1,0,0,0-.53-.88h0c-.62.37-1.22.77-1.81,1.18L16.33,7Z"/><path class="cls-5" d="M21.76,10.88H13.08A1.38,1.38,0,0,1,11.7,9.5h0L11,9.61l-.29.27v2.6H21.27Z"/></g></g></g></g></svg>