<svg xmlns="http://www.w3.org/2000/svg" viewBox="0 0 82.42 29.38"><defs><style>.cls-1{fill:#001633;}</style></defs><g id="Layer_2" data-name="Layer 2"><g id="Logos"><path class="cls-1" d="M27.91,0,15.38,29.38H2.15L0,0H8.81l1.52,20.5L19.07,0Z"/><path class="cls-1" d="M57.06,0l-1.6,8.81H37.37L35,21.39h9.33l.72-3.27H41.15l.9-4.14H54.81L53.1,22.52a8,8,0,0,1-2.86,4.85,7.93,7.93,0,0,1-5.22,2H31.8a5.54,5.54,0,0,1-5.73-5.68,6.8,6.8,0,0,1,.1-1.18L28.91,6.85A8,8,0,0,1,31.77,2,7.91,7.91,0,0,1,37,0Z"/><path class="cls-1" d="M82.42,20.57l-1.57,8.81H56.37L61.56,0h8.81L66.73,20.57Z"/></g></g></svg>