<svg id="formula1-svg" xmlns="http://www.w3.org/2000/svg" viewBox="0 0 595.28 841.89">
    <style type="text/css">
      .st0{fill:#2A2A2A;}
    </style>
    <g id="formula1-particles">
      <path class="st0 rotate360" d="M430.64,403.07l2.16,3.49l2.99-3.49H430.64z"/>
      <path class="st0 rotate360" d="M420.16,410.23l7.48-1.5l-1,1.83L420.16,410.23z"/>
      <path class="st0 rotate360" d="M439.96,401.91l4.16,3.83v-3.16L439.96,401.91z"/>
      <path class="st0 rotate360" d="M408.35,426.19l6.65-3.33l-1.16,4.66L408.35,426.19z"/>
      <path class="st0 rotate360" d="M420.16,416.05v3.33l5.99-1.66L420.16,416.05z"/>
      <path class="st0 rotate360" d="M404.53,408.73l1,1.83l2.83-1.16L404.53,408.73z"/>
      <path class="st0 rotate360" d="M429.98,423.87l5.66,2.66l1.33-6.99L429.98,423.87z"/>
      <path class="st0 rotate360" d="M358.39,359.53l-1.85,1.63h2.22L358.39,359.53z"/>
      <path class="st0 rotate360" d="M348.42,356.52l1.99,2.06v-1.81L348.42,356.52z"/>
      <path class="st0 rotate360" d="M354.18,356.7l3.25-1.72l0.52,1.38L354.18,356.7z"/>
      <path class="st0 rotate360" d="M351.67,371.75l3.92-4.47l0.44,1.89L351.67,371.75z"/>
      <path class="st0 rotate360" d="M361.12,357.47c0.3,0.26,2.44,2.24,2.44,2.24l0.89-2.24H361.12z"/>
      <path class="st0 rotate360" d="M358.39,365.3l0.81,3.01l1.11-3.01H358.39z"/>
      <path class="st0 rotate360" d="M344.21,362.46l3.77-0.95l-1.18,3.61L344.21,362.46z"/>
      <path class="st0 rotate360" d="M339.63,355.23l0.96,1.63l1.55-1.63H339.63z"/>
      <path class="st0 rotate360" d="M336.45,377.68l2.59,3.1l2.59-4.04L336.45,377.68z"/>
      <path class="st0 rotate360" d="M333.55,348.63l1.93,3.16l0.88-1.93L333.55,348.63z"/>
      <path class="st0 rotate360" d="M323.73,350.21c0.7,0.88,1.4,1.75,2.28,2.46l1.58-2.81L323.73,350.21z"/>
      <path class="st0 rotate360" d="M329.87,356.88c0.7,1.05,1.4,2.28,2.28,3.33v-4.56L329.87,356.88z"/>
      <path class="st0 rotate360" d="M340.91,347.93l0.53,3.86l1.93-3.86H340.91z"/>
      <path class="st0 rotate360" d="M335.66,354.6l0.7,2.46l0.7-2.46H335.66z"/>
      <path class="st0 rotate360" d="M339.7,361.62c0.18,0,2.11,0.53,2.11,0.53l-0.88-1.93L339.7,361.62z"/>
      <path class="st0 rotate360" d="M324.08,356l1.05,1.05l1.05-1.75L324.08,356z"/>
      <path class="st0 rotate360" d="M324.08,344.95l3.51,1.4l-0.88-1.75L324.08,344.95z"/>
      <path class="st0 rotate360" d="M108.38,329.16l-0.2-3.38l-4.81,1.02L108.38,329.16z"/>
      <path class="st0 rotate360" d="M97.03,333.96l2.25-3.17l2.45,2.25L97.03,333.96z"/>
      <path class="st0 rotate360" d="M100.92,351.76l-2.86,0.51l-0.2-2.56L100.92,351.76z"/>
      <path class="st0 rotate360" d="M90.79,326.8l-0.51,1.43l3.07-0.41L90.79,326.8z"/>
      <path class="st0 rotate360" d="M106.34,332.33v1.94l2.45-1.23L106.34,332.33z"/>
      <path class="st0 rotate360" d="M95.39,340.41l4.3-2.25l-0.41,1.13L95.39,340.41z"/>
      <path class="st0 rotate360" d="M85.68,331.61l0.31,1.74l3.68,0.92L85.68,331.61z"/>
      <path class="st0 rotate360" d="M104.5,343.27l3.68-1.13l-0.2,1.13H104.5z"/>
      <path class="st0 rotate360" d="M102.65,335.29v1.23l1.23-0.61L102.65,335.29z"/>
      <path class="st0 rotate360" d="M77.8,341.33c0.2-0.2,2.05-3.17,2.05-3.17l2.45,3.89L77.8,341.33z"/>
      <path class="st0 rotate360" d="M429.69,472.17l1.9,3.58l-8.85-2.74L429.69,472.17z"/>
      <path class="st0 rotate360" d="M405.67,469.85l1.05,1.69l3.79-2.74L405.67,469.85z"/>
      <path class="st0 rotate360" d="M413.89,474.91l-1.05,2.11l2.32-0.42L413.89,474.91z"/>
      <path class="st0 rotate360" d="M359.76,472.8l0.63,2.32l1.69-1.9L359.76,472.8z"/>
      <path class="st0 rotate360" d="M373.24,460.58l-1.05,2.11l2.32-0.42L373.24,460.58z"/>
      <path class="st0 rotate360" d="M418.31,466.69l-1.47,3.16l5.27,1.26L418.31,466.69z"/>
      <path class="st0 rotate360" d="M415.15,459.53l1.47,2.11l2.53-2.11H415.15z"/>
      <path class="st0 rotate360" d="M421.89,480.38h4.63l-3.79-3.37L421.89,480.38z"/>
      <path class="st0 rotate360" d="M382.71,472.59l4,0.84l2.32-2.53L382.71,472.59z"/>
      <path class="st0 rotate360" d="M428,465.64h4.21l0.84,1.69L428,465.64z"/>
      <path class="st0 rotate360" d="M391.98,457.42l1.26,2.11h2.53L391.98,457.42z"/>
      <path class="st0 rotate360" d="M397.46,482.7l1.47,1.47l1.69-2.74L397.46,482.7z"/>
      <path class="st0 rotate360" d="M136.13,366.11l10.81,13.81l-13.64-7.65L136.13,366.11z"/>
      <path class="st0 rotate360" d="M105.19,388.4l-17.63,1.33l13.97-6.99L105.19,388.4z"/>
      <path class="st0 rotate360" d="M148.93,416.51l-2.99,10.31l-1-9.48L148.93,416.51z"/>
      <path class="st0 rotate360" d="M126.65,386.07l8.98-2.49l-0.83,5.16L126.65,386.07z"/>
      <path class="st0 rotate360" d="M89.22,365.78l8.15,4.49l-4.16,3.16L89.22,365.78z"/>
      <path class="st0 rotate360" d="M121.32,374.59l1.83,2.49l5.32-4.49L121.32,374.59z"/>
      <path class="st0 rotate360" d="M115,400.04l8.82,4.66l-9.81-2.33L115,400.04z"/>
      <path class="st0 rotate360" d="M112.67,351.97l-8.32,5.49l6.65-7.48L112.67,351.97z"/>
      <path class="st0 rotate360" d="M385.23,397.42l-5.82-4.32l6.15,1.83L385.23,397.42z"/>
      <path class="st0 rotate360" d="M378.75,386.77l4.82-0.67l-4.82-6.65V386.77z"/>
      <path class="st0 rotate360" d="M352.97,414.55l5.16-2l-4.66-0.83L352.97,414.55z"/>
      <path class="st0 rotate360" d="M354.13,424.86l2.66-7.98l3.16,8.32L354.13,424.86z"/>
      <path class="st0 rotate360" d="M412.18,384.11h5.66l-4.66-2L412.18,384.11z"/>
      <path class="st0 rotate360" d="M366.94,385.44l3.49,1.83v-3.66L366.94,385.44z"/>
      <path class="st0 rotate360" d="M391.06,390.77l-3.16,1.66l4.66,0.5L391.06,390.77z"/>
      <path class="st0 rotate360" d="M370.26,394.43l4.49,2.83l-3.16-4.16L370.26,394.43z"/>
    </g>
    <g>
      <path class="st0 formula1-car" d="M196.02,393.77c-3.78,0-7.76-0.01-11.74,0.01c-0.54,0-1.09,0.13-1.77,0.23
        C185.35,397.44,193.52,397.01,196.02,393.77z M179.01,405.27c-2.8,4.02-4.39,8.45-4.25,14.03c1.29-0.7,2.2-1.14,3.04-1.68
        c1.97-1.26,3.85-2.68,5.87-3.83c2.57-1.46,2.79-2.81,0.32-4.45c-1.41-0.93-2.54-1.74-2.03-3.7c0.1-0.38-0.44-0.93-0.72-1.42
        C180.47,404.55,179.42,404.68,179.01,405.27z M203.46,362.06c-0.73-0.31-1.47-0.62-2.18-0.92c0.07-0.9,0.13-1.66,0.18-2.3
        c-1.74,1.21-3.34,2.34-5.32,3.71h7.22C203.4,362.39,203.43,362.23,203.46,362.06z M258.95,431.78c-0.93-6.79-1.94-14.18-2.7-19.74
        C255.05,417.83,255.72,425.27,258.95,431.78z M190.36,374.32c0.01,5.69,0.48,11.63-4.49,16.97c3.12,0,5.15-0.03,7.18,0.01
        c1.75,0.04,2.25-0.88,2.57-2.5c0.54-2.76,1.46-5.45,2.34-8.63c0.76,0.97,1.17,1.49,1.92,2.45c0.78-2.93,1.42-5.33,2.26-8.46
        c-5,5.53-5.72,5.37-8.66-1.87c1.09,1.42,1.57,2.53,2.4,2.98c0.83,0.45,2.5,0.7,2.95,0.22c2.14-2.22,4.43-4.35,4.53-7.92
        c0.07-2.81-0.21-3.37-2.99-2.85c-5.54,1.03-5.54,1.03-7.98-3.8c-2.64,6.7-4.05,14.1-12.5,17.03h4.29c0.13,0.25,0.26,0.5,0.38,0.75
        c-2.29,1.1-4.58,2.2-7.16,3.44c-0.18-0.3-0.53-0.89-1.36-2.29c-0.68,4.64-1.23,8.44-1.87,12.78c3-0.54,5.26-0.95,7.61-1.38
        C183.38,384.96,183.43,377.96,190.36,374.32z M438.65,505.08c-3.68-0.35-7.06,0.3-9.8,3c0.09,0.31,0.18,0.61,0.27,0.92l9.78-2.96
        C438.82,505.72,438.74,505.4,438.65,505.08z M396.33,525.87c0.5-4.25-1.58-6.33-6.17-3.88c-1.59,0.85-3.14,1.81-4.92,2.84
        C389.03,525.18,392.6,525.52,396.33,525.87z M380.76,525.28c0.55-0.18,1.06-0.47,1.98-0.88c-1.67-1.55-3.23-2.92-4.68-4.4
        c-0.37-0.38-0.42-1.08-0.57-1.65c-0.42-1.57-0.6-3.24-1.25-4.71c-2.16-4.83-4.48-9.59-6.74-14.37c-0.26,0.09-0.51,0.18-0.77,0.27
        c2.17,7.64,4.29,15.3,6.54,22.92C376.41,526.26,377.06,526.5,380.76,525.28z M206.82,402.01c-2.02-0.46-4.86-0.33-6.33-1.68
        c-1.45-1.34-1.52-4.19-2.2-6.37c-0.32,4.04-3.51,3.91-6.17,3.81c-3.1-0.11-6.17-1-9.27-1.33c-1.21-0.13-2.49,0.34-4.11,0.6
        c0.01,0.02,0.02,0.03,0.03,0.05c-0.07-0.12-0.24-0.4-0.48-0.79c0.31,3.14-0.37,6.26,2.92,7.87c0.01,0.02,0.02,0.03,0.03,0.05
        c0.01,0,0.02-0.01,0.03-0.01c0,0-0.08-0.05-0.08-0.05c2.96,0.2,6.53-0.61,7.86,3.07c0.64,1.77,0.11,3.96,0.11,6.3
        c0.36,0.3,1.13,0.93,2.3,1.9c-1.78,0.46-2.93,0.75-4.68,1.21c1.16,0.97,1.81,1.94,2.59,2.08c2.6,0.45,3.13,2.25,3.49,4.4
        c0.39,2.37,1.81,3.77,4.19,4.39c2.55,0.66,5.02,1.64,7.56,2.35c1.11,0.31,2.31,0.28,3.46,0.41c0.1-0.43,0.19-0.87,0.29-1.3
        c-3.15-1.05-6.24-2.34-9.45-3.1c-3.74-0.89-4.31-1.4-3.85-5.36c4.57,0,9.27,0.63,13.7-0.17c5.12-0.92,10.02-3.11,15.02-4.75
        c-2.47,2.23-3.03,5.08-1,5.64c4.03,1.12,8.19,1.89,12.34,2.36c1.35,0.15,2.86-1.09,4.88-1.94c-5.36-3.13-9.64-6.58-15.39-6.66
        c3.02-3.89,7.2-5.6,11.9-6.38c0.76-0.13,1.48-0.51,2.22-0.79c7.18-2.72,14.32-5.55,21.55-8.15c9.12-3.27,18.43-3.77,27.38,0.21
        c7.16,3.18,6.82,1.69,6.15,9.48c-0.14,1.61-0.1,3.47,0.56,4.88c2.66,5.7,5.57,11.27,8.46,16.86c0.22,0.42,0.95,0.57,1.44,0.85
        c-0.52-2.04-1.39-3.68-2.51-5.13c-5.13-6.6-5.81-14.23-5.34-22.42c8.62,4.64,16.33,10.18,22.73,17.37
        c2.16,2.42,4.47,3.5,7.64,3.54c4.23,0.05,8.46,0.43,12.68,0.67c-3.54-3.23-4.24-7.36-5.01-11.59c-0.52-2.88-1.46-5.76-2.67-8.43
        c-2.3-5.08-5.47-9.21-12.01-8.32c-0.19,0.03-0.39-0.02-0.59-0.03c-2.57-0.12-5.04-0.38-5.28-3.84c-3.63,0.43-7.04,1.12-10.46,1.14
        c-2.8,0.01-6.45,1.47-7.83-2.87c-0.1-0.31-0.95-0.39-1.62-0.63c-0.1,0.82-0.15,1.4-0.23,1.97c-0.19,1.32,0.65,2.93-1.53,3.6
        c-2.07,0.64-2.92-0.65-4.26-1.68c-4.26-3.27-8.65-6.38-13.13-9.35c-2.09-1.39-4.72-2-6.71-3.49c-1.7-1.27-2.73-3.42-4.3-4.93
        c-0.67-0.64-1.98-0.95-2.93-0.84c-0.5,0.06-1.28,1.37-1.22,2.05c0.29,3.29-1.9,4.23-4.35,4.44c-2.93,0.25-2.29-2.44-2.59-4.06
        c-0.77-4.15-0.88-4.34-4.98-4.27c0.13-0.59,0.22-1.15,0.37-1.69c0.96-3.62-2.72-9.35-6.66-11.03c-3.39-1.44-6.73-1.53-10.09-1.13
        c2.78-0.48,5.64-0.98,8.78-1.53c-1.59-3.55-2.93-7.73-5.21-11.3c-2.62-4.09-7.34-5.79-11.83-6.51c-3.99-0.64-6.54,2.29-8.99,5.61
        c-5.1,6.91-6.64,14.57-6.58,22.8c0.03,4.32,0.6,8.65,0.48,12.96C207.84,389.17,207.26,395.3,206.82,402.01z M238.16,368.15
        c1.37-0.02,2.75-0.07,4.12,0.01c2.1,0.12,2.85,1.72,2.31,3.28c-0.49,1.42-1.2,3.12-3.74,2.69c-2.23-0.38-4.63,0.21-6.95,0.38
        C230.08,368.39,232.61,368.23,238.16,368.15z M217.02,371.07c0.99-4.36,5.56-8.54,10.42-9.38c-1.37,1.03-2.82,1.97-4.06,3.14
        c-2.82,2.67-2.78,5.42-0.04,8.15c1.76,1.75,5.44,2.1,7.89,1.07c0.69-0.29,1.75,0.29,2.64,0.5c0.19,0.41,0.4,0.85,1.04,2.23
        c-5.96-0.99-11.2-1.8-16.41-2.77C217.02,373.73,216.67,372.61,217.02,371.07z M216.44,374.51c0.18-0.02,0.37-0.04,0.55-0.06v8.28
        c-0.18,0.05-0.37,0.1-0.55,0.15V374.51z M308.36,438.66c-2.43-2.11-5.91-1.46-6.4,1.68c-0.38,2.43-0.44,5.33,0.55,7.46
        c3.44,7.34,7.15,14.59,11.25,21.59c4.82,8.23,9.48,16.7,15.43,24.08c8.88,11.01,18.82,21.16,28.35,31.65
        c0.56,0.61,1.42,1.35,2.13,1.34c3.61-0.04,7.23-0.3,11.51-0.52c-0.86-1.79-1.41-2.92-1.94-4.06
        c-7.76-16.83-19.02-31.44-29.53-46.53C330.48,462.1,320.64,449.34,308.36,438.66z M521.81,475.7c11.54,8.92,23,17.96,34.51,26.94
        c4.09,3.19,8.22,6.34,12.97,10c1.33-4.74,2.55-8.84,3.63-12.98c3.55-13.62,3.78-27.51,2.23-41.33
        c-0.99-8.81-2.28-17.58-5.49-26.16c-3.55-9.5-7.54-18.55-13.8-26.49c-3.74-4.75-8.31-8.41-14.85-8.56
        c-5.22-0.12-10.44-0.47-15.66-0.59c-13.68-0.33-27.37,1.89-41.05-0.39c-2.49-0.41-4.86,0.34-6.87,2.53
        c-2.65,2.88-6.01,5.09-8.81,7.84c-3.35,3.29-7.32,6.39-9.43,10.41c-1.94,3.71-3.38,7.74-4.57,11.83l2.17-1.08l-1.16,4.66
        l-1.88-0.45c-0.25,0.95-0.5,1.89-0.73,2.83c-2.38,9.5-2.12,9.55-12.01,9.71c-25.45,0.42-50.9,0.79-76.34,1.33
        c-5.43,0.11-10.45-0.18-13.56-5.5c-0.14-0.25-0.38-0.55-0.63-0.61c-1.03-0.25-2.13-0.73-3.1-0.56c-3.29,0.59-6.54,1.42-9.78,2.15
        c3.4,5.17,7.18,10.94,10.59,16.14c1.81-0.74,3.01-1.62,4.24-1.68c14.96-0.73,29.94-1.32,44.9-1.98
        c5.51-0.24,11.02-0.57,16.54-0.83c11.12-0.52,22.23-1.01,33.35-1.52c1.89-0.09,3.07,0.1,3,2.67c-0.41,14.83-0.55,29.66,3.28,44.72
        c3.89-3.88,6.63-7.69,5.13-13.58h17.41c3.05,4.01,7.63,4.88,12.15,5.9c6.75,1.53,11.94,5.48,15.99,10.87
        c1.94,2.58,0.03,5.79-3.19,5.7c-11.67-0.32-22.97,1.89-34.09,5.09c-2.9,0.83-5.55,2.5-8.32,3.78c0.12,0.32,0.24,0.65,0.36,0.97
        h12.53c0.18-1.25,0.29-2.04,0.4-2.82c1.47,0.81,2.7,2.04,3.97,2.08c3.73,0.11,7.48-0.34,11.23-0.42
        c4.71-0.09,9.43-0.02,14.15-0.02c-1.09,0.55-2.23,0.92-3.38,0.99c-9.15,0.61-18.3,1.23-27.45,1.73
        c-15.26,0.84-30.53,1.5-45.79,2.43c-6.88,0.42-13.74,1.28-20.59,2.05c-0.76,0.09-1.79,0.78-2.05,1.44
        c-0.19,0.49,0.55,1.91,1.07,2.02c3.64,0.82,7.35,2.04,11,1.93c8.46-0.24,16.9-1.22,25.36-1.79c11.58-0.78,23.17-1.55,34.76-2.16
        c10.73-0.56,21.47-0.93,32.2-1.33c1.49-0.06,2.99,0.2,4.49,0.32c0.04,0.38,0.08,0.75,0.13,1.13c-2.31,0.54-4.59,1.39-6.92,1.56
        c-11.11,0.83-22.23,1.56-33.36,2.15c-14.67,0.78-29.35,1.41-44.03,2.03c-1.89,0.08-3.8-0.22-5.71-0.34
        c-0.04,0.29-0.08,0.59-0.12,0.88c4.76,0.85,9.52,1.7,13.81,2.47c0.17-0.09-0.22,0.11-0.61,0.32c5.28,3.23,10.11-1.2,15.21-0.74
        c5.13,0.46,10.28,0.75,15.41,1.11c0,0.16,0,0.31,0,0.47c-2.73,0.36-5.45,0.73-8.18,1.09c0.33,0.37,0.61,0.47,0.9,0.47
        c18.23-0.56,36.47-1.08,54.7-1.71c17.84-0.61,35.67-1.37,53.51-1.96c2.07-0.07,3.31-0.51,3.82-2.69c0.47-2,1.13-4,1.98-5.87
        c1.38-3.04,0.73-5.14-1.95-7.24c-16.76-13.13-33.43-26.4-50.11-39.64c-1.56-1.24-3.01-2.6-4.52-3.9c0.19-0.29,0.37-0.58,0.56-0.86
        C518.02,472.34,519.92,474.24,521.81,475.7z M477.58,407.9l-2.99,3.49l-2.16-3.49H477.58z M461.94,424.2v-3.33l5.99,1.66
        L461.94,424.2z M468.43,415.38l-6.49-0.33l7.48-1.5L468.43,415.38z M471.76,428.69l6.99-4.32l-1.33,6.99L471.76,428.69z
        M476.07,485.18c5.29-1.33,6.24-1.02,8.22,3.34C481.55,487.41,478.81,486.3,476.07,485.18z M485.9,410.56l-4.16-3.83l4.16,0.67
        V410.56z M537.47,521.87c-1.26,0.19-2.55,0.39-4.18,0.64c-0.41-2.38-0.79-4.55-1.2-6.9C536.69,514.47,537.19,515.09,537.47,521.87
        z M245.63,545.64c19.76-1.32,39.64-1.64,59.03-6.4c1.31-0.32,3.12-0.33,3.79-1.2c1.49-1.93,3.3-1.77,5.23-1.72
        c0.77,0.02,1.59,0.29,2.31,0.13c7.31-1.59,14.63-3.13,21.9-4.91c3.96-0.97,7.82-2.38,12.09-3.71c-0.93-1.15-1.49-1.95-2.16-2.64
        c-6.31-6.52-12.55-13.11-19-19.49c-3.42-3.39-7.2-6.42-10.85-9.57c-1.48-1.28-3.26-2.28-4.53-3.74
        c-10.24-11.74-20.4-23.55-30.56-35.36c-1.36-1.58-2.56-3.15-5.03-3.12c-0.81,0.01-1.81-1.04-2.43-1.83
        c-3.31-4.23-5.43-9.01-5.84-14.47c-1.34,1.38-2.29,3.06-3.69,3.67c-6.51,2.82-13.07,5.6-19.79,7.83c-2.38,0.79-5.4,0.35-7.95-0.28
        c-1.77-0.43-3.12-1.41-4.75,0.22c-0.46,0.46-1.47,0.47-2.24,0.52c-9.94,0.63-19.87,1.34-29.82,1.77
        c-3.36,0.14-7.16,1.45-9.83-2.11c-0.23-0.31-0.86-0.37-1.32-0.44c-1.72-0.29-3.54-0.27-5.16-0.84
        c-8.27-2.93-16.81-3.22-25.42-2.79c-0.99,0.05-2.43,0.72-2.77,1.49c-0.31,0.7,0.59,1.94,0.94,2.91c-0.08,0-0.57,0.01-1.06,0
        c-11.81-0.27-23.55-2.66-35.41-1c-2.01,0.28-2.4-0.9-2.69-2.59c-1.07-6.01-2.27-12-3.49-17.98c-0.21-1.02-0.74-1.98-1.13-2.97
        c-0.15,0.06-0.29,0.13-0.44,0.19l0.94,8.42c-0.36,0.08-0.72,0.16-1.07,0.24c-0.38-0.94-0.84-1.85-1.14-2.81
        c-1.42-4.61-2.62-9.3-4.23-13.85c-0.43-1.21-1.04-2.21-1.77-3.06l-7.4-1.76l0.59-1.38c-0.45-0.03-0.89-0.06-1.36-0.05
        c-2.97,0.07-5.94,0.08-8.92,0.09l0.75,1.17l-17.63,1.33l4.86-2.43c-0.89,0.01-1.78,0.01-2.66,0.03
        c-5.59,0.11-11.17,0.25-16.76,0.43l7.02,3.87l-4.16,3.16l-3.65-7c-4.08,0.14-8.17,0.3-12.25,0.52c-1.71,0.09-4.35,1.27-4.83,2.58
        c-1.46,4.02-2.54,8.32-2.9,12.58c-0.49,5.77-0.15,11.62-0.25,17.43c-0.02,1.47-0.36,2.93-0.55,4.39c-0.3-0.01-0.6-0.02-0.9-0.03
        c-0.2-1.11-0.41-2.22-0.61-3.34c-0.87-4.95-1.68-9.91-2.66-14.84c-0.2-1.01-1.04-1.89-1.59-2.83c-0.28,0.13-0.56,0.26-0.84,0.39
        c-0.11,0.95-0.29,1.9-0.32,2.86c-0.25,8.27-0.89,16.55-0.62,24.8c0.81,24.73,1.82,49.46,3.09,74.18
        c0.51,9.88,0.66,19.91,5.55,29.05c4.65,8.71,10.95,14.97,21.47,15.27c10.84,0.31,21.7,0.94,32.51,0.54
        c8.04-0.3,15.24-3.6,19.59-10.94c3.63-6.11,6.23-12.62,6.68-19.91c0.29-4.75,1.25-9.46,2.06-15.25c2.25,1.33,4.59,1.9,5.39,3.34
        c2.64,4.7,2.02,10.08,2.19,15.26c0.01,0.26-0.08,0.59-0.24,0.78c-1.85,2.19-1.87,3.05,0.25,4.84
        c12.89,10.85,25.81,21.68,38.74,32.5c0.38,0.32,0.91,0.47,1.3,0.66c0-4.91,0.05-9.63-0.01-14.35c-0.11-9-0.51-18.07-3.92-26.47
        c-7.34-18.07-15.2-35.93-22.63-53.96c-0.99-2.39-1.25-5.4-0.84-7.96c0.48-3.04,2.1-5.9,3.11-8.87c0.53-1.56,1.26-3.26,1.07-4.8
        c-0.28-2.32-1.29-4.55-2.04-6.97c1.6-0.51,3.15-1.02,5.18,1.17c3.18,3.44,2.61,6.88,0.96,10.26c-3.55,7.27-4.5,14.24-0.21,21.66
        c1.44,2.49,2.58,3.55,5.5,3.37c12-0.74,24.01-1.27,36.03-1.71c1.63-0.06,3.63,0.41,4.87,1.38c6.17,4.81,13.27,7.85,20.49,10.36
        c17.55,6.09,35.84,8.54,54.3,9.5c15.93,0.83,31.9,0.97,47.85,1.56c1.28,0.05,2.69,0.99,3.73,1.88c1.09,0.94,1.8,2.32,3.01,3.95
        c-0.49,0.31-1.23,1.06-2.1,1.25c-1.33,0.29-2.75,0.21-4.13,0.24c-4.73,0.1-4.72,0.09-4.57,4.64c0.02,0.57-0.12,1.14-0.18,1.66
        c-4.79,1.08-4.79,1.07-5.38-3.49c-0.1-0.78-0.16-1.6-0.44-2.32c-0.34-0.86-0.82-2.22-1.38-2.3c-0.88-0.12-1.89,0.63-2.82,1.07
        c-1.42,0.66-2.79,1.88-4.24,1.96c-9.75,0.54-19.51,0.79-29.26,1.22c-27,1.21-54,2.47-80.99,3.71c-6.21,0.29-12.42,0.53-18.62,0.95
        c-1.05,0.07-2.04,1-3.06,1.54c0.92,1.56,1.49,3.84,2.84,4.49c1.55,0.75,3.79,0.04,5.73-0.03c-0.09-1.34-0.2-2.69-0.28-4.03
        c-0.01-0.18,0.08-0.37,0.19-0.86c4.04,0,8.03-0.41,11.92,1.92c2.07,1.24,4.8,1.83,7.25,1.86c5.4,0.07,10.81-0.39,16.21-0.66
        c25.6-1.27,51.2-2.56,76.8-3.79c1.76-0.08,3.54,0.23,5.32,0.36c0,0.44,0.01,0.87,0.01,1.31c-3.05,0.61-6.08,1.57-9.16,1.78
        c-19.38,1.31-38.77,2.56-58.17,3.61c-17.53,0.96-35.07,1.67-52.61,2.42c-2.61,0.11-3.16,1.02-2.42,3.48
        c0.68,2.25,2.17,1.84,3.73,1.74C197.79,548.66,221.71,547.23,245.63,545.64z M35.38,537.02c-0.51-3.5-1.03-7.01-1.62-11.02
        C37.28,528.2,38.1,533.27,35.38,537.02z M90.22,419.13l1.5-2.66l4.66,5.66L90.22,419.13z M251.48,450.42
        c4.77-2.07,9.13-3.98,13.52-5.83c0.36-0.15,1.09-0.03,1.33,0.24c2.36,2.71,4.64,5.49,7.25,8.59
        C268.26,454.87,265.24,454.42,251.48,450.42z M290.68,473.34c4.65,4.62,9.29,9.23,13.94,13.85c-0.11,0.11-0.22,0.22-0.33,0.33
        c-4.68-4.63-9.35-9.26-14.03-13.89C290.4,473.53,290.54,473.43,290.68,473.34z M290.66,480.09c0.15,0.4,0.31,0.79,0.46,1.19
        c-0.28,0.2-0.57,0.39-0.85,0.59c-2.81-3.49-5.61-6.97-8.42-10.46c0.25-0.21,0.49-0.41,0.74-0.62c2.28,2.67,4.56,5.34,6.84,8.01
        c-1.59-2.47-3.18-4.94-4.77-7.41c0.2-0.18,0.4-0.37,0.6-0.55c2.36,2.4,4.8,4.74,7.06,7.23c2.38,2.62,4.54,5.44,6.89,8.09
        c2.34,2.64,4.79,5.18,7.03,7.95C299.83,490.81,295.51,485.15,290.66,480.09z M312.22,497.19c-2.72-2.81-5.43-5.62-8.15-8.43
        l0.23-0.25c2.84,2.66,5.69,5.33,8.53,7.99C312.63,496.73,312.42,496.96,312.22,497.19z M198.44,538.86
        c-3.34-0.97-6.69-1.93-10.49-3.03c5.16-1.88,8.43-1.2,10.77,1.96C198.62,538.14,198.53,538.5,198.44,538.86z M551.56,535.66
        c-23.94,0.93-47.91,1.46-71.82,2.94c-20.97,1.3-41.63,0.61-61.7-6.03c-17.74-5.87-35.83-4.31-53.92-3.25
        c-4.31,0.25-8.71,0.75-12.83,1.95c-9.45,2.76-18.72,6.16-28.13,9.06c-8.74,2.7-17.43,5.96-26.4,7.41
        c-11.54,1.86-23.34,2.22-35.03,3.12c-27.72,2.13-55.45,4.18-83.18,6.31c-6.16,0.47-6.16,0.55-5.51,6.73
        c0.02,0.17,0.18,0.32,0.22,0.38c3.19,0,6.32,0.18,9.42-0.03c15.13-1.02,30.26-2.14,45.38-3.25c18.08-1.33,36.16-2.83,54.25-3.98
        c9.3-0.59,18.16-2.09,26.77-6.13c19.01-8.91,39.19-13.41,60.2-13.97c5.42-0.14,10.85-0.17,16.27-0.07
        c11.64,0.23,23.23,0.82,34.06,5.84c0.94,0.44,2.1,0.54,3.16,0.55c28.89,0.44,57.74-0.5,86.55-2.66c1.27-0.1,2.71,0.31,3.88,0.87
        c3.01,1.44,5.76,3.57,8.88,4.59c13.04,4.28,25.02,0.56,34.03-10.39C554.47,535.66,553.01,535.61,551.56,535.66z M174.33,579.16
        c-0.27,0.16-0.55,0.33-0.82,0.5c0,1.91-0.13,3.84,0.08,5.73c0.06,0.56,1.14,1.53,1.58,1.44c1.24-0.25,2.98-0.67,3.4-1.55
        c0.44-0.92-0.1-2.71-0.81-3.67C176.97,580.53,175.5,579.95,174.33,579.16z M160.69,408.22c4.04-2.57,2.55-5.78,1.58-9.46
        C159.2,401.82,160.96,405.04,160.69,408.22z M400.98,514.51c0.14-4.55,1.18-6,5.15-6.62c2.49-0.39,5.1-0.46,7.61-0.22
        c3.92,0.38,7.79,1.16,12.37,1.88c-2.85-1.64-5.07-2.92-6.53-3.76c-1.98,0.15-3.53,0.52-5.01,0.33
        c-6.22-0.81-12.64-3.24-17.55,3.04c-1.28-1.38-2.25-2.64-3.44-3.64c-1.19-0.99-2.61-1.7-3.94-2.53c-0.93,1.78-1.99,3.51-2.72,5.37
        c-0.33,0.84,0.03,1.94,0.05,2.92c0.02,1.6,0,3.2,0,5.12C391.74,515.75,396.29,515.14,400.98,514.51z"/>
    </g>
  </svg>