<svg xmlns="http://www.w3.org/2000/svg" viewBox="0 0 73.36 73.36"><defs><style>.cls-1{isolation:isolate;}.cls-2{fill:#2a2a2a;}.cls-3{fill:#131313;}.cls-4{fill:#d1d3d4;mix-blend-mode:multiply;}.cls-5{font-size:10.59px;}.cls-5,.cls-6,.cls-7{fill:#fff;}.cls-5,.cls-6{font-family:SFSportsNightNSUpright, SF Sports Night NS Upright;}.cls-6{font-size:24.72px;}</style></defs><title>gcoin-icon</title><g class="cls-1"><g id="Layer_2" data-name="Layer 2"><g id="Layer_1-2" data-name="Layer 1"><circle class="cls-2" cx="36.68" cy="36.68" r="36.68"/><circle class="cls-3" cx="36.68" cy="36.68" r="28.74"/><path class="cls-3" d="M63.13,25.42c.2.45.38.9.54,1.36l7.35-3c-.17-.45-.35-.91-.54-1.36Z"/><path class="cls-3" d="M52.29,12.54c.41.27.81.54,1.21.83l4.43-6.59c-.39-.28-.8-.56-1.21-.82Z"/><path class="cls-3" d="M60.32,20.33q.42.6.81,1.23l6.6-4.42c-.26-.41-.53-.82-.81-1.22Z"/><path class="cls-3" d="M41.61,8.36c.49.08,1,.18,1.44.29L44.59.86c-.47-.11-1-.2-1.43-.29Z"/><path class="cls-3" d="M47.24,9.94q.69.27,1.35.57l3.07-7.32q-.66-.3-1.35-.57Z"/><path class="cls-3" d="M25,10.41l1.36-.56-3-7.35c-.46.18-.91.37-1.36.57Z"/><path class="cls-3" d="M36,0V8h1.46V0H36Z"/><path class="cls-3" d="M30.38,8.63c.48-.11,1-.2,1.44-.28L30.3.55c-.48.09-1,.18-1.44.29Z"/><path class="cls-3" d="M57.34,56.66c-.34.35-.69.7-1,1l5.61,5.62c.36-.34.7-.69,1-1Z"/><path class="cls-3" d="M16,56.66l-5.61,5.61,1,1,5.62-5.62C16.71,57.36,16.36,57,16,56.66Z"/><path class="cls-3" d="M19.93,13.32c.39-.28.8-.56,1.21-.82L16.72,5.9l-1.21.82Z"/><path class="cls-3" d="M65.42,36.68c0,.37,0,.73,0,1.09h7.94c0-.36,0-.72,0-1.09v-.37H65.42Z"/><path class="cls-3" d="M72.61,29.27l-7.79,1.52c.1.48.19,1,.26,1.45l7.8-1.53Q72.76,30,72.61,29.27Z"/><path class="cls-3" d="M57.69,17.07l5.62-5.62-1-1L56.66,16C57,16.36,57.36,16.71,57.69,17.07Z"/><path class="cls-3" d="M7.94,36.68v-.37H0v.37c0,.37,0,.73,0,1.09H8C8,37.41,7.94,37.05,7.94,36.68Z"/><path class="cls-3" d="M15.67,17.07c.34-.36.68-.71,1-1.05l-5.61-5.61c-.35.34-.7.69-1,1Z"/><path class="cls-3" d="M63.35,47.42c-.18.46-.38.9-.58,1.35l7.32,3.07c.2-.45.4-.9.58-1.35Z"/><path class="cls-3" d="M42.84,64.76c-.47.1-1,.2-1.44.28l1.53,7.79c.48-.08,1-.18,1.44-.28Z"/><path class="cls-3" d="M48.12,63.06l-1.36.55,3,7.34c.46-.17.91-.35,1.36-.55Z"/><path class="cls-3" d="M37.41,73.35V65.42H36v7.93h1.46Z"/><path class="cls-3" d="M60.77,52.37c-.27.41-.55.81-.83,1.21L66.52,58c.29-.4.56-.8.83-1.21Z"/><path class="cls-3" d="M65,41.89q-.14.72-.3,1.44l7.79,1.54c.11-.48.21-.95.3-1.44Z"/><path class="cls-3" d="M53.11,60.27c-.4.28-.81.55-1.22.81l4.41,6.59c.42-.26.82-.53,1.23-.81Z"/><path class="cls-3" d="M31.88,65c-.48-.08-1-.17-1.43-.28L28.9,72.53c.48.11,1,.2,1.44.28Z"/><path class="cls-3" d="M13.38,53.51c-.28-.39-.56-.79-.83-1.2L6,56.72c.26.41.54.82.82,1.21Z"/><path class="cls-3" d="M8.29,32.16q.12-.72.27-1.44L.77,29.18c-.1.47-.19,1-.27,1.44Z"/><path class="cls-3" d="M26.38,63.52c-.46-.18-.91-.36-1.36-.56L22,70.28q.68.3,1.35.57Z"/><path class="cls-3" d="M8.69,43.25c-.11-.47-.21-1-.3-1.43L.6,43.34c.09.48.19,1,.3,1.43Z"/><path class="cls-3" d="M9.77,26.55c.18-.45.36-.91.56-1.35L3,22.13c-.19.44-.38.9-.55,1.35Z"/><path class="cls-3" d="M21.41,61c-.41-.26-.82-.54-1.22-.82l-4.43,6.59c.4.28.8.55,1.22.81Z"/><path class="cls-3" d="M10.49,48.55q-.3-.67-.57-1.35l-7.35,3,.57,1.35Z"/><path class="cls-3" d="M12.28,21.49c.25-.41.52-.82.8-1.22L6.5,15.84c-.28.4-.55.8-.81,1.22Z"/><path class="cls-4" d="M36.68,6a29.71,29.71,0,1,0,0,59.41A28.74,28.74,0,1,1,65.42,36.68,28.74,28.74,0,0,1,36.68,65.42,29.71,29.71,0,1,0,36.68,6Z"/><path class="cls-4" d="M36.68,71A36.68,36.68,0,0,1,0,35.48c0,.4,0,.8,0,1.2a36.68,36.68,0,0,0,73.36,0c0-.4,0-.8,0-1.2A36.67,36.67,0,0,1,36.68,71Z"/><text class="cls-5" transform="translate(18.1 31.65)">GCOINS</text><text class="cls-6" transform="translate(17.04 50.22)">GIC</text><path class="cls-7" d="M60.06,2l1.16,3.76a3.7,3.7,0,0,0,2.46,2.46l3.75,1.16a.34.34,0,0,1,0,.65l-3.75,1.16a3.7,3.7,0,0,0-2.46,2.46l-1.16,3.75a.34.34,0,0,1-.65,0l-1.16-3.75a3.7,3.7,0,0,0-2.46-2.46L52,10a.34.34,0,0,1,0-.65l3.76-1.16a3.7,3.7,0,0,0,2.46-2.46L59.41,2A.34.34,0,0,1,60.06,2Z"/><path class="cls-7" d="M9,33.36l1,3.41A3.38,3.38,0,0,0,12.24,39l3.41,1a.31.31,0,0,1,0,.59l-3.41,1A3.36,3.36,0,0,0,10,43.92L9,47.33a.31.31,0,0,1-.59,0l-1-3.41a3.36,3.36,0,0,0-2.23-2.23l-3.41-1a.31.31,0,0,1,0-.59l3.41-1a3.38,3.38,0,0,0,2.23-2.23l1-3.41A.31.31,0,0,1,9,33.36Z"/></g></g></g></svg>