<?xml version="1.0" encoding="utf-8"?>
<!-- Generator: Adobe Illustrator 22.0.0, SVG Export Plug-In . SVG Version: 6.00 Build 0)  -->
<svg version="1.1" id="Layer_1" xmlns="http://www.w3.org/2000/svg" xmlns:xlink="http://www.w3.org/1999/xlink" x="0px" y="0px"
	 viewBox="0 0 192 142" style="enable-background:new 0 0 192 142;" xml:space="preserve">
<style type="text/css">
	.st0{fill:#2A2A2A;}
</style>
<path id="player-base" class="st0" d="M180.1,59l-8.3,6.1c0,0-7.9,1-8.3,1s-9.5,5.3-9.5,5.3l-3.2-0.4l-2.8-4l-1.4-2.9l-11.2-0.4
	l-9,1.4l-13-4.1l-21.5,9l0.3,5.7h-0.6l-3.7,0.1c-0.3,0,5.3,9.2,6.4,10.9l0.1,0.1l0.1,0.1l-2,5.1l4.9,20.8l-2,6.3l-7.5,3.1l-26.7,0.9
	L48,126l0.1,2.2l-7.5,6.3l-3.2,6.4l-2.2,0.6l-0.9-10.9l2.9-7.7c0,0,2-10.1,2.3-10.7s4.2,1.2,4.2,1.2l3.5-0.6l2,1.9l9.7-0.8l12.6-4.1
	l10.2,1.2l-4.8-5.6l-1.1-1.4L68,88.3l-4.9-5.5L60,63.5l1.8-7.1l-2.2-5.1l7.9-18.5l-5.9-1.1l-7.5,1.6L52.6,32l-23.7,9l-2.4,5.5
	l-5.3,1.6l-2.3,2l-2.2-9.4l4.4-3.9l3.2-0.5l25.1-11.6l0.8-3.1l9.8-1.2l20.6-6.8l8.3,2.7l-1.5-7.5l1.8-5.2l6.3-3.1h6.3l5.3,4.7
	l-0.9,4.3l1,5.6l-2.4,7.9l2.4,3.1l4.6,2.6l0.3,1.4l2.7-1.4l5.8,4.2l4.1-0.3l4.1,3.5l0.6,4.6l-4.1,2.4L114,40.9l-1.8,1l-10.6-3.8
	L94.7,49l18-0.6l17.5,2l23.9,6.1l0.8-0.8l4.9-0.5L168,58l11.3-0.6L180.1,59z"/>
<g id="particles">
	<path class="st0" d="M55,35.7l1.3,2.1l1.8-2.1H55z"/>
	<path class="st0" d="M48.7,40l4.5-0.9l-0.6,1.1L48.7,40z"/>
	<path class="st0" d="M60.6,35l2.5,2.3v-1.9L60.6,35z"/>
	<path class="st0" d="M41.6,49.6l4-2l-0.7,2.8L41.6,49.6z"/>
	<path class="st0" d="M48.7,43.5v2l3.6-1L48.7,43.5z"/>
	<path class="st0" d="M39.3,39.1l0.6,1.1l1.7-0.7L39.3,39.1z"/>
	<path class="st0" d="M54.6,48.2l3.4,1.6l0.8-4.2L54.6,48.2z"/>
	<path class="st0" d="M143.1,75.3l-2.5,1.9h3L143.1,75.3z"/>
	<path class="st0" d="M129.6,71.8l2.7,2.4v-2.1L129.6,71.8z"/>
	<path class="st0" d="M137.4,72l4.4-2l0.7,1.6L137.4,72z"/>
	<path class="st0" d="M134,89.5l5.3-5.2l0.6,2.2L134,89.5z"/>
	<path class="st0" d="M146.8,72.9c0.4,0.3,3.3,2.6,3.3,2.6l1.2-2.6H146.8z"/>
	<path class="st0" d="M143.1,82l1.1,3.5l1.5-3.5H143.1z"/>
	<path class="st0" d="M123.9,78.7l5.1-1.1l-1.6,4.2L123.9,78.7z"/>
	<path class="st0" d="M117.7,70.3l1.3,1.9l2.1-1.9H117.7z"/>
	<path class="st0" d="M113.4,96.4l3.5,3.6l3.5-4.7L113.4,96.4z"/>
	<path class="st0" d="M173.9,47.5l1.1,1.8l0.5-1.1L173.9,47.5z"/>
	<path class="st0" d="M168.3,48.4c0.4,0.5,0.8,1,1.3,1.4l0.9-1.6L168.3,48.4z"/>
	<path class="st0" d="M171.8,52.2c0.4,0.6,0.8,1.3,1.3,1.9v-2.6L171.8,52.2z"/>
	<path class="st0" d="M178,49l0.3,2.2l1.1-2.2H178z"/>
	<path class="st0" d="M175.1,50.9l0.4,1.4l0.4-1.4H175.1z"/>
	<path class="st0" d="M177.4,54.9c0.1,0,1.2,0.3,1.2,0.3l-0.5-1.1L177.4,54.9z"/>
	<path class="st0" d="M168.5,51.7l0.6,0.6l0.6-1L168.5,51.7z"/>
	<path class="st0" d="M168.5,45.4l2,0.8l-0.5-1L168.5,45.4z"/>
	<path class="st0" d="M33.3,117.9l-0.2-3.3l-4.7,1L33.3,117.9z"/>
	<path class="st0" d="M22.2,122.6l2.2-3.1l2.4,2.2L22.2,122.6z"/>
	<path class="st0" d="M26,140l-2.8,0.5L23,138L26,140z"/>
	<path class="st0" d="M16.1,115.6l-0.5,1.4l3-0.4L16.1,115.6z"/>
	<path class="st0" d="M31.3,121v1.9l2.4-1.2L31.3,121z"/>
	<path class="st0" d="M20.6,128.9l4.2-2.2l-0.4,1.1L20.6,128.9z"/>
	<path class="st0" d="M11.1,120.3l0.3,1.7l3.6,0.9L11.1,120.3z"/>
	<path class="st0" d="M29.5,131.7l3.6-1.1l-0.2,1.1H29.5z"/>
	<path class="st0" d="M27.7,123.9v1.2l1.2-0.6L27.7,123.9z"/>
	<path class="st0" d="M3.4,129.8c0.2-0.2,2-3.1,2-3.1l2.4,3.8L3.4,129.8z"/>
	<path class="st0" d="M83.8,7l0.9,1.7l-4.2-1.3L83.8,7z"/>
	<path class="st0" d="M72.4,5.9l0.5,0.8l1.8-1.3L72.4,5.9z"/>
	<path class="st0" d="M76.3,8.3l-0.5,1l1.1-0.2L76.3,8.3z"/>
	<path class="st0" d="M50.6,7.3l0.3,1.1l0.8-0.9L50.6,7.3z"/>
	<path class="st0" d="M57,1.5l-0.5,1l1.1-0.2L57,1.5z"/>
	<path class="st0" d="M78.4,4.4l-0.7,1.5l2.5,0.6L78.4,4.4z"/>
	<path class="st0" d="M76.9,1l0.7,1l1.2-1H76.9z"/>
	<path class="st0" d="M80.1,10.9h2.2l-1.8-1.6L80.1,10.9z"/>
	<path class="st0" d="M61.5,7.2l1.9,0.4l1.1-1.2L61.5,7.2z"/>
	<path class="st0" d="M83,3.9h2l0.4,0.8L83,3.9z"/>
	<path class="st0" d="M65.9,0l0.6,1h1.2L65.9,0z"/>
	<path class="st0" d="M68.5,12l0.7,0.7l0.8-1.3L68.5,12z"/>
	<path class="st0" d="M52.3,65.1l6.5,8.3l-8.2-4.6L52.3,65.1z"/>
	<path class="st0" d="M33.7,78.5l-10.6,0.8l8.4-4.2L33.7,78.5z"/>
	<path class="st0" d="M60,95.4l-1.8,6.2l-0.6-5.7L60,95.4z"/>
	<path class="st0" d="M46.6,77.1l5.4-1.5l-0.5,3.1L46.6,77.1z"/>
	<path class="st0" d="M24.1,64.9l4.9,2.7l-2.5,1.9L24.1,64.9z"/>
	<path class="st0" d="M43.4,70.2l1.1,1.5l3.2-2.7L43.4,70.2z"/>
	<path class="st0" d="M33,69.5l-0.9,1.6l3.7,1.8L33,69.5z"/>
	<path class="st0" d="M39.6,85.5l5.3,2.8L39,86.9L39.6,85.5z"/>
	<path class="st0" d="M38.2,56.6l-5,3.3l4-4.5L38.2,56.6z"/>
	<path class="st0" d="M27.7,32.3l-3.5-2.6l3.7,1.1L27.7,32.3z"/>
	<path class="st0" d="M23.8,25.9l2.9-0.4l-2.9-4V25.9z"/>
	<path class="st0" d="M8.3,42.6l3.1-1.2l-2.8-0.5L8.3,42.6z"/>
	<path class="st0" d="M9,48.8l1.6-4.8l1.9,5L9,48.8z"/>
	<path class="st0" d="M43.9,24.3h3.4l-2.8-1.2L43.9,24.3z"/>
	<path class="st0" d="M16.7,25.1l2.1,1.1V24L16.7,25.1z"/>
	<path class="st0" d="M31.2,28.3l-1.9,1l2.8,0.3L31.2,28.3z"/>
	<path class="st0" d="M18.7,30.5l2.7,1.7l-1.9-2.5L18.7,30.5z"/>
</g>
<g id="ball">
	<path class="st0" d="M190.3,41.9l1.3-6.4l-2.2-4.8l-3.6-4.1l-6.9-0.9l-6.8,2.5l-3.4,6.3l0.9,6.9l4.7,5.1l6.6,1.6l5.5-2.1
		L190.3,41.9z"/>
	<path class="st0" d="M190.3,41.9l-9.9-4.3l6,8.4L190.3,41.9z"/>
	<path class="st0" d="M180.3,37.6l-10.7,3.9l7.4,1L180.3,37.6z"/>
	<path class="st0" d="M180.3,37.6l0.6,10.5l-6.6-1.6L180.3,37.6z"/>
	<path class="st0" d="M186.4,46.1l-5.7-2.6l0.2,4.7L186.4,46.1z"/>
	<path class="st0" d="M180.3,37.6l-8.3-9.4l1.8,7.7L180.3,37.6z"/>
	<path class="st0" d="M185.8,26.7l-4.1,6l-2.8-7L185.8,26.7z"/>
	<path class="st0" d="M173.9,35.9l-4.3,5.5l-0.9-6.9L173.9,35.9z"/>
	<path class="st0" d="M191.5,35.5l-9.9-2.8l7.7-2L191.5,35.5z"/>
	<path class="st0" d="M181.7,32.8l2.7,6.7l-4.1-1.8L181.7,32.8z"/>
	<path class="st0" d="M191.5,35.5l-9.9-2.8l8.6,9.2L191.5,35.5z"/>
	<path class="st0" d="M181.7,32.8l-4.8,1l-1.4-6.7L181.7,32.8z"/>
	<path class="st0" d="M173.9,35.9l1.2,3.6l5.2-1.9L173.9,35.9z"/>
</g>
</svg>
