<svg id="Layer_1" data-name="Layer 1" xmlns="http://www.w3.org/2000/svg" viewBox="0 0 74.14 161.48"><defs><style>.cls-1{fill:#2a2a2a;}</style></defs><title>tennis-player</title><path id="tennis-player" class="cls-1" d="M74.14,107.84a16.64,16.64,0,0,1-1-4.51,6.91,6.91,0,0,0-.87-3.17s-.23-2.77-.39-3.33a22.62,22.62,0,0,0-.95-2.13s-.24-2.86-2.7-7.77c0,0,2.85-3.32,3.17-4.67,0,0-1.34-1.74-4.43-9.58s-4.39-12.91-6-15.76l-3.57-6.41A45.48,45.48,0,0,1,58,43.14c.55-2.38,1-4.59,1-4.59l-.56-.87L62,31c1.34-2.45,1.74-5.14,2.29-8.47s2.06-8.24,2.85-9a10.13,10.13,0,0,0,2.3-1.66c.32-.56.48-2.93,1.27-3.33s1.74-.47,1.58-1.42-2.14-1-2.93,0-1.42,1-1.5.63S68.36,3,68,2.2a1.19,1.19,0,0,0-1-.8S66.86-.34,65.35.06a9.51,9.51,0,0,1-.47,4.2c-.79,2.93-.71,6.89-1.43,8.07s-5.07,10.54-5.7,12.2a62.67,62.67,0,0,0-1.5,6.89l-1.67,3-.87-.16a33.11,33.11,0,0,1-3.48,5s-.36-1.78-.72-1.9-1.12-1.6-3.26-2.36-5.29,0-7.9,3.15-2,8-1.25,9.62a8.09,8.09,0,0,0,6,4.64s-1.58.51-1.58.75a18.53,18.53,0,0,1-1,3.64A22.92,22.92,0,0,0,38,61a24.7,24.7,0,0,0-1,3.48s-1.35-1-2.06-.71a2.28,2.28,0,0,1-.64.06l-6.8-9.49a32,32,0,0,1-3-5.16,54.09,54.09,0,0,0-6.07-9.52A64.58,64.58,0,0,0,7,27.79a.48.48,0,0,0-.6,0l-2,1.75a.45.45,0,0,0-.14.5c.39,1.2,2.14,5.87,7.23,12.29a45.36,45.36,0,0,0,8.29,8.09A32.61,32.61,0,0,1,27.12,58l4.76,7a7.34,7.34,0,0,0,.21,4.56c.64,1.27,4.2,2.85,4.2,2.85s.55,6.65,1.82,10.06,5,6.34,6.49,5.86,2.54-2.93,2.93-7c0,0,.32,1.9.56,3.09l.55.32A24.63,24.63,0,0,1,48.33,90c-.48,2.7,2.29,6.74,2.29,6.74s.16.87.32,2.21a5.35,5.35,0,0,0,1.82,2.7,5,5,0,0,0,1.43,2.61c1.34,1.5.71,4.2,1.34,5.31a7.9,7.9,0,0,1,.79,1.66v6.73a10.48,10.48,0,0,0,3,.4l1.59,2.93a16.4,16.4,0,0,0-4.52,5.38c-1.7,3.19-3.84,8-5.75,11.21-.54-.22-1.29-.44-1.53-.1-.4.55-2,3.7-2.69,4.73-.6.85-1,2-.24,2.84l-.79,1.52s-1-.24-1.19.63-.4,3.09-1.59,4.12a3.07,3.07,0,0,0-.22,4.34,3,3,0,0,0,.46.41c1.82,1.66,5.55,1.66,6.81,2.93s3.88,2.22,12,2.22A3.76,3.76,0,0,0,60.31,158c-1.74-1.34-5-3.88-5.7-5.22s-1.19-2.54-.79-2.93a9.05,9.05,0,0,0,1-2.22s5.86.31,10.22-1.43a3.11,3.11,0,0,0-.8-2.45c-1-1.11-5-1.59-5.38-2.06a6.84,6.84,0,0,1-.79-1.66,85.1,85.1,0,0,1,6.49-7.69c2.69-2.61,6.1-6,6.57-7.36a35.13,35.13,0,0,0,.72-5.78,7.71,7.71,0,0,0,1.74-1.82c.4-.8-.4-8.72-.4-8.72Z" transform="translate(0 0)"/><g id="tennis-particles"><polygon class="cls-1" points="5.95 41.46 6.05 47.1 4.52 41.64 5.95 41.46"/><polygon class="cls-1" points="0 43.33 2.28 43.39 1.54 40.93 0 43.33"/><polygon class="cls-1" points="0.21 50.45 1.76 46.48 2.3 47.5 0.21 50.45"/><polygon class="cls-1" points="2.28 38.61 5.38 37.84 3.85 36.86 2.28 38.61"/><polygon class="cls-1" points="14.57 55.34 15.02 51.19 16.83 53.15 14.57 55.34"/><polygon class="cls-1" points="8.85 54.24 10.44 55.27 11.45 51.95 8.85 54.24"/><polygon class="cls-1" points="18.97 57.76 20.14 57.79 20.42 56.11 18.97 57.76"/><polygon class="cls-1" points="9.65 49.94 12.66 48.06 9.69 45.32 9.65 49.94"/><polygon class="cls-1" points="45.69 99.51 48.53 99.18 44.53 104.06 45.69 99.51"/><polygon class="cls-1" points="49.27 115.54 50.69 115.31 49.89 112.28 49.27 115.54"/><polygon class="cls-1" points="43.45 110.19 44.59 111.42 44.93 109.8 43.45 110.19"/><polygon class="cls-1" points="47.18 131.23 48.84 131.46 48.09 129.99 47.18 131.23"/><polygon class="cls-1" points="42.86 119.56 44 120.79 44.34 119.17 42.86 119.56"/><polygon class="cls-1" points="39.3 105.32 40.99 107.03 43.14 103.99 39.3 105.32"/><polygon class="cls-1" points="34.01 105.51 35.75 105.18 34.99 103 34.01 105.51"/><polygon class="cls-1" points="49 106.47 50.16 103.49 47.08 105.06 49 106.47"/><polygon class="cls-1" points="48.68 125.43 50.25 123.04 49.2 120.89 48.68 125.43"/><polygon class="cls-1" points="41.18 98.85 42.26 96.09 43.61 96.03 41.18 98.85"/><polygon class="cls-1" points="41.26 115.74 42.95 115.54 43.6 113.88 41.26 115.74"/><polygon class="cls-1" points="54.28 120.22 55.62 119.69 54.31 117.96 54.28 120.22"/></g></svg>